<?xml version="1.0" standalone="no"?>
<!DOCTYPE svg PUBLIC "-//W3C//DTD SVG 1.1//EN" "http://www.w3.org/Graphics/SVG/1.1/DTD/svg11.dtd" >
<svg>
<metadata>
Created by FontForge 20090622 at Thu Apr  2 06:13:56 2020
 By deploy user
Typeface &#194;&#169; (your company). 2011. All Rights Reserved
</metadata>
<defs>
<font id="Snowflake" horiz-adv-x="1058" >
  <font-face 
    font-family="Snowflake"
    font-weight="400"
    font-stretch="normal"
    units-per-em="2048"
    panose-1="2 0 5 0 0 0 0 0 0 0"
    ascent="1638"
    descent="-410"
    x-height="1426"
    cap-height="1433"
    bbox="0 -358 1802 1912"
    underline-thickness="150"
    underline-position="-142"
    unicode-range="U+0020-U+0454"
  />
<missing-glyph horiz-adv-x="1024" 
d="M100 0v1434h824v-1434h-824zM150 50h724v1334h-724v-1334zM325 1148q31 28 58 43q53 30 112 30q92 0 148 -47.5t56 -127.5q0 -49 -23 -98.5t-87 -129.5q-63 -80 -99 -132t-36 -99q0 -38 24 -133h-32q-35 97 -35 148q0 76 81.5 218t81.5 217q0 57 -33 90t-91 33
q-38 0 -69 -17q-26 -15 -56 -40v45zM389 334l57 58q11 10 20 10q10 0 22 -11l56 -60q9 -11 9 -20q0 -11 -10 -22l-56 -62q-14 -14 -21 -14q-11 0 -20 10l-61 71q-7 9 -7 18q0 10 11 22z" />
    <glyph glyph-name=".notdef" horiz-adv-x="1024" 
d="M100 0v1434h824v-1434h-824zM150 50h724v1334h-724v-1334zM325 1148q31 28 58 43q53 30 112 30q92 0 148 -47.5t56 -127.5q0 -49 -23 -98.5t-87 -129.5q-63 -80 -99 -132t-36 -99q0 -38 24 -133h-32q-35 97 -35 148q0 76 81.5 218t81.5 217q0 57 -33 90t-91 33
q-38 0 -69 -17q-26 -15 -56 -40v45zM389 334l57 58q11 10 20 10q10 0 22 -11l56 -60q9 -11 9 -20q0 -11 -10 -22l-56 -62q-14 -14 -21 -14q-11 0 -20 10l-61 71q-7 9 -7 18q0 10 11 22z" />
    <glyph glyph-name="NULL" horiz-adv-x="0" 
 />
    <glyph glyph-name="nonmarkingreturn" horiz-adv-x="508" 
 />
    <glyph glyph-name="space" unicode=" " horiz-adv-x="508" 
 />
    <glyph glyph-name="space" unicode="&#xa0;" horiz-adv-x="508" 
 />
    <glyph glyph-name="exclam" unicode="!" horiz-adv-x="510" 
d="M223 1433l87 -14l44 14l28 -29h15l43 29l15 -14v-15l-15 -14v-15l29 -29l-14 -43h-44v58l-57 -29l43 -58v-44l-15 -14v-14h29v43l29 -29l-14 -87l14 -58l-43 -43l14 -44h-43v-14q0 -29 43 -29l15 -15v-43q0 -75 -44 -130l29 -44l-43 -58l29 -29v-28l-29 -29l14 -73v-29
l-57 15l-145 -29q-36 0 -73 420l15 14v15q-44 222 -58 521l14 14h145zM281 1216v-14h29v14h-29zM354 1202v-29h14v29h-14zM354 912v-14h28v14h-28zM296 637v-15h29v15h-29zM223 405h44q118 0 159 -101v-29l-29 -87l29 -29l-44 -43l15 -15v-14l-58 -87h-14l-29 29l43 43h-29
q-55 -43 -130 -43h-29q-50 0 -73 159v58q37 91 102 116z" />
    <glyph glyph-name="dollar" unicode="$" horiz-adv-x="447" 
d="M195 1395h59q43 0 58 -188l14 14h29q58 -24 58 -102v-72q0 -44 -58 -44l-72 15l-15 -44q96 0 174 -175q-32 -160 -145 -261q0 -102 -29 -102h-87q0 102 -87 175l-15 58l15 14v15l-15 58l15 14h14l29 -29q73 0 73 29l-87 88q-73 80 -73 145q0 151 160 233v14q-44 0 -44 29
v29l15 15v14l-29 29zM181 974l-15 -15v-14h44z" />
    <glyph glyph-name="quotesingle" unicode="'" horiz-adv-x="500" 
d="M450 1361l15 -15v-43l-29 -44l14 -14q-24 0 -43 -101h-15l15 -15v-29l-29 -29l-58 15l-14 -15v-14l57 -15v-72l-57 -72l14 -73l-29 -29l-14 15l-44 -15l-14 15h-15l-130 -29l-29 29q101 535 130 535h174zM378 1259v-29h29zM363 1187v-29h15v29h-15zM190 1013h43v29h-14z
M233 999v-15h29v15h-29zM190 970q0 -25 72 -44l-14 44h-58z" />
    <glyph glyph-name="comma" unicode="," horiz-adv-x="557" 
d="M170 377h251l27 -28l-55 -97l14 -14v-28l-28 -28l14 -14v-13l-42 -42l-28 28h-14l-14 -42q37 0 56 -97q-56 0 -56 -126l-13 -14h-70l-14 14h-14l-28 -28h-83l-14 14h-14q97 515 125 515zM351 294v-28h28v28h-28zM337 224v-56h14l14 56h-28zM156 43q1 -37 98 -83v14
l-14 41l28 28q-42 0 -42 56z" />
    <glyph glyph-name="hyphen" unicode="-" horiz-adv-x="670" 
d="M169 794h42l41 -13l70 13h181l41 -41q0 -28 -41 -28l28 -42v-42l-14 -13v-14l27 -28l-41 -14l28 -42v-42l-14 -13v-14l-98 14h-41q0 55 -42 55h-14v-55l-28 27l14 14h-42q-28 0 -28 -41h-97v69l28 42l-28 28v153zM419 516v-14h28l14 42h-14z" />
    <glyph glyph-name="hyphen" unicode="&#xad;" horiz-adv-x="670" 
d="M169 794h42l41 -13l70 13h181l41 -41q0 -28 -41 -28l28 -42v-42l-14 -13v-14l27 -28l-41 -14l28 -42v-42l-14 -13v-14l-98 14h-41q0 55 -42 55h-14v-55l-28 27l14 14h-42q-28 0 -28 -41h-97v69l28 42l-28 28v153zM419 516v-14h28l14 42h-14z" />
    <glyph glyph-name="period" unicode="." horiz-adv-x="557" 
d="M268 391h111q59 0 126 -223l-28 -27l14 -14v-14q-14 -56 -56 -56l-42 14v-14l14 -42l-14 -13h-41l14 13v42h-28q-28 0 -28 -69h-14q-129 0 -167 194q0 123 139 209zM254 266v-14h42v14h-42z" />
    <glyph glyph-name="slash" unicode="/" horiz-adv-x="1206" 
d="M916 1417h250l-12 -82l-197 -289l-6 -41l-40 -83l-69 -83l-6 -41l-20 -41l-102 -124l12 83h-14l-74 -124q37 0 -85 -289q-56 0 -237 -372l-34 -41h-70l6 41h-14l-68 -83h-83l6 42h-14q843 1527 871 1527zM976 1170l-41 -83h28l41 83h-28zM861 963l-80 -165h13l95 165h-28
zM418 427q-53 -111 -23 -248l20 41l46 124l69 83q-42 0 38 165z" />
    <glyph glyph-name="zero" unicode="0" horiz-adv-x="1161" 
d="M582 1441h74q60 -31 60 -74h44q0 44 30 44l30 -44l-15 -15l15 -15l15 15h29v-60l-15 -59q59 -136 119 -163h30v44h15l30 -30q-8 -59 -45 -59v-74l-30 -45l15 -15h45v75h15l44 -45l-44 -45v-14q59 0 89 -60l-60 -104l15 -15l-15 -74v-89h15q0 45 30 45l15 -15v-15l-15 -15
l-45 -15v-15l15 -15v-14l-15 -15v-15l15 -45l-44 -29l-30 29h-15v-29h-15l-44 14l-15 -59h-89v-30q74 -10 74 -44v-15l-15 15h-15l-44 -45l14 -59l-14 -15h-15l-60 15l-14 -45l-60 45l-30 -30v-104h-14l-30 30q0 35 -60 89h-29v-15l29 -45v-44h-59v30h30l-30 29l-45 -15
l15 15v30h-15l-59 -45q-30 0 -30 45h-15l-14 -15h-15l-15 15q0 30 -74 59l-30 60v15l15 15v14q-134 113 -134 372v59q0 274 74 297l-29 30q0 114 133 163l45 60l-30 30v29q135 134 312 134zM716 1322l-15 -59l15 -15v-15l-15 -45l15 -14h15q0 44 44 44v30l-44 15l15 15v44
h-30zM642 1307v-15h29v15h-29zM448 1278l-14 -75l14 -15h15l45 30q-22 60 -45 60h-15zM612 1248v-30q44 0 44 -59h15l15 44l-15 15v15l15 45h-15zM953 1233l30 -45h-15l-44 15l-15 -15v30zM478 1040l-44 -45l-45 30h-15l30 -45l-30 -44l15 -15l-15 -15v-44l60 -15v15l-15 59
h59v-74l-44 -45l-45 15v-15q6 -74 45 -74v-59h-45q0 103 -74 103v-14l89 -193l15 14h15l14 -14v-30q26 0 45 -74l-15 -45h89l60 -15q35 0 133 134l15 -15l-15 119l15 44l-29 30v89l-15 89l15 45l-60 74l-89 30l-74 -15zM849 951v-15l45 -45q0 45 45 45l-30 30zM270 891v-29
h15v29h-15zM1028 832q0 -22 59 -45v45h-59zM211 654l15 -15v-15l-15 -74h29v29q45 0 45 30v60h-45l-14 -15h-15zM1087 654h15l30 -30l-15 -15h-15l-15 15v30zM924 609v-30h29l30 30v15h-15zM359 550l15 -45h15v60l-15 -15h-15zM983 505v-30h30zM434 461h29v29zM686 371v-29
l30 29h-30zM582 312l30 -30v30h-30zM701 312v-30h15l30 30h-45zM686 267v-44l30 30l-15 14h-15zM1013 282l30 -29l-75 -60v45zM746 208v-30h14v30h-14zM746 74h29v-44h-29v44z" />
    <glyph glyph-name="one" unicode="1" horiz-adv-x="643" 
d="M150 1425l258 -15l15 15h16l15 -15h15l60 15l31 -45v-31h-31l-15 15h-15l-30 -30q0 46 -30 46l-16 -16v-15l31 -91l-61 -45l46 -31l-16 -15v-15q0 -45 61 -45l15 -16v-15l-45 -15l30 -30l-15 -46h-15l-46 31l-15 -46l30 -30l61 -15l15 -15v-16l-45 -15l30 -60l-15 -46h45
l15 15l16 -15l-16 -45h16l30 -31l-30 -60h-16l-15 60h-15l-45 -45v-15q44 0 75 -61h-45l15 -15v-15q0 -31 -76 -31v-15q46 0 46 -30l-30 -46l15 -15h60l-15 76v15l30 31h16v-61l-16 -106l-15 15h-15l-45 -15l-31 30q-9 -106 -60 -106v-30q51 0 60 -122h106l16 -121l-16 -15
h-15l-15 76h-15q-38 0 -45 -61l-16 -15h-15l-15 15l-45 -15l-76 30l-31 -30h-15l-45 45v31l30 258l-30 30v121l-15 91l15 61l-15 15l15 76v121l15 15l-15 15v15l30 46q0 30 -106 121v334q0 30 45 30zM484 1334q28 0 76 -91l-15 -15h-16q-30 0 -45 106zM211 1213l61 -15
l15 15v30h-46zM514 1182l31 -30v-30l-31 30v30zM499 1046h46v-76l-31 -30l-15 15v15l15 15v16zM529 864h16v-30h-16v30zM257 591v-15h45v15h-45zM378 76v-15h30v15h-30z" />
    <glyph glyph-name="two" unicode="2" horiz-adv-x="944" 
d="M402 1439h106q220 0 333 -333l-15 -15l-15 15h-31v-15q0 -46 46 -46l15 -15v-76l-91 -15l-15 15v-15l30 -60h31v30h30q0 -106 -30 -106l-46 15v-15l-30 -46l30 -30l30 30v-30l-30 -45l15 -46h-60v-15l15 -15v-15q-65 0 -106 -182h242q31 0 31 -45l-31 -152l15 -45
l-15 -16v-15l15 -60v-15l-30 -31h-30l30 46l-45 30q0 -45 -76 -45q0 -61 -30 -61q-20 76 -46 76l-91 -46h-15v31l30 45v15q-53 0 -106 -60l-15 15h-15l15 15v30h-45l-15 -76h-31l16 76l-46 -30l-15 15h-15v-45q-31 0 -31 45h-30l15 -76l-45 -15l-15 15h-15l-46 -15l-15 15
v182l61 121l-16 46q194 200 288 469q0 81 -60 197h-46l-76 15q0 -30 -75 -30q0 -45 -31 -45h-15l15 60l-15 46l15 15v15l-30 91l46 15l45 -15l30 45q-106 15 -106 46v45q61 91 258 91zM341 1242v-15l76 -30h15l-15 15v30l30 30h15v-15l-15 -76l15 -15h16q0 46 45 46v30
q-45 0 -45 61l-106 -61h-31zM674 1272v-30h16v30h-16zM780 1000v-15h31v15h-31zM659 666v-45h31v15zM432 636q0 -45 -45 -45v-15q45 0 45 -31l-15 -15v-15l15 -15l15 15h46v-30h15q0 75 45 75l-60 76l-46 -15zM599 560v-30h30zM568 500v-30h16v30h-16zM811 242l-15 -15v-15
l15 -15h15l15 15v15l-15 15h-15z" />
    <glyph glyph-name="three" unicode="3" horiz-adv-x="891" 
d="M408 1439h76q348 -66 348 -303l-61 -15v-30h15l16 15h15l15 -15v-16l-136 -75h-16q-55 45 -106 45h-15v-15q48 0 121 -91q0 -91 -60 -91v-15h15q45 0 45 46h16q26 0 45 -76h30l-15 -15v-15l-15 15h-45l-46 -46l106 -60v-16l-15 -15v-15q91 -31 91 -60l-30 -31h-16v31h-30
l-45 -46h30l45 15v-45h-30v-15q36 -91 61 -91v60h15l30 -30l-106 -106l-30 30l-30 -30v-15l15 -15v-15l-61 -46v-15q61 0 61 -45q-31 -91 -61 -91h-15l30 45v61h-45l-106 -76l-46 15l-30 -30h-15l-45 30h-122q-136 0 -136 106l15 15v16l-15 196l15 16h15q77 -106 258 -106
q0 -46 30 -46v15l-15 15v16l61 166q-83 0 -167 121q-113 0 -136 76q15 136 45 136h197q0 45 76 137l-152 45v30h15l76 -15l15 15v16l-121 60h-15q0 -96 -167 -136l-15 15v15l46 46l-46 30l15 15l-15 106v91q0 60 273 106zM438 1318q0 -61 -45 -61v-15q109 -106 242 -106
l30 30l15 -15h16q0 38 60 46v45l-76 15l-30 -30h-45l-91 45l15 16v30h-15v-30h-30zM211 1257v-15l30 -30h15l31 30v15h-76zM726 1151v-15h30v15h-30zM726 1121v-15h30v15h-30zM468 1075v-15h31v15h-31zM786 1000l31 -46l-15 -15h-16l-30 30zM696 651v-30h30v30h-30zM453 621
l-15 -15v-15l15 -15h15l16 15v15l-16 15h-15zM302 621l15 -15v-15l-15 -15h-15l-16 15v15l16 15h15zM574 606v-15h31v15h-31zM680 591v-31l31 31h-31zM499 576v-31h15v31h-15zM786 500l31 -30v-16l-31 31v15zM726 364h30v30zM468 364v-46l31 30l-15 16h-16zM165 288v-15
l61 -31h30v31l-45 15l15 15v30h-15zM362 288v-15h46v15h-46zM484 288l-16 -61l16 -15h30v15l-15 46l15 15h-30zM408 227h30v31zM150 212v-15h31v15h-31zM741 182h30v-15h-30v15zM165 121q10 -45 122 -45v-31h-61q-79 0 -91 46zM605 91l15 -15v-15l-106 -16v31z" />
    <glyph glyph-name="four" unicode="4" horiz-adv-x="1014" 
d="M405 1439h273q60 -38 60 -106h46v30l-31 46l16 15l15 -15h30l15 15h15l16 -15v-31h-61v-15h30l-30 -45l15 -15v-15h-15l-30 30l-46 -15l15 -61l-15 -61q51 0 61 -90q60 -8 60 -46l-15 -15h-15l-15 15h-15l-31 -76l46 -30l30 30l15 -15v-45h-15l-15 15h-15v-61
q45 0 45 -30v-15h-15l-45 45l-46 -15v-45h31v-30l-16 -16q19 -67 91 -106l46 15l45 -15l15 15l31 -121h-15l15 -15v-15l-31 -121l16 -46h-16l-60 16l-30 -46l15 -106l-31 -30l16 -46h-16l-91 31h-15v-16q0 -30 46 -30v-15l-15 -15v-15h121v-15l-30 -31l-76 15l-31 -30
l-30 30h-15l-76 -15l-30 31l-45 -46h-16l-30 30v334q-55 0 -76 60l-15 -15l-75 15h-16l-45 -45l-76 15h-15v-30l-15 15h-15q-31 0 -31 -46l-15 -15h-15l-15 15l15 46l-15 242zM784 1242h30l46 -45l-16 -16l-15 16h-15l-15 -16h-15l-15 16zM814 1151h30v-15h-30v15zM435 969
l16 -15h15v46zM466 924v-30l15 -15v-16q-30 0 -61 -197l15 -15h61v197l15 15l-15 61h-30zM738 924v-15h31v15h-31zM375 773v-16h30v16h-30zM844 788h31v-15l-46 -46h-30v30q45 0 45 31zM360 727v-15h30v15h-30zM769 439l30 -30h30v30h-60zM890 439v-15h30v15h-30zM784 364
l-31 -61l31 -30l15 15h15l-15 15v30l15 15v16h-30zM723 258v-31h30zM769 227v-30h60v15z" />
    <glyph glyph-name="five" unicode="5" horiz-adv-x="1014" 
d="M210 1424h606l31 -30v-31l-31 -45l15 -46h-45l-45 31l-16 -137h61v15l-15 16v15l45 30l31 -151l-46 -16v-30h46v-30q-167 15 -167 45l30 31v30l-91 -15l16 -15v-16l-61 -45h-30v45l-31 -30v-15h31v-15l-15 -15l15 -106h45q103 -16 106 -46l15 15h15q133 -117 167 -181
l-30 -31h-76v-30q129 0 152 -76l-31 -45l31 -30h-61v-16h30l-15 -75l15 -15h-60l45 -61v-15h-30v30l-15 -15h-31l-15 15l-76 -30v-15q0 -36 106 -46l-30 -91l-15 15h-15l15 16v30l-61 15q0 -91 -196 -136l15 -15v-31h-31q0 34 -136 76l-45 -45l-46 45q0 -45 -30 -45h-46
q-30 0 -30 45l-15 333l15 15h15q31 -63 152 -106h15q167 25 167 167q0 71 -152 121q-119 -35 -182 -91l-15 15v834zM271 1303q0 -61 -61 -61v-30l122 -61q0 61 75 61q0 26 -75 45v46l-16 -15h-15l-15 15h-15zM286 1242h46v-30h-46v30zM498 1121v-15h31v15h-31zM756 1091v-31
h30v31h-30zM468 1030v-30h15v30h-15zM831 560l-15 -45h15l31 30v15h-31zM347 212v-30l30 30h-30zM665 91h30v-30h-30v30z" />
    <glyph glyph-name="six" unicode="6" horiz-adv-x="1014" 
d="M392 1426h60l60 -15l45 15l60 -90v-15q-25 -60 -60 -60v-45q60 0 60 -30v-30l-75 -60l15 -45l-15 -15l-15 15h-30v-15q0 -81 60 -105h15q0 60 120 60q124 0 196 -150h45l-105 -90v-30l105 -31v46q-45 0 -45 30l15 15h15l45 -60v-31q0 -30 -75 -30q0 -30 45 -30l45 15v-15
l-30 -45l15 -15l-75 15h-15v-15q0 -30 45 -30l15 -15v-75l-15 15h-15l-15 -15v-15h45v-15q-60 -67 -60 -105l15 -45l-15 -15h-15l-15 15q-47 -135 -136 -135q-12 -90 -90 -90l-15 15v-15l15 -45h-30q-4 43 -165 120h-30v-15l30 -45v-15h-15l-45 30l15 15v15l-15 15v15l15 45
h-15l-90 -60l-45 15v30l15 -15h30v15l-30 45l30 30l-15 15h-15l-30 -30h-15q0 34 -90 135l-30 225q105 580 315 841zM617 1426h45l60 -60l-45 -30h-15l-45 60h-30zM647 1321h15v-30h-15v30zM392 1261v-30l30 30h-30zM497 1201v-15h30v15h-30zM557 1186v-15h30v15h-30z
M482 1096v-30h30v30h-30zM437 976l30 -30l15 15v15h-45zM362 886l15 -15h60v15l-30 30h-15zM813 856v-30h45l-30 30h-15zM392 540l60 -60l-15 -15v-30q0 -48 150 -60l75 165q-61 120 -90 120h-75zM197 585h30v30zM362 495v-30h15v30h-15zM948 390h45v-15l-30 -30l-15 15v30z
M677 315v-30h45l-30 30h-15zM557 300v-15h30v15h-30zM933 315h15v-30h-45zM903 195v-15l-30 -30v15zM587 135l30 -30h15l-30 30h-15zM828 150h45l-30 -30h-15v30zM527 105v-30h30zM752 75h30v-15h-30v15z" />
    <glyph glyph-name="seven" unicode="7" horiz-adv-x="888" 
d="M139 1426h645l30 -30v-60h-30l-15 15h-15q0 -90 -60 -90v-30q40 0 105 -75l-90 -15l15 -90l-15 -15v-15l15 -90h-15l-15 15h-15l-15 -15l15 -75l-30 -30l-15 15v15l-45 -15l15 -15l-15 -75l15 -46l-45 -45l15 -45h-15l-15 15h-15l-15 -15v-45h45v-60h-15l-45 15l15 -45
q-22 -60 -45 -60l-15 15l-15 -75l15 -15h15v45h30l15 -120q-45 0 -45 -75l-60 -45l15 -45l15 15h30l-15 -75h-30l-45 75l15 45l-90 -45q25 -75 75 -75v-30h-15l-60 45h-15l-60 -45h-15l-15 15h-15l15 15v15l-15 45h-15q0 -90 -45 -90h-15v15q135 516 180 555h30l30 -30
q-45 0 -45 -30l30 -30l15 60h15l45 -30h15l45 75l-45 15l-60 -15l-45 15v45h30v15l-30 46v30l75 135l-15 15l45 45l-30 30l15 45l-15 45l-15 -15h-15l-195 105l-30 -30h-30v15q60 90 60 135t-45 45l-15 15v60zM274 1336l30 -30q-75 -19 -75 -45q34 0 60 -105h15l45 45
l15 -45h30v30l-30 45v15h75v30h-60l15 75v15h-30v-45h-45v45h-15zM574 1261v-30l30 30h-30zM634 1171v-15l30 -30h15l-15 45h-30zM124 1066h30v-15h-30v15zM664 961h30v30zM544 721v-31h15v31h-15zM394 705v-60l30 30zM529 450h15l30 -30l-30 -30l-15 15v45zM349 345l-15 15
h-15q0 -45 -45 -45v-45h15l30 30l15 -15h15l15 15h15l30 -30l30 30q-45 0 -45 75zM304 225h30v30z" />
    <glyph glyph-name="eight" unicode="8" horiz-adv-x="953" 
d="M419 1426h75q195 0 316 -150l-15 -60l15 -15h15l45 15v-15q0 -30 -90 -30l15 -45l-15 -45l15 15h45v-15q-34 -34 -45 -165h30v30h30v-30q0 -30 -45 -30l15 -15v-60h-45l-76 -15v-15l45 -45l16 15h15q75 -65 105 -136l-30 -45v-15h45v30h30v-15l-45 -90l15 -60l-15 -60
l-30 30l-75 -30v-15h15l60 15h15l-45 -75v-30h45v-15l-60 -30l-15 45h-30v-15l15 -15v-15q-61 -15 -61 -60h-15l-15 15l-15 -15h-15l-15 15h-15v-15l15 -60q-45 0 -45 -30l30 -30v-15h-15q-156 120 -210 120l-60 -75l-120 135v15h45q0 45 -60 45v60h-30q0 -39 -75 -60
l-60 105q0 244 180 391v15l-30 30l-15 -15l-30 45v30l45 60l-15 15h-15l-30 -30h-15l-45 45v105q0 165 45 165h30q30 0 30 -45h45l15 45l-15 45l-75 -15v15q112 165 270 165zM374 1216q30 0 30 -45h30l45 120q-72 0 -105 -75zM644 1201h45l30 30v15h-30zM404 991l-75 15
q15 -66 75 -75l30 -75h45q54 0 120 60q-15 165 -90 165q-105 0 -105 -60v-30zM179 856h15l30 30h-15zM254 796v-30h30l30 30h-60zM434 660v-30h15v30h-15zM479 630l30 -45l-15 -15h-15v15l-15 -15h-15l-30 30q-90 -30 -90 -60l15 -105h30v30h30l45 -120h45q90 0 90 90
q0 164 -90 195h-15zM209 615v-15h30v15h-30zM704 615v-30l30 -30l15 15v15l-30 30h-15zM179 585q0 -34 75 -45l30 45h-15l-15 -15h-15zM359 405v-30h30v30h-30zM404 330v-30h15v30h-15zM930 315h15v-15l-30 -30h-15v15zM644 270v-30h45v30h-45zM134 240l15 -15v-15l-15 -15
h-15l-15 15v15l15 15h15zM194 240h30v-30h-30v30zM870 225l30 -30h-30v30zM825 180v-15l15 15h30v-45h-45l-30 30l15 15h15zM554 120l30 -30h15v30h-45zM449 90h15v-30h-15v30z" />
    <glyph glyph-name="nine" unicode="9" horiz-adv-x="1014" 
d="M575 1441q165 0 165 -105l15 15h45v-15l-30 -90l61 -15v45h45v-30l-30 -45l15 -75h15l15 15h15q0 -30 45 -30l15 -15v-30q0 -45 -60 -45v-15l60 -135h-60v-15q0 -30 45 -30l15 -15v-30l-15 -15v-15h45v-30l-45 -76l15 -45l-15 -15h-60q-30 0 -30 60h-15l-15 -15h-15
l30 -90l-61 -15v-30q61 0 61 -30v-15q0 -30 -46 -30l16 -15v-30h-16l-45 15l-45 -90l15 -45l-30 -30q45 0 45 -30l-30 -30l-60 15l-30 -120h-45l-165 -30h-30l-15 15h-15q97 225 195 225l30 30l45 -45h15l30 30l-135 75q0 50 45 105v15l-75 -15q0 65 -60 90v15h-15l-45 -30
l-60 15v-15l30 -45l-45 -30l-75 105l30 30q-30 0 -30 45h-45l-45 -30h-15l-30 211q30 0 30 45l-15 165q9 135 30 135l45 -15v45q0 186 345 240h45zM440 1096v-30q60 0 60 -30l-60 -120v-45l30 -45l-30 -30v-30l15 15h15l60 -30q120 0 120 165q0 116 -180 180h-30zM785 946
v-75l31 -30h15v15l-15 45h15l-15 45h-31zM335 931v-30h30zM846 916v-30h15v30h-15zM891 736l30 -31v31h-30zM215 615l15 -45h-15l-30 30l15 15h15zM395 480h60v-30h-30zM891 480l30 -30h-30v30zM545 255v-30q45 0 45 -45h15v45zM800 270l16 -15v-15l-16 -15h-15l-15 15v15
l15 15h15zM125 225h30v-30h-30v30zM695 135h30q-18 -120 -60 -120l-15 15v15q45 39 45 90z" />
    <glyph glyph-name="colon" unicode=":" horiz-adv-x="557" 
d="M296 1017h56q126 0 153 -223l-14 -13h-14l14 -14v-42q-51 -111 -209 -111q-153 50 -153 194q42 209 167 209zM268 892v-14h28v14h-28zM324 683v-28h42l-28 28h-14zM268 391h111q59 0 126 -223l-28 -27l14 -14v-14q-14 -56 -56 -56l-42 14v-14l14 -42l-14 -13h-41l14 13
v42h-28q-28 0 -28 -69h-14q-129 0 -167 194q0 123 139 209zM254 266v-14h42v14h-42z" />
    <glyph glyph-name="semicolon" unicode=";" horiz-adv-x="557" 
d="M309 1031q106 0 153 -195h-14l14 -14v-14q0 -180 -222 -194q-139 54 -139 153v83q0 153 208 181zM226 892v-14h28v14h-28zM295 683v-28h28v28h-28zM170 377h251l27 -28l-55 -97l14 -14v-28l-28 -28l14 -14v-13l-42 -42l-28 28h-14l-14 -42q37 0 56 -97q-56 0 -56 -126
l-13 -14h-70l-14 14h-14l-28 -28h-83l-14 14h-14q97 515 125 515zM351 294v-28h28v28h-28zM337 224v-56h14l14 56h-28zM156 43q1 -37 98 -83v14l-14 41l28 28q-42 0 -42 56z" />
    <glyph glyph-name="semicolon" unicode="&#x37e;" horiz-adv-x="557" 
d="M309 1031q106 0 153 -195h-14l14 -14v-14q0 -180 -222 -194q-139 54 -139 153v83q0 153 208 181zM226 892v-14h28v14h-28zM295 683v-28h28v28h-28zM170 377h251l27 -28l-55 -97l14 -14v-28l-28 -28l14 -14v-13l-42 -42l-28 28h-14l-14 -42q37 0 56 -97q-56 0 -56 -126
l-13 -14h-70l-14 14h-14l-28 -28h-83l-14 14h-14q97 515 125 515zM351 294v-28h28v28h-28zM337 224v-56h14l14 56h-28zM156 43q1 -37 98 -83v14l-14 41l28 28q-42 0 -42 56z" />
    <glyph glyph-name="question" unicode="?" horiz-adv-x="822" 
d="M408 1425q146 0 291 -175l29 -29v-14q0 -30 -58 -30v-58h29q0 44 29 44l15 -15v-14l-30 -29q59 -8 59 -44v-43q0 -30 -88 -30v-29q73 -4 73 -43v-15l-44 -43l15 -44q-44 0 -44 -58q-26 0 -174 -175h-15l15 -14v-15q0 -75 -73 -116q0 44 -29 44v-44h-116v15l14 72h-14
q-29 0 -29 -43l-15 -15h-14l-29 73l14 14h29q88 0 88 -87h29l29 29v15q-58 0 -58 102l-44 -30h-44l-29 30v14q204 275 204 378q0 61 -73 102q0 56 -73 116l-58 -73l15 -14l14 14h29l29 -29q0 -22 -58 -43l-29 29l-29 -29l-58 43v189q68 117 276 117zM248 1323v-44h29l-14 44
h-15zM321 1308v-29h15v29h-15zM277 1265v-15h29v15h-29zM205 1250v-14l14 -15v-14l44 14v15zM626 1236v-44h29v44h-29zM684 1090v-14h29v14h-29zM190 1047v-15l-29 -29l-14 15v14l14 15h29zM481 640v-29h14v29h-14zM437 611v-15h29v15h-29zM365 581l29 -58h43v15l-43 43h-29
zM394 392h58q59 -40 102 -174v-44q0 -116 -88 -116q-40 -58 -101 -58h-15q-29 0 -29 73l-15 14h-29v-43h-14q-73 37 -73 116v58q0 29 58 29v15l-29 43l15 15h14l44 -15l-15 15v29q9 43 117 43zM306 305h30v29zM466 247v-43l58 -15q-10 44 -58 58zM248 204v-15h29l15 44h-15z
M306 218l30 -29v29h-30zM379 87l29 -29q0 29 44 29v15h-15z" />
    <glyph glyph-name="A" unicode="A" 
d="M377 1448l15 -15l106 15h151l45 -30h75v-15l-15 -15v-15h30v-31l-45 -15l15 -15v-45l-15 -15l15 -75h30l46 30l15 -46l-15 -15v-15l30 -151h-30v61l-61 -30l-45 15v-15l91 -76v-15l-16 -45h46v45l30 -30v-60l-45 30l-31 -45q0 -46 106 -46l15 -75h-15q-45 0 -45 -30
l15 -46l-15 -90v-30h15l15 15l15 -15h30l-30 60l15 15v15l-30 76h15q45 0 60 -242l-15 -15l30 -30l-15 -15v-15l15 -15l-30 -30v-15q0 -31 46 -31l15 -15v-15l-31 -30h31v-30q-46 0 -46 -30l61 -15l-15 -61l15 -45h-151l-60 15l-121 -30q-45 40 -76 226l-15 15h-15l-15 -15
h-15l-45 15l-91 -15v30h-15l-30 -30v-15l15 15h30q0 -90 -60 -90v-15l30 -46v-30q0 -30 -196 -45l-60 30l-121 -15l-15 15v30q75 498 121 498l-15 45l15 15v16l-15 15v15q96 588 120 588l-15 15v15q0 166 166 166zM287 1312v-75h45v15l-30 60h-15zM558 1267v-30h30v30h-30z
M769 1101v-15h30v15h-30zM468 950l30 -135l-61 -151l31 -76h105l-45 317v91h-15zM724 799l30 -30v30h-30zM784 588h31v30zM860 422h15l30 31v15zM347 332v-15h60v15h-60zM528 332l-30 -45v-15q60 22 60 45l-15 15h-15zM920 166h15l30 30h-15zM317 121v-30l30 30h-30z
M965 106v-31h31v31h-31zM875 91l-15 -46h15l30 30v16h-30z" />
    <glyph glyph-name="B" unicode="B" horiz-adv-x="1039" 
d="M159 1433h60l15 -15l15 15h226q155 0 362 -106l-15 -15v-30h30v-15l-15 -15l31 -60l45 15v-15l15 -61l-15 -45h15l30 -30v-76l-15 -75h-30l-15 15h-15v-45q45 0 45 -30q-51 0 -91 -76v-15q136 -142 136 -256l-15 -15l30 -30v-16l-30 -45v-15q45 0 45 -30q-30 0 -30 -60
l-15 -15h-15l-30 30q0 -46 -61 -46v-30l61 -15q-15 -105 -45 -105l-46 45q-45 0 -45 -45h-30l-15 15h-15v-30q-46 0 -46 -61l-105 -15l-30 30v15l60 15l45 -15v15l15 46l-166 -76l-15 15h-45q0 -38 -75 -45l-15 15h-15l-91 -15l-15 15l-30 -30h-106l-30 30v106l15 60l-15 60
l15 16l-15 75v136l15 196l-15 45l15 241v257q0 30 121 45v-30h-30l30 -30l75 30v30q-45 0 -45 60l-91 -60h-30l-30 30v91q15 45 91 45zM626 1267l30 -30l15 15v15h-45zM506 1131q0 -45 -61 -45l-15 -45l15 -15v-15l-30 -31l-30 31l-30 -31q65 0 105 -90q83 0 151 75
q-28 107 -105 166zM355 1071v-30h30zM852 996v-31h16v31h-16zM883 996v-31h30v31h-30zM430 664l15 -76v-15l-30 -120l15 -76h60q106 0 106 106v60l-121 91v45zM204 649v-15l45 -46h60v15q-45 0 -45 46h-60zM128 603v-15q61 0 61 -45h45v15l-45 45h-61zM913 573v-30h15v30
h-15zM355 422v-30h45v30h-45zM913 422v-45l30 30v15h-30zM309 392l31 -30v30h-31zM898 332v-15h15l30 30v15h-15zM822 272h30l16 60q-23 0 -46 -60zM943 256h15v-30h-45zM219 75h60v46q-60 -23 -60 -46z" />
    <glyph glyph-name="C" unicode="C" horiz-adv-x="864" 
d="M455 1425h147q177 -42 177 -88l-15 -132l15 -44h-30l-14 14h-15l-15 -59h-15l-14 15h-15q0 -29 -44 -29l15 -15v-15l-15 -14h-15l-14 44h-59q0 -74 -44 -74l-59 15q0 -29 44 -29v-15l-29 -29q-37 0 -44 58h-44q0 -44 -30 -44l-14 15l-30 -44h15l88 15l29 -30
q0 -161 -73 -161v-15q44 -54 44 -103v-15l-44 -58h15l14 14h15q0 -140 191 -205q83 0 191 117h15l14 -59l-29 -88l15 -14v-15l-30 -44l30 -44q-15 -74 -59 -74v-14q0 -30 44 -30v-44h-88v30l-74 -30l15 -73l-15 -15h-14l-15 15l15 14v30l-74 14h-15v-44h-14q-89 74 -132 74
q0 -34 -74 -44q-155 151 -191 235v15l15 14v15q-103 0 -103 352q0 460 279 676q101 59 176 59zM544 1175v-44h29v44h-29zM617 1175v-29l29 29h-29zM749 1116l30 -29v-103h-15q-103 51 -103 74v29l74 -15h14v44zM309 926v-30l58 -29v59h-58zM309 705v-29h29zM544 44l14 -15
v-14l-14 -15h-15l-15 15v14l15 15h15z" />
    <glyph glyph-name="D" unicode="D" horiz-adv-x="1111" 
d="M99 1433h447q246 0 246 -139h-15q25 -87 123 -215l77 15q46 0 62 -123l-62 -31l31 -31l46 16v-16l-15 -62l46 -46l-62 -61l-46 15q62 -77 93 -77v-15l-47 -47l-15 16l15 15v31h-15l-46 -15l-16 15l-15 -15v-16l31 -31l-47 -154l16 -46l-46 -92l-16 15h-46l15 -15v-31
q-77 0 -77 -31l47 -46l-16 -16v-15l31 -31v-15q-46 0 -46 -31l15 -16l-138 -77l-16 77h-31q0 -92 -31 -92l-15 15l-15 -15l-16 62h-15l-16 -16h-15l-46 46l-16 -15l-15 15q-46 -39 -46 -77h-31q0 47 -31 47q-48 0 -108 -62l-15 15h-16l-61 -15l-31 31v1371zM345 1217
l-15 -15v-16h46zM885 1217l30 -31l-15 -15h-15l-31 31l15 15h16zM392 1156v-16h30v16h-30zM438 909l15 -92l-15 -16v-15l15 -62v-46l-92 31l-16 -77l31 -31l-15 -15h15l-15 -16v-108h46q0 77 31 77l15 -15v-16l-15 -61l15 -16v-15l-15 -46h15q231 30 231 323v31l-30 185
l30 31v15l-92 62q0 52 -77 77q-70 0 -77 -185zM361 1063v-15l31 -31h15v31zM915 1032l-92 -77l15 -92l108 62v15l-77 -15q0 23 62 46l15 15v16l16 -16h46v31zM315 955v-15h30v15h-30zM376 955l31 -30v30h-31zM315 832h30v31zM376 832v-62l31 31zM176 647l-31 -61l46 -31
q0 46 31 46v-46h15l31 31zM438 663l15 -16v-46l-31 -31h-15v62zM1023 539h31v-15h-31v15zM977 478h16v-31h-16v31zM376 416v-46h16l30 31v15h-46zM977 370h16v-46l-78 -77h-46l-31 30q66 0 139 93zM114 293v-46h46v15l-30 31h-16zM607 277v-15h31v15h-31zM623 247l31 -31
l30 31h-61zM869 200h31v-31h-31v31zM669 139v-16l31 -31h15v47h-46zM530 77h31v31z" />
    <glyph glyph-name="E" unicode="E" horiz-adv-x="781" 
d="M83 1433h610l46 -46v-30l-30 -46l15 -46l-31 -30l31 -46l-76 -15l76 -92v-15h-31l-45 31h-16q0 -46 -30 -46l-46 46l-15 -16h-15l-46 16q-43 -77 -122 -77l30 -30l46 15v-76q0 -31 153 -46v-15l106 30l16 -15v-107l-31 -121l-76 45l-15 -15v-15l15 -61l-76 15l-31 -30
h-15v45h-15l-61 -15l-46 15l-31 -45h16l15 15h15l15 -15v-16q-30 0 -45 -106q61 0 61 -46l30 -92l92 31h30l46 -46q0 -30 -46 -30v-16l76 -30h16v15h-31v31h15l46 -16l-15 16v30l30 31l31 -31l-15 -15v-15l15 -61q0 -31 -46 -31v-46h31v-45h-16l-15 15h-15q0 -31 -92 -46
v-15q61 -8 61 -46l-15 -15l-15 15h-46l-15 -15h-15l-16 15v15l46 16l-30 30l-61 -46h-16l-61 46l-30 -30l-31 30l-15 -15l-15 15h-15l-46 -30l-46 15l-30 -31h-16v31h-15v-31l15 -15h-61l-30 31v1357zM663 1311v-30h15v30h-15zM556 1250v-30h15v30h-15zM373 1143l-15 -61
v-15h15l31 61l-16 15h-15zM99 1052v-15l45 -46v30l-30 31h-15zM175 1006v-30h30l16 61h-16zM144 960l31 -30h15v30h-46zM343 945v-30h15v30h-15zM373 945v-30h15v30h-15zM129 899v-15l76 -30v45h-76zM99 869v-31l30 31h-30zM678 610l31 -31v-30h-61v30zM480 564h30v-15h-30
v15zM327 381l61 -46v77h-30zM129 290l31 -31h61v31h-92zM343 290v-16h30v16h-30zM419 290v-16h30v16h-30z" />
    <glyph glyph-name="F" unicode="F" horiz-adv-x="789" 
d="M92 1441h628l31 -31l-15 -153l15 -77l-61 -46q61 -7 61 -46v-15l-31 -31h-15l-46 46l-123 -15l-46 15v-30h-30l-62 46l-92 -92l62 -31v-46h-31v-15l31 -31l15 46l92 -31h215q34 0 61 -107l-31 -61l16 -77v-30l-31 -46l31 -31l-31 -31h-31q-25 0 -61 108h-15l-77 -16v-30
l31 -46l-16 -16h-15q-31 0 -31 62h-30l15 76h-46l-46 -46l15 -61q-46 -15 -46 -92q77 0 77 -138l-15 -15h-16l16 -16v-15l-31 -31h-46l31 31l-16 15v31h46v15l-30 46l15 16v15q-46 0 -46 46l-31 -31l31 -30l-61 -108v-15q0 -31 61 -31v-15l-31 -31q0 -46 77 -46v-30
q-61 0 -77 -77h16l107 46v-46l-46 -46l-46 31l-31 -31l-46 31l-15 -16l-15 16v15l15 15l-15 16h-16l-107 -77h-15l-31 31v1379zM352 1349q0 -61 -61 -61v-31q46 0 77 -77l46 16l15 -16l61 92q-61 0 -61 31l15 46l-15 -15h-46l-15 15h-16zM92 1288l30 -31h31v31h-61z
M567 1272v-30h31v30h-31zM644 1272l-16 -46h16l30 31v15h-30zM368 1012h46l-31 -31h-15v31zM659 598h31l15 92q-46 -15 -46 -92zM138 613v-30h46l-31 30h-15zM306 583l16 -16h46v46h-31zM567 567h15v-30h-15v30zM414 230l15 -15v-16h-46z" />
    <glyph glyph-name="G" unicode="G" horiz-adv-x="1039" 
d="M648 -64q-77 0 -77 30l16 16h15l15 -16h16l15 78h-15l-46 -31l-16 46q-51 -15 -62 -62l16 -46l-16 15h-15l-16 -15q0 62 -92 62l-31 31l-15 -16h-31l-16 16l-15 -16h-31l15 16v15l-30 31h-16l-15 -16h-16l-15 16v15l15 47h-15l-93 92l16 16v31q-82 0 -93 416
q0 185 77 185v31h-31v31h47l-16 16v77q10 92 46 92l16 -15h15q78 262 232 262q0 28 185 31h46q31 0 31 62h31q0 -77 93 -77q123 -45 123 -77v-62l-31 -31l-46 31h-46l-16 -62l31 -31l16 16h15l15 -16l16 16l15 -16l-15 -15v-16l31 -46l-16 -15v-16l16 -92l-16 -16h-15
l-16 16v15l16 16l-16 46l16 46h-16l-15 -15h-15l-47 15v-31h31v-46l-92 62l15 15h-31v-11l-46 11l-77 -15l-31 31h-16v-47q47 0 47 -31q-47 0 -47 -46l-15 -15h-16l-46 31v-62h-15l-47 31h-92l77 -62l31 -31v-31h-16l-92 62v-46q77 -105 77 -170l46 -16l-31 -46l16 -15v-16
l-31 -31l-15 16q0 -31 -47 -31v-31l16 15h46l31 -30l-16 -16h-15l-15 16l-16 -16v-15l16 -16h15l15 16l16 -16v-15l-16 -46h16l139 -62h31q92 77 92 216h-77v-62h-15l-31 31l15 15l-46 47v77l15 185h31l108 -15l31 15h293l31 -31v-15l-15 -62l15 -46l-31 -62l31 -31
q-40 -92 -77 -92v-16h16l46 16v-16q0 -79 -93 -185l31 -31v-15h-15l-47 15l-15 -15v-16q62 0 62 -31v-61h-16q-31 0 -31 61l-46 16l-31 -47l16 -15h-16l16 -15l-16 -78v-46h-31l-15 16l-62 -31l16 -16l-13 -61h-34zM478 1232v-31l139 -62l16 78l-16 77zM293 1278v-15h31v15
h-31zM417 1078v-16l31 -31h15zM139 923v-31h46l-31 31h-15zM123 862l31 -31v31h-31zM309 692v-31h31v31h-31zM154 599h-31q0 47 -30 47h-16v-31q46 0 46 -31v-31l-77 15v-31l108 -15l16 15h15l47 -15l15 15v16h-93v46h31v62q-31 0 -31 -62zM571 615v-16l31 -31h31v31z
M818 599l-31 -62l46 -46h31l16 46q-11 47 -62 62zM77 476v-31h31v62zM154 476v-31h31v31h-31zM123 291v-31h31v31h-31zM525 167v-15h31v15h-31zM432 74v-46h46v16l-30 30h-16z" />
    <glyph glyph-name="H" unicode="H" 
d="M157 1432q277 -10 277 -93l-46 -15v-31l77 -77l-61 -16v-15q0 -31 46 -31l15 -15v-31h-61l30 -47l-15 -46l15 16h16l15 -16v-15l-61 -62l15 -16h15l16 16q23 -62 46 -62l31 31h108q8 62 46 62l-46 77v62l46 77l-30 31l108 61v16l-16 15h-15l-31 -31q-62 26 -62 109l31 30
h201l46 -46l-16 -62l16 -15v-16l-16 -46l93 -15v-31h-46l-16 15h-15v-31q15 -61 77 -61l16 15l15 -15v-16l-77 -15v-16h31v-30l-16 15h-62q47 -93 93 -93v-15q-93 0 -93 -77h16l46 -31l47 15l-16 -15v-16l16 -15v-15l-31 -31l15 -77l-15 -47l-78 16v-16l16 -15v-16l-16 -46
l78 -93l-31 -30q62 0 62 -78l-16 -15h-15l-47 15l-31 -46v-31q58 -5 93 -62v-30l-15 -16l31 -77h-16l-77 15v-15q0 -31 62 -31l15 -15v-31l-31 -31l-46 62h-16q0 -47 -30 -47h-16l-139 16l-61 -16l-16 16v62l16 92l-16 46l16 16v15l-16 47l31 31q-31 24 -31 169l-15 16h-170
l-16 -108l31 -31l-46 -46l15 -47h-30l-47 31l16 -77l-16 -62h16l46 16l15 -16v-62q-77 0 -77 -61l16 -16h31q0 47 30 47l31 -47l-31 -31h-15q-52 0 -108 47h-31l16 -16v-15l-16 -16h-15l-62 16l-93 -31l-15 15v1390q0 38 62 46zM959 1386h31l-31 -31v31zM249 1293l31 -31
l16 15v16h-47zM944 1293h31v-31h-31v31zM743 1231v-31h31zM203 1000l-16 -78l16 -61l77 61q-10 62 -77 78zM882 845v-46l31 31l-16 15h-15zM928 799l31 -31v31h-31zM897 737v-31h31zM944 676h31v30zM434 614v-47h31l47 31h30l47 -31h31v31l-93 31h-15zM388 382h31v31z
M218 305q0 -31 -61 -31v-31q46 0 46 -61q108 52 108 77q-46 0 -46 46h-47zM666 259v-31h31v31h-31zM913 197v-46h46v46h-46z" />
    <glyph glyph-name="I" unicode="I" horiz-adv-x="463" 
d="M77 1433h308l31 -31v-138h-31l15 15v15h-77v-30l16 -16v-15l-31 -31v-46l123 -31v-46h-61v-16l30 -46v-31q-61 0 -61 -92l61 46l16 -15v-16l-31 -31l-15 16v-47h15l15 16h16v-16q0 -30 -77 -30v-31l46 -16l46 16v-46q-61 0 -61 -31v-16h30v-15l-15 -15v-16l15 -15v-16
l-15 -46l31 -31v-15h-77l92 -108l-31 -62l16 -15q-62 -15 -62 -77h62v-31l-16 -15l16 -16v-15q0 -31 -46 -31v-15l30 -47v-15l-15 -15v-16l31 -31v-15h-16l-107 46v-46h-31l-139 15l-62 -15l-15 15v16l15 92l-15 16v15q0 93 46 93v30q-46 0 -46 31v570l46 47l62 -47h46
l15 47l-15 46h-15l-108 -31l-31 169l15 93l-15 154v46zM354 1402l-31 -46h31l31 31l-15 15h-16zM154 324v-47h31l-31 -30l-16 15v-62l77 62v15q-30 0 -30 47h-31zM354 247l-15 -16v-15l15 -16h16l15 16v15l-15 16h-16zM246 62v-31h16v31h-16z" />
    <glyph glyph-name="J" unicode="J" horiz-adv-x="657" 
d="M274 1448h122q77 -4 77 -30l15 15h106l31 -31l-31 -45v-31l16 -15v-15q-77 -20 -77 -46v-31h31l46 31l15 -15v-46l-15 -61l15 -46l-46 -15v-31l31 -45q0 -60 -77 -122v-15l46 -61v-31h-15l-46 15l31 -91v-15l-31 -46q61 -15 61 -92q-30 0 -46 -91h31l15 15h15l16 -15
q0 -46 -61 -46l15 -76h-46q0 -30 46 -30l15 -16v-30h-30l15 -46l-15 -76h-31v46h-30v-46h30q-23 -61 -45 -61h-31l15 107l-45 -31h-31l-15 15h-15l-16 -15v-15q77 -20 77 -46h-77l-15 15h-15l-31 -91h-76l-30 30l15 16q-168 69 -168 91v15l15 77q-30 0 -30 45l15 16l-15 76
v76h30q82 -61 138 -61q61 15 61 92v274l15 320l-15 15l15 76v260zM503 1311h30v30zM305 975l30 -30h31v76h-15zM503 975l15 -15h46v46h-31zM503 259v-15h30v15h-30zM366 229l30 -31v31h-30z" />
    <glyph glyph-name="K" unicode="K" horiz-adv-x="1031" 
d="M653 1441h45l166 -30l15 15h15l15 -15q0 -75 -90 -75l15 -75l-60 -15q0 -30 45 -30v-15l-30 -45q0 -30 45 -30l-15 -45l30 -75l-15 -15h-15l-15 15l15 15v30l-61 -60v-30l31 -45q-23 -60 -46 -60l-15 15h-15l-45 -15v-15q106 0 106 -45l-46 -45h-15v30h30v30l-60 -30v-30
q54 0 166 -346q0 -30 -60 -30l15 -75l15 15h60l45 -45l-135 -30v-45l75 15h15l15 -75l-15 -15q122 -10 135 -60l-45 -30q-15 54 -105 75q-15 -90 -75 -90v-15q-241 0 -241 225l-15 45l15 15q-49 0 -105 345h-15l-45 -30h-15v30h-45v-30q0 -30 90 -30v-15l-15 -75h-15
q0 60 -30 60h-30v-30l15 -60q-15 -78 -60 -120l15 -60l-15 -45q28 0 75 -90l-15 -15v-15h15l45 45l-30 30l30 30l15 -15v-135l-30 -30h-30l15 15v45h-30v-60h-45l-60 -15l-90 45q0 -45 -30 -45h-15q-30 0 -45 165h15l-15 15l15 75v931l30 30l45 -30h30l15 45l-15 45h-45v-30
h-60v135l30 30h180l45 -45l-15 -15v-15l30 -75h-15q-45 0 -45 -30v-15l45 -60l-30 -45v-15h15l15 15h15l60 -15v-15l-30 -30l-30 30h-15l15 -15v-15q-7 -60 -45 -60v-30h30v-60h-30v-30q45 0 45 -30l-15 -15l45 -30h15l15 45h-45l15 75l-15 15l15 15h15l-15 75v15h30l30 -30
l-15 -75h45q141 495 195 495zM939 1426l30 -30h-30v30zM608 1231l30 -30h30v30l-30 30zM894 1246h30v-75h-30v75zM368 1231h30v-30h-30v30zM323 1006h15v-30h-15v30zM173 585v-15h30v15h-30zM804 435v-45h15v45h-15zM383 435h30v-30h-30v30zM353 360q45 -9 45 -120v-15h-30
l-45 75q30 0 30 60zM743 300v-30h46l-31 30h-15z" />
    <glyph glyph-name="L" unicode="L" horiz-adv-x="811" 
d="M115 1433q259 -10 259 -30q0 -31 46 -31v-30h-31v-16l61 -122l-15 -15h-15q-31 35 -31 107l-61 -76q25 0 61 -107h15l16 15l15 -15l-46 -107l-15 15h-31q0 -41 -45 -91q49 0 76 -122h30v15l-15 15v16h31v-31l15 -15l-15 -15h-31l15 -16v-15h-76v-30l61 -15l-15 -16v-30
h30v46h16l15 -16h15q-11 -91 -30 -91l30 -153l-15 -15l-15 15h-16l-91 -30v-31l107 31q0 -28 137 -46l61 15h30l16 -15l15 15h61l15 -15h15l-30 -198l15 -15v-16q0 -123 -122 -152q0 30 -46 30q-30 61 -91 61v-30h-76l-46 -31l-15 16h-16v-31h-30q0 50 -31 76v16h-30
q-59 -66 -153 -107l-30 91v153l15 15l-15 15v641l15 15l-15 15v153l30 45l-30 31v15l30 31l46 -46h15q5 76 46 76l-15 61h-76q0 -46 -31 -46l-15 16v106zM191 1159v-31h15v31h-15zM328 1143v-30h31zM450 1037v-31l-46 -46h-15v46l15 -15h16q0 46 30 46zM404 762h31v-30z
M115 610v-31h30q0 -45 31 -45l30 61v30h-15zM359 625v-15l30 -31v46h-30zM343 534q0 -31 -45 -31l-16 -15v-15l16 -16h15l46 46h15v31h-31zM633 351v-46l31 30l-16 16h-15zM618 229l30 -31h16l-31 31h-15zM557 213v-30h15v30h-15zM328 152v-45l76 15v30h-76zM587 122v-15
l31 -31v15z" />
    <glyph glyph-name="M" unicode="M" horiz-adv-x="1361" 
d="M80 1451h123l217 -15l46 15q108 -15 108 -46v-15q-46 0 -46 -31q67 0 92 -201h-46v31h-31q0 -93 62 -93v-15l-62 -62l15 -15l-15 -78v-46h15l16 15h15l-15 16v46l15 16v15q29 0 78 -93v-15l-47 -62h16l15 16h16l15 -47h15q51 402 93 464l-15 15v15q19 155 61 155h108
q356 0 356 -46q-62 0 -62 -93q-62 -8 -62 -46l46 -47v-15l-46 31l-15 -16v-15q138 -76 139 -108l-16 -16h-31l-46 31l-16 -92q56 -78 93 -78v-15l-15 -16v-15q31 0 46 -93l-15 -15h-16l-46 123h-31v-15l15 -77q-56 -77 -92 -77v-31l77 -16v62h15l31 -31v-31l-46 -46l46 -77
l-15 -47h31v31h31v-15l-31 -62l15 -46h-15l-16 15h-15l-47 -15v-16q0 -123 62 -123l-15 -77l15 -16q-67 0 -92 -77h-47l16 -15v-31l-31 -31l-46 31q0 -62 -31 -62h-47l-46 31l15 463v201q-30 0 -30 -124q-26 0 -47 -123l-77 -31v-16q0 -30 62 -30v-31q0 -119 -62 -139
l16 -16v-15l-31 -46l31 -47l-16 -15v-16l16 -15l-16 -16h-15l-78 47l-30 -31q-31 0 -31 46l-31 -31l15 -15l-15 -16h-47q-41 0 -61 217l46 46q-77 0 -77 278q-20 0 -31 92q-62 0 -62 47l16 46q-31 0 -31 46h-16q0 -61 -31 -61l109 -155q0 -31 -47 -31v-15q47 -57 47 -108
h-16l16 -16v-15l-62 -62l-47 16l-30 -47l30 -46l-15 -77l77 -62v-15h-15l-47 15l-77 -93l-46 31h-31l-62 -46h-15l-31 31v509l15 62l-15 62v463q0 25 139 108l-15 77l15 16l-15 15l-16 -15h-31l-77 92zM1083 1359v-16h31v16h-31zM1099 1281h31v31zM358 1251v-31h15l31 31
h-46zM1006 1204v-15h31v15h-31zM327 1096v-31h31v31h-31zM311 1019l-46 -139l77 -31h16l31 62v31h-31v31h31v15l-31 31h-47zM1037 988v-31h-15l15 -46l16 15h92v31q-72 0 -108 31zM1269 988h31v-15h-31v15zM806 957v-31h30l31 31h-61zM883 818l61 -15v15l-30 31zM342 834
v-31h16v31h-16zM373 834v-31h16v31h-16zM281 803v-31h15v31h-15zM883 741l31 -31h30v31h-61zM404 726l31 -31v31h-31zM296 664v-16h31v16h-31zM1053 664v-16h30v16h-30zM1269 648h31v-30h-31v30zM327 571l15 -15h16v46zM157 571v-31h31v31h-31zM1053 571v-31h15v31h-15z
M1161 509v-30h77l-31 77zM342 479l-15 -108h46l16 46l-16 62h-31zM1068 340v-16l15 -15v-16l-15 -15l-15 15h-31l15 -108l46 31l47 -15v15l46 46h15v-30h16v30l-108 31v16q46 0 46 77zM1284 371h16v-31l-31 -31l-31 31zM775 340l-16 -62l47 -31v15l-16 62l16 16h-31z
M342 293h31v-31h-31v31zM543 216v-31h31zM1269 139h15v-31h-15v31zM358 62h15v-47h-46v16zM1222 46l31 -31l-15 -15h-31l-31 31l15 15h31z" />
    <glyph glyph-name="N" unicode="N" 
d="M106 1433h228q31 0 31 -61l46 31h15l15 -61l-46 -31l-45 31l-16 -92l92 -46q0 46 46 46v15q-46 0 -46 31q0 35 76 46l31 -168h-46v-46q47 0 107 -91l-16 -16l-15 16h-30l-16 -107v-31l77 -30l15 15v-30h-46v-16l15 -15v-15q98 0 107 91l-15 16l30 30v15l-45 77l15 15v15
l-15 15v16q0 137 76 137v30q-61 0 -61 31l15 61l-15 61l15 15h183q0 -61 46 -61q15 -76 61 -76v-46h-46q-38 0 -46 61h-61l-15 -61l15 -46h46l46 31l15 -15l-15 -46l45 -76l-30 -31l46 -76l-31 -31l31 -30v-15q-35 0 -61 -61v-16q76 0 76 -30l-15 -15h-16l-61 15v-30l77 -16
v-15l-46 -91l30 -31l-15 -15q10 -92 61 -92v-30h-76v-31q46 0 46 -30q-81 -73 -107 -137v-16q0 -30 76 -30l15 -15v-31l-30 -46l30 -30q-31 -7 -61 -76l-15 15h-30q0 -61 -31 -61l-45 15l-46 -15l-15 76l-46 -30l-92 76v46l31 45q-49 0 -137 305l-16 138q-112 -12 -152 -46
l-61 30l15 16v61h-15q-31 0 -31 -46h-30q0 46 -31 46h-15v-31l31 -46l-16 -15l-15 15h-15l-31 -30v-15h77v-16l-31 -45v-31h15q31 0 31 46h30q0 -61 31 -61h15v30l-30 46l15 15h15l15 -15l16 15h30l15 -106l-45 -107l45 -46v-15l-30 -92l30 -30l-122 -122l-45 46l-31 -31
l15 -15v-15l-15 -16h-46l-30 31v152l46 46h15v-15l-31 -46l46 -30l137 106q-61 0 -61 46l31 46v15l-46 15q0 -45 -30 -45l-46 45l-15 -15v-15l15 -61h-15l-46 46v198l15 61l-15 61v213l46 46l15 -15v-16l-31 -30l46 -15q0 45 31 45q30 0 30 -45h61v30q-46 0 -46 31v15h31
l15 -15h15v45h16l30 -30v-15h-30v-16l76 -30l15 15v15l-30 77l30 30l-61 31l-91 -77h-31v16l31 76h-46v-31h-31v31h-45l15 -76h-31l-30 30v198l30 31q0 -76 31 -76l46 45h15q0 -45 30 -45h16l45 122l-61 15l16 76l-16 15h-15l-30 -30l-46 30h-15v-76h-16l-30 31v45z
M959 1372h16v-30h-16v30zM151 1281h16v-31h-16v31zM975 1113h45l-30 -31l-15 16v15zM258 1052h46v30h-15zM853 960l15 -15h15v46zM578 960l31 -30l-31 -31h-15zM822 945l31 -30v30h-31zM334 823l31 -30h15v61h-15zM289 808v-30h15v30h-15zM609 762l30 -30h16l-16 61z
M304 762v-76q91 15 91 46l-30 30h-61zM624 701q-21 -91 -76 -91v-15q76 0 76 -46l-15 -46l15 -15h15l16 46h30v-31h31v15l-16 46l61 31v15q-61 0 -61 61zM639 625h31v-30h-31v30zM350 595h30l31 -31v-15l-16 -15l16 -16v-30h-31l-30 61v46zM350 396h30v-30h-30v30zM563 351
l15 -16l46 16l-30 30zM685 305v-46l31 31l-16 15h-15zM944 320h15l-30 -30h-15zM197 198v-30h15v30h-15zM365 76l46 -46h-16l-30 31v15zM914 30h30v-30h-30v30z" />
    <glyph glyph-name="O" unicode="O" horiz-adv-x="1187" 
d="M569 1433h77l76 -61h15l46 31l76 -77v-30l-15 -61l137 -168h15q0 46 31 46l15 -15l-15 -16v-15l15 -46h-46v-30h61v-31q-61 -7 -61 -45l46 -77l-15 -15v-15l15 -15h15l-15 -15v-31h46q0 46 30 46l15 -15v-16q-9 -45 -106 -45q0 -31 45 -31l16 -15v-15h-77l61 -92l61 46
h16v-15q0 -40 -107 -61l-15 15l-16 -15v-16l31 -30l-15 -15l-16 15h-30v-31l46 -15l-16 -15v-31h16l61 46l15 -15v-15q0 -27 -137 -77l-16 16q-49 -77 -121 -77v-30l76 -31v-30l-16 15h-30v-30l-15 -16l15 -15h15q0 -39 -137 -61v-15h31v-31h-16q-41 0 -45 77
q-61 -23 -61 -46l15 -46l-15 -15h-16q0 28 -106 91v-61h-31l-15 16h-15l-16 -16v31h-15l-46 -31q-186 105 -213 168l15 15q-91 140 -91 183q-31 55 -46 290q15 290 76 290l-15 15v15q0 134 152 229l-15 15v15q95 168 320 168zM707 1296v-15h15l30 30v15h-15zM768 1326v-15
h30v15h-30zM630 1311l16 -15v-46h-46v-30q46 0 46 -31l-16 -15v-15l16 -16h15q0 46 30 46l31 -30v45q-61 0 -61 31l15 15v15l-15 46h-31zM417 1235v-31h30l31 31l-31 30zM707 1235v-15h30v15h-30zM478 930h-31v76l-15 -15h-15l-15 15h-16v-107l16 -61l-16 -45h16l-16 -15
v-31h61v-30h-61v-16l16 -15v-15l-16 -15l-15 15h-30l30 -46l-46 -46v-15l46 31l15 -46l16 15h15l61 -61v-76l-15 -15v-16l183 -30q85 137 137 137l-15 15v61h45v16q-61 0 -61 30l31 46l-46 46v91l-15 91l15 46q-66 81 -152 92q-57 0 -107 -107zM859 945v-30l61 -16l15 46
h-76zM463 915v-46l-31 30l15 16h16zM310 762v-76h15l31 31v45h-46zM203 656l-30 -61l30 -31h92v31l-31 30l-15 -15h-15l-15 46h-16zM417 442h30v31zM615 335v-30h15v30h-15zM676 335v-30l31 30h-31zM966 305h61l-16 -76h-30zM402 274l15 -45h15l31 30v15h-61zM569 274v-15
h61v15h-61zM661 229l91 15v30h-45zM249 213v-15h31v15h-31zM615 213v-45l31 30l-16 15h-15zM691 198v-30h16v30h-16zM737 152h31v31zM859 46h30v-16h-30v16z" />
    <glyph glyph-name="P" unicode="P" horiz-adv-x="1031" 
d="M960 1219q0 -130 46 -183l-31 -46l31 -91l-31 -31l15 -15q-10 -122 -30 -122l15 -76l-46 15l-15 -15h-15l-61 46h76l-15 15v15l15 16v15q-152 -23 -152 -76l30 -31l-30 -30q-31 0 -31 45h-76q0 -30 -61 -76l46 -76v-15h-15l-61 45h-15q-31 0 -31 -60l-107 30v-15
q0 -41 -45 -92v-15q61 0 61 -30l-16 -16l-15 16h-30l-31 -61l31 -61l-31 -122l15 15h16l15 -15v-31h-46l-30 31l-76 -15h-46v-61q91 0 91 -31l-15 -15h-46l-45 30h-16l-45 -30l-46 46v487l15 92l-15 15v15l15 594v153l31 30h365q140 0 198 -61l46 15q46 -64 46 -121h-15
l-31 30l15 15v15q-71 0 -106 31h-16l16 -76l-61 -15v-31l76 -15l-15 -15v-31l15 15h30l16 -15h15q0 46 30 46h16l15 -15h15v15l-15 15v15l15 46h15q26 0 46 -91l-15 -46h61v30l-16 77h31v-31h30zM137 1341l31 -31v-15l-61 -15v-31q45 0 45 -30l-15 -46h31q0 46 30 46l61 -61
v15l-15 76l15 -15h31l30 31q-91 20 -91 45l45 46l-15 15h-15l-46 -30l-30 30zM396 1325l-15 -15l15 -15v-15l-15 -15v-16q30 0 30 -45l46 -16v107zM350 1173v-30h31zM427 1158v-31q45 0 45 -61h-15l-15 -60h-15q-31 0 -31 45h-30l15 -15v-15l-46 -122v-15h15q46 0 46 45
l15 16h31v-122h107l76 45l-16 46l16 92v15q-46 0 -46 61zM899 1143l-31 -92v-15h46l15 76v31h-30zM823 1127v-30h15v30h-15zM350 1082h46v30h-15zM168 1021q0 -46 -61 -92h45l16 16q45 0 45 -46l16 -15h15q0 45 46 45v31h-61l15 15v46q-31 0 -31 -46l-15 -15h-30l30 46
l-15 15h-15zM838 914q46 0 46 -61h15l30 31l-15 106h-15zM152 914v-61h16l30 61h-46zM396 884v-31h15v31h-15zM259 701v-31h-15l-76 16l45 -61l-76 -16q0 -30 76 -30l16 -15v-31l-16 15h-15l-30 -30l30 -30l31 30l61 -15l-16 76h16l15 -15h15l15 15v30q-91 0 -91 31l46 15
v46h-31zM442 609v-45h30v45h-30zM701 625l30 -31l-15 -15h-15v46zM762 564h15v-31h-15v31zM152 381l-15 -15l15 -16v-30q0 -31 -45 -31v-30h45v-46l-15 -15v-15h15l46 30q31 0 31 -45l91 -31v76l-15 -15h-31l-45 46l61 15v30q-77 0 -77 31q61 0 61 46h-45q0 -46 -31 -46
q-23 61 -46 61z" />
    <glyph glyph-name="Q" unicode="Q" horiz-adv-x="1179" 
d="M549 1433h64q174 0 321 -128h-16l-16 16h-16l-16 -16l16 -16v-97q48 0 48 -32l96 32l16 -16v-16q0 -32 -48 -32l64 -176l-32 -97q45 0 64 -128h48v-32q-96 -10 -96 -48l32 -32v-49l-48 -80h64v-32q-48 0 -48 -32l32 -32l-16 -64l32 -65l-16 -16h-32v49l-96 -65l-48 16
l-16 -16v-16l32 -32l-16 -16v-16l-16 16h-33l-16 -80q32 0 65 -96h16l128 80l32 -96q-32 0 -32 -49h-32v33l16 16v16l-128 -32l16 -17v-16l-16 -64h16l48 16l-113 -96h-48q-64 32 -64 96q64 24 64 48q-72 0 -160 81l-64 -48l-16 64h-32q0 -40 -65 -48q0 42 -112 64l-32 -32
h-16q0 96 -64 96q-97 0 -97 32t48 32v32q-160 0 -160 434v32q0 208 64 208l-16 16v16q0 264 161 289q0 32 48 32l-32 49v16q128 144 289 144zM645 1305l16 -49h32l-16 49h-32zM725 1289v-16h32v16h-32zM982 1289l32 -65l-16 -16h-16l-32 32v16zM420 1256l-16 -16v-16l32 -32
h16l48 48l-16 16l-16 -16h-16l-16 16h-16zM613 1224v-16h32v16h-32zM468 1032l16 -16l16 16h16l33 -32l-49 -32l-48 32v-32h-32v64h-32q0 -54 -48 -113l32 -48l-48 -160v-32l16 -16v-16h-32v-16h16l64 16l-16 16v48h16l48 -48q0 -32 -48 -32v-33q58 0 80 -224l129 -64
l176 160l-32 32q0 32 64 32v16h-48l16 81l-16 16h-16l16 64q-37 321 -112 321l-48 -16l-16 80h-65q-24 0 -48 -64zM597 1080v-16h32v16h-32zM228 984v-16h32v16h-32zM1126 1000l16 -16v-16l-16 -16h-16l-16 16v16l16 16h16zM452 919h16l-16 -80l16 -16l-64 -32l-16 16
q38 112 64 112zM886 903l32 -32l16 16v16h-48zM1126 919l32 -32v-128h-32v80l-32 48zM1158 679l16 -16v-32l-32 -33l-16 17v32zM115 550q48 0 48 -64h49l-17 16v32h65v81h-81zM950 566v-32h16v32h-16zM372 518v-32h32v32h-32zM1094 518h32v-16h-32v16zM998 358v-16h32v16
h-32zM356 213v-16h32v16h-32zM693 181h32v32zM998 181l16 -16v-48l-32 -32h-80v32l16 -16h16q0 47 64 80zM661 149v-32h32zM741 5v-32h16v32h-16z" />
    <glyph glyph-name="R" unicode="R" horiz-adv-x="1054" 
d="M75 1433h412q335 -38 335 -137q61 0 61 -92q77 0 77 -167q-46 0 -46 -46v-15h15q0 45 31 45l30 -30v-15l-15 -16l15 -15v-15q0 -35 -76 -46v-15q61 -8 61 -46l-15 -15h-16l-45 30l-16 -15v-30q61 0 61 -31l-106 -198l15 -122q-61 -8 -61 -46v-15l76 15h15l-45 -61v-15h15
l15 15h15l16 -15v-15q-70 -30 -77 -61h16l76 15l30 -107l-15 -15l46 -46v-30l-61 -15l15 -16v-30h-46v61l-76 -46l-45 15l-31 -30h-76l-15 15l-16 -15h-15q-36 0 -76 244l107 46h30v-31h46l30 31q-76 0 -76 30v15h-61q0 -61 -30 -61h-46q-26 0 -76 214h-16q-23 -61 -45 -61
h-16q-30 0 -30 46h-31l16 -16v-15l-16 -15v-15l31 -31v-15l-31 -31h-15l15 -61h92v-15q0 -30 -76 -30l76 -77v-30h-31q0 30 -45 30l-46 46q0 -61 -46 -107l15 -61l-122 31l-61 -61l-30 30v1373zM441 1067q0 -78 -45 -122l45 -107q96 0 153 107l61 15l-137 107h-77zM335 1021
v-15h61v15h-61zM91 930q45 0 45 -46h46l61 46l-15 46l-15 -16h-16l-30 31zM868 945l15 -15v-15l46 15v15h-61zM822 762l31 -30l15 15v15h-46zM838 671v-15h30v15h-30zM746 351v-16h31v16h-31zM136 335q0 -45 -45 -45v-16l30 -91q118 87 122 122l-15 15h-15v-30h-46v30h30v15
h-61zM365 351l15 -16v-15l-15 -15h-15l-15 15v15l15 16h15zM609 244v-31h15l31 31h-46zM853 183q23 -61 46 -61l15 15l-15 46h-46zM899 91v-15h30v15h-30zM960 46h15v-31h-15v31z" />
    <glyph glyph-name="S" unicode="S" horiz-adv-x="872" 
d="M524 1433q246 -52 246 -123l-46 -31l-46 15l-46 -77l46 -31l46 31h16v-61l-124 -31l-15 15l-31 -31l-46 31l-77 -123l-31 62h-46l-31 -93q0 -31 77 -31l15 -15v-31l-15 -15v-16q168 0 324 -169v-62q0 -31 -47 -31q53 -108 77 -108l16 16h15v-16l-15 -61l31 -31
q-21 -51 -124 -92l-15 15h-15l-16 -15h-15l15 -16v-31l-31 -46l31 -46l-15 -16h-16l-15 16l-15 -46q-31 0 -31 77h-16l-77 -62l-61 15l15 -15v-31h-31v-15l16 -16v-15l-108 -46l-31 46l-200 -77v15l15 47l-31 30v47l16 92q-31 69 -31 200l15 16h16l169 -108h77
q108 0 108 108v15l-154 108v31h-15l-78 -15q-169 164 -169 292l31 31l-31 46v62q89 416 416 416h108zM401 1294l-47 -61l16 -16h61v47zM154 1279v-15l15 -16v-15h-46l46 -47h47l15 47zM462 1264v-62l31 31zM385 1186l16 -46l15 16h15l16 -16h15v46l-77 16v-16zM647 1109v-15
l-31 -31h-15v31zM693 1109h16v-30h-16v30zM755 1063l15 -15v-62l-30 -31l-16 16v31l16 15v15l-16 16l16 15h15zM462 586v-31h31v31h-31zM724 462v-31h31v31h-31zM324 139v-31h30v31h-30zM416 123h154v-15l-31 -31l-15 15v16l-16 -16h-30l-16 16l-15 -16h-31v31zM693 123
l16 -15v-16l-16 -15h-15l-15 15v16l15 15h15zM92 92l31 -30v30h-31z" />
    <glyph glyph-name="T" unicode="T" horiz-adv-x="902" 
d="M76 1433h739l31 -31l-46 -46l-15 15q0 -92 -62 -92q0 -23 62 -46q0 -47 61 -47h16v-46l-62 -61h-31v30h46v31q-61 0 -61 31l15 15h-15l-46 -46v-15q46 0 46 -31l-46 -15l-16 15h-31v-15h31v-16l-31 -31q-10 41 -77 77h-15v-77h31v-30h-31v-47h15l47 16q-62 -73 -78 -154
h16q46 15 46 92l16 -15h15l-15 -16v-15l15 -77q-46 0 -46 -46l-16 -16h-15q0 -77 62 -77v-61h-31v46h-31l-31 -170q0 -46 46 -46v-31h-31v-108l16 16h15l16 -16v-15l-47 -15q8 -143 47 -185l-16 -16h-15l-31 31h-15q0 -77 -47 -77q-30 0 -30 77h-93v-15l16 -16v-15l-93 -31
l-15 15v216l31 31l-31 123v462l15 93l-31 123l16 16h-31v15l-93 -31h-30q0 31 -47 31l-15 15v108l46 47q6 -42 77 -62l31 77l-15 15l-16 47h-15q-46 0 -46 -47l-16 -15h-15l-31 31v92zM322 1371v-30h16v30h-16zM384 1371q0 -41 -77 -77l-15 16h-16l-15 -16v-30q77 0 77 -31
l-46 -47v-15h46v46h15q31 0 31 -61h31v46l-31 46l15 16l16 -16h15l31 31l-62 15l16 77h-31zM553 1341l-15 -77l15 -16h16l-16 -15v-31h16q5 62 92 62q-15 55 -108 77zM168 1171q0 -46 -61 -46v-16h46q0 31 46 31zM60 1063h47l-31 -31h-16v31zM338 1002v-31q61 0 61 -46h47
v15l-31 62h-77zM292 955l30 -30l16 15v15h-46zM322 878h31v31zM384 909v-31h31zM600 740l31 -31l-16 -16h-15v47zM353 693v-46h31q0 -31 -77 -31v-30q62 0 62 -31l-31 -31v-31h15l46 31l62 -31v46l-15 47h46v30q-46 0 -46 62l-62 -31q0 46 -31 46zM569 524h46v-16l-31 -30
l-15 15v31zM338 339l31 -31v31h-31zM399 339v-31h16v31h-16zM307 293v-31h46v31h-46zM399 293v-31h77v31h-77zM338 247l-31 -62h31l31 31v31h-31zM399 231v-31h16v31h-16zM600 216h46v-16l-31 -31l-15 16v31zM615 46h31v-31h-31v31z" />
    <glyph glyph-name="U" unicode="U" horiz-adv-x="963" 
d="M762 1433q22 0 45 -61h31l-16 -76l16 -46l-61 -15v-31q45 0 45 -30v-46l-30 -46q0 -45 46 -45v-31l-16 15h-30l15 -15v-30l-15 -16l30 -76l-15 -15v-15q0 -122 92 -122l-16 15v15l16 15h15l15 -15v-61h-61l-15 16h-15l-16 -16v-106q46 0 46 -31l-61 -15v-31l61 -15
q23 61 46 61h15v-46q0 -30 -61 -30l-61 -122h-15v-15h46l-61 -153l15 -46l-15 -15h-31v46h-15l-91 -61l30 -31l-15 -15l-15 15h-46l-15 -15h-16l-30 31q0 -61 -31 -61q0 37 -152 91l-15 15h-16q20 -70 61 -76l16 15v-15l-31 -76l-15 15h-15l15 15v16q-46 40 -46 91h-15
l-15 -15h-16l-45 15l-16 -15v-15l31 -31h-15l-46 46l15 15q-55 0 -122 153l15 15v15l-30 214v335l30 46l-30 45v16l30 45l-30 31v198l30 31q31 0 31 -46l15 -15h61l46 61h30v30q-45 0 -45 76l-16 -15h-61v15l31 31h30l16 -15l15 15h30q77 -42 77 -137l-31 -92l31 -30v-61
l-46 -16l46 -76l-31 -76q20 -76 46 -76q0 61 30 61l31 -31v-15l-46 -46h-15l-46 31v-16q31 -35 31 -106q76 0 76 -31l-31 -30l-30 30h-15v-45l30 -31v31h31l15 -138h-15q21 -63 76 -91q91 0 91 91v77q77 0 77 30q-77 0 -77 46v152l31 92l-15 45l15 61l-31 122v16l92 76
l30 -31v16l-15 15v15l61 15v31l-61 15l15 15v61h-15q0 -45 -30 -45h-16l-45 76l15 15h168zM75 1418q46 -15 46 -92l-15 -15h-31l-30 31v45zM365 1342h31v-16h-31v16zM609 1296h46v-15q0 -35 -76 -46v30zM197 1204v-15h31v15h-31zM365 1204h31v-30zM380 1128h31v-15h-31v15z
M838 1098h15v-31h-15v31zM624 1037v-31l31 31h-31zM655 976v-16h30v16h-30zM914 991l15 -15v-16l-15 -15h-31v15zM365 976h31v-31h-31v31zM624 930v-46h31v15zM197 656l16 -16l-107 -15l76 -76q63 21 92 76q-46 0 -46 31l15 45zM701 701v-30h15v30h-15zM533 305v-31h46v31
h-46zM640 290v-16h61v31h-16zM380 290l-15 -16v-15l15 -15h16l15 15v15l-15 16h-16zM853 305h30l-30 -31v31zM228 76h46v-30h-16zM518 46h30v-31h-30v31z" />
    <glyph glyph-name="V" unicode="V" horiz-adv-x="986" 
d="M708 1448q247 -26 247 -77v-31q0 -123 -77 -123v-46l30 -46l-15 -62h15l47 31l15 -16v-31l-92 -61v-62h46v-15l-16 -16v-15l16 -15h-31l-15 15h-16v-15l31 -93h-15l-62 -15v-16h46v-30l-46 -47l31 -92l-16 -15v-16l16 -46h-46v-31l61 -15v-31h-31l16 -15v-31h-16l-46 31
q-61 -70 -61 -108h30v-31l-77 -77v-16l77 16v-31l-15 -15v-16h15l16 16h15l16 -16v-15l-154 -62v-31h-47l-61 47q-65 -62 -154 -62l-16 62l-46 -31l-31 200l31 31h-31v46l16 15v16q-93 0 -93 154l-15 62l77 15q0 31 -77 31q-62 133 -62 323h46l62 16l62 -16h30q0 31 -61 31
l-16 62l-15 -16h-15l-47 31v-15l16 -47l-16 -15h-77l-46 247l16 61l-62 154l15 16h324l31 -31l-16 -16h-15l46 -77v-15h-46l-16 15h-15l15 16v15l-30 31l-93 -31v-15l16 -16v-15l-62 -15v-16l62 -46l-16 -15v-47l46 31h16l15 -15h16v15l-16 16v15l16 15h77l31 -30v-16h-47
v-61l16 -93l-16 -46l31 -31l-15 -46h15l46 -46l-46 -47v-30q108 -37 108 -62l-15 -15l30 -31l-15 -16v-15l46 -31h16v93q0 158 46 231l-16 15q16 231 62 231l-15 46q10 216 61 216zM708 955v-31l31 -31h15l31 31v31h-77zM246 909v-16l31 -30v15zM184 878v-31l31 31h-31z
M508 847v-15l-31 -31l-31 31l16 15h46zM462 693v-31h31zM261 678v-31h31zM338 678v-46l31 30v16h-31zM739 647l46 -31h16v31l-31 31zM878 693h30v-31h-30v31zM338 570l62 -15l16 15v15l-16 16h-31zM554 601q0 -31 -77 -31v-46h62l46 61l-15 16h-16zM323 555v-31h15v31h-15z
M261 508v-15h31v46zM477 462v-31h31v31h-31zM785 246h31v-15h-31v15zM631 139v-16h46v16h-46z" />
    <glyph glyph-name="W" unicode="W" horiz-adv-x="1448" 
d="M122 1426q91 -5 91 -31l15 16h15l31 -31l-61 -76q-37 0 -76 -45h-15v-15l30 -76h106q8 61 46 61l-46 121l16 15h30l61 -167l30 -30v-30h-46l16 -61l-31 -91q31 0 31 -46l-46 -75q30 0 30 -46l91 15l46 -15v15l61 546v15l30 31h30l91 -15l46 15l15 -15l76 15h60l31 -31
v-30l-76 -91l15 -45h-30v-16l60 -91l-15 -45h15l16 -15l-16 -46h16q75 0 75 -121l-45 -46l15 -45h-45v-15l15 -15v-16q60 0 60 61h31l60 576l31 31q197 0 197 -46l-30 -30v-15h30l30 -46l-15 -76v-75h46v-16l-61 -106l30 -30v-15l-45 -61v-15h15l15 15h15l15 -15v-15
l-15 -15h-15l-15 15h-15l-31 -76v-15q61 0 61 -31q-45 -15 -45 -91v-45l75 15v-45l-30 -31l-30 31h-15v-61q60 0 60 -30v-16l-60 -15l-46 15v-15l-30 -30l15 -15v-15l-30 -46l45 -15l-15 -76l15 -15h15l15 15l16 -61l-46 -45l46 -15v-31l-46 -15l-15 15h-30q-31 0 -31 -75
h-15l-45 30l-31 -76l-15 15h-15l-15 -15h-15l-76 15l-91 -15l-46 212l15 16v15q-30 59 -45 288l30 30v15q-30 0 -30 76l-15 15h-15q0 -75 -46 -75l15 -16v-75q0 -31 -45 -31v-15l15 -15v-15h-61l76 -91v-31h-15q-23 0 -46 61l-15 15h-15l-15 -15v-61l15 -15v-15h-30l30 -136
q-36 0 -45 -107l-107 -15h-30l-76 15l-30 -30l-15 15l15 15v31h-15l-46 -31h-30v76l-15 61l15 45q-46 0 -46 213l16 60l-31 31l31 30l15 -45q72 0 106 75l-15 16l-15 45h-16l-45 -15l-15 15q0 -45 -31 -45q-50 0 -60 242l15 46l-30 30v15q0 31 45 31q-91 41 -91 455z
M820 1335l15 -15h15v45zM653 1289q0 -45 -46 -45l-15 -15v-16h61q0 31 45 31v30zM1275 1289v-15h30v15h-30zM895 1229l31 -31v-30h-31v61zM653 1183v-15l60 -15v30h-60zM395 1062h15l30 -31l-15 -15h-15l-15 15v31zM410 986h30v-30zM1381 956h30l-30 -31v31zM668 910v-15h30
v15h-30zM880 910v-45h15l31 30l-15 15h-31zM440 910v-15l-30 -30l-15 15v15l15 15h30zM668 865v-16l15 -15v-15l-15 -45l45 15v45l-30 31h-15zM1366 849h15v-15l-31 -30h-15v15zM425 774l15 -16v-15l-45 -45v-15q76 17 76 121h-15zM683 667v-15h30v15h-30zM425 652v-30h15
v30h-15zM365 607v-31l30 -45l-15 -61l30 -30h15q0 91 91 136l-30 31l-30 -31h-16l-45 31h-30zM622 576v-45h46v15l-30 30h-16zM956 546v-30h30zM380 334l30 -31v31h-30zM1108 303v-15h45v15h-45zM1259 303h31v-30h-31v30zM380 273v-15l15 -46l-15 -15h30v76h-30zM1093 197
v-30h45l-30 30h-15zM1214 76h30l31 -30l-16 -16l-45 16v30z" />
    <glyph glyph-name="X" unicode="X" horiz-adv-x="925" 
d="M604 1456q139 -15 139 -46l-30 -31v-16q61 0 61 -31v-15q0 -31 -46 -31v-16l31 -31l15 16l16 -16v-15l-47 -16v-31q41 0 78 -93l-78 -15v-47l16 -15v-16q-48 0 -93 -108v-16h47v-31h-31q-31 0 -31 47h-31v-16q0 -77 31 -77l46 15v-15l-15 -62l31 -77h-31q0 46 -31 46
q-62 -23 -62 -46l124 -93l-16 -47h16l46 -15l15 15l62 -170l-15 15h-31v-15l31 -124l-47 -16v-15q42 -62 78 -62v-62l-62 -62h-31l-93 15l-62 -15l-124 263h-15q0 -90 -62 -124l-47 31q0 -31 -46 -31v-31l15 16h47l-31 -31h-78q0 -78 -201 -78l-16 -15h-15l-31 31l263 712
l-170 465l62 62v16l-47 -31l-15 15l15 16v31h-15l-47 -16l-46 124l15 16h124l47 -31l93 15v-62h15l93 62l16 -15v-62q-109 0 -109 -93l16 -16h15l93 31l47 -31q37 0 77 186zM790 1425h15v-31h-15v31zM573 1286v-47l78 16v31h-78zM852 1286h15v-31h-15v31zM310 1224v-16h31
v16h-31zM666 1208l31 -31v31h-31zM387 1177l16 -93h31q0 81 -47 93zM728 1146v-62h31v62h-31zM558 960v-31h31v31h-31zM387 604v-31l31 31h-31zM713 449v-15l30 -31v46h-30zM372 403l-16 -16v-15l16 -16h15l16 16v15l-16 16h-15zM387 325v-46h31l16 46h-47zM836 341l78 -140
l-16 -15h-15l-47 31l16 15l-16 78v31zM325 294v-31l31 31h-31zM558 279v-31h31v31h-31zM372 248l-16 -16v-15l47 -47h15q-20 78 -46 78zM914 155h15v-31h-15v31zM372 62h31l-31 -31v31zM325 46h16l31 -31h-47v31z" />
    <glyph glyph-name="Y" unicode="Y" horiz-adv-x="1016" 
d="M263 1456l31 -46l-15 -47h46q5 62 62 62l16 -15v-16l-93 -93v-31q0 -129 108 -201h16v31h31l15 -47l-170 -139h15l78 15v-31q-47 0 -47 -77q146 55 155 108q0 31 -62 31v16l78 62l108 403q190 -16 217 -47l31 31h15l16 -15l15 15h16l31 -31q-62 0 -109 -46l-15 15h-16
v-15l31 -93q0 -93 -93 -93v-16l47 -62l-16 -15h31q0 62 31 62l31 -31l-62 -124l-15 15h-16l-62 -62v-46q47 0 47 -31t-62 -31l-15 -62h30l16 15h15v-31q0 -46 -61 -46l-47 16v-16l31 -46q-51 -16 -62 -62l16 -16h15l16 16h15l16 -16v-62h-31v31l-16 -15h-15l-16 15h-15
l15 -77q0 -31 -46 -31q44 -78 93 -78v-31h-16l-46 16v-31l15 -16v-15h-31v-31h31v31h31l31 -78v-124q0 -46 -155 -77l-77 31l-16 -16v-15l-15 15h-16l-77 -15l-16 15v47q0 99 171 155q-51 66 -124 93q0 -62 -31 -62l-16 15v171q0 139 -77 139v47q-42 356 -124 433
q-31 147 -124 341l31 31h186zM418 1255v-31l-77 -16v31zM759 1038v-31h46l-31 31h-15zM356 1022v-31h16v31h-16zM403 743v-15h31v15h-31zM666 465h31v-31h-31v31zM620 217l-16 -109v-46l16 15l15 -15h31v46l-31 47l16 62h-31zM325 201h31v-46h-31v46z" />
    <glyph glyph-name="Z" unicode="Z" horiz-adv-x="895" 
d="M261 1433h31v-15l184 15h370v-62l-15 -15l15 -15v-16q0 -31 -46 -31l15 -15v-15h-15l-46 15v-15l-16 15h-107l15 -77h15l77 15v-15q0 -31 -46 -31l-15 -15v-16l77 -77q-31 0 -31 -77h-46v31h-62l-31 -62v-30l31 -31l62 46h15q-46 -93 -92 -93v-15l31 -46v-16h-108
q0 -30 92 -46v-31h-31l-15 16h-16v-31q47 0 47 -31v-15q-50 -139 -93 -139q16 -92 46 -92h232l30 -31v-46l-30 -31l15 -108v-16q0 -30 -46 -30v-62h31v-31l-16 16h-31l-15 -16h-15l-16 46l-61 -92h-16l-15 15v16l46 15v16l-31 30l-77 -77v77h-31l-46 -30l-62 30
q-11 -77 -46 -77l-46 47q-119 -12 -170 -62h-61l-16 15h-15q86 373 200 601q0 148 93 293l15 93l-61 61l30 31h16v-31h31q-61 123 -93 123v-30l16 -47l-16 -15h-15l-47 31l-77 -16h-30v31l15 16v15q-62 0 -62 231zM384 1341l-31 -77l16 -16h77l15 77zM153 1325v-46h46v-15
l-15 -16v-15h15l31 31q-6 41 -77 61zM399 1217v-31l31 31h-31zM785 1186l15 -15v-15l-15 -16h-16l-15 16v15l15 15h16zM91 1109h16v-46l-31 -31l-16 16v31zM430 663v-31h62l-31 31h-31zM399 601v-31h31v31h-31zM461 555l-15 -16v-15l15 -16h15l16 16v15l-16 16h-15zM307 108
v-31h46l-31 31h-15z" />
    <glyph glyph-name="a" unicode="a" 
d="M377 1448l15 -15l106 15h151l45 -30h75v-15l-15 -15v-15h30v-31l-45 -15l15 -15v-45l-15 -15l15 -75h30l46 30l15 -46l-15 -15v-15l30 -151h-30v61l-61 -30l-45 15v-15l91 -76v-15l-16 -45h46v45l30 -30v-60l-45 30l-31 -45q0 -46 106 -46l15 -75h-15q-45 0 -45 -30
l15 -46l-15 -90v-30h15l15 15l15 -15h30l-30 60l15 15v15l-30 76h15q45 0 60 -242l-15 -15l30 -30l-15 -15v-15l15 -15l-30 -30v-15q0 -31 46 -31l15 -15v-15l-31 -30h31v-30q-46 0 -46 -30l61 -15l-15 -61l15 -45h-151l-60 15l-121 -30q-45 40 -76 226l-15 15h-15l-15 -15
h-15l-45 15l-91 -15v30h-15l-30 -30v-15l15 15h30q0 -90 -60 -90v-15l30 -46v-30q0 -30 -196 -45l-60 30l-121 -15l-15 15v30q75 498 121 498l-15 45l15 15v16l-15 15v15q96 588 120 588l-15 15v15q0 166 166 166zM287 1312v-75h45v15l-30 60h-15zM558 1267v-30h30v30h-30z
M769 1101v-15h30v15h-30zM468 950l30 -135l-61 -151l31 -76h105l-45 317v91h-15zM724 799l30 -30v30h-30zM784 588h31v30zM860 422h15l30 31v15zM347 332v-15h60v15h-60zM528 332l-30 -45v-15q60 22 60 45l-15 15h-15zM920 166h15l30 30h-15zM317 121v-30l30 30h-30z
M965 106v-31h31v31h-31zM875 91l-15 -46h15l30 30v16h-30z" />
    <glyph glyph-name="b" unicode="b" horiz-adv-x="1039" 
d="M159 1433h60l15 -15l15 15h226q155 0 362 -106l-15 -15v-30h30v-15l-15 -15l31 -60l45 15v-15l15 -61l-15 -45h15l30 -30v-76l-15 -75h-30l-15 15h-15v-45q45 0 45 -30q-51 0 -91 -76v-15q136 -142 136 -256l-15 -15l30 -30v-16l-30 -45v-15q45 0 45 -30q-30 0 -30 -60
l-15 -15h-15l-30 30q0 -46 -61 -46v-30l61 -15q-15 -105 -45 -105l-46 45q-45 0 -45 -45h-30l-15 15h-15v-30q-46 0 -46 -61l-105 -15l-30 30v15l60 15l45 -15v15l15 46l-166 -76l-15 15h-45q0 -38 -75 -45l-15 15h-15l-91 -15l-15 15l-30 -30h-106l-30 30v106l15 60l-15 60
l15 16l-15 75v136l15 196l-15 45l15 241v257q0 30 121 45v-30h-30l30 -30l75 30v30q-45 0 -45 60l-91 -60h-30l-30 30v91q15 45 91 45zM626 1267l30 -30l15 15v15h-45zM506 1131q0 -45 -61 -45l-15 -45l15 -15v-15l-30 -31l-30 31l-30 -31q65 0 105 -90q83 0 151 75
q-28 107 -105 166zM355 1071v-30h30zM852 996v-31h16v31h-16zM883 996v-31h30v31h-30zM430 664l15 -76v-15l-30 -120l15 -76h60q106 0 106 106v60l-121 91v45zM204 649v-15l45 -46h60v15q-45 0 -45 46h-60zM128 603v-15q61 0 61 -45h45v15l-45 45h-61zM913 573v-30h15v30
h-15zM355 422v-30h45v30h-45zM913 422v-45l30 30v15h-30zM309 392l31 -30v30h-31zM898 332v-15h15l30 30v15h-15zM822 272h30l16 60q-23 0 -46 -60zM943 256h15v-30h-45zM219 75h60v46q-60 -23 -60 -46z" />
    <glyph glyph-name="c" unicode="c" horiz-adv-x="864" 
d="M455 1425h147q177 -42 177 -88l-15 -132l15 -44h-30l-14 14h-15l-15 -59h-15l-14 15h-15q0 -29 -44 -29l15 -15v-15l-15 -14h-15l-14 44h-59q0 -74 -44 -74l-59 15q0 -29 44 -29v-15l-29 -29q-37 0 -44 58h-44q0 -44 -30 -44l-14 15l-30 -44h15l88 15l29 -30
q0 -161 -73 -161v-15q44 -54 44 -103v-15l-44 -58h15l14 14h15q0 -140 191 -205q83 0 191 117h15l14 -59l-29 -88l15 -14v-15l-30 -44l30 -44q-15 -74 -59 -74v-14q0 -30 44 -30v-44h-88v30l-74 -30l15 -73l-15 -15h-14l-15 15l15 14v30l-74 14h-15v-44h-14q-89 74 -132 74
q0 -34 -74 -44q-155 151 -191 235v15l15 14v15q-103 0 -103 352q0 460 279 676q101 59 176 59zM544 1175v-44h29v44h-29zM617 1175v-29l29 29h-29zM749 1116l30 -29v-103h-15q-103 51 -103 74v29l74 -15h14v44zM309 926v-30l58 -29v59h-58zM309 705v-29h29zM544 44l14 -15
v-14l-14 -15h-15l-15 15v14l15 15h15z" />
    <glyph glyph-name="d" unicode="d" horiz-adv-x="1111" 
d="M99 1433h447q246 0 246 -139h-15q25 -87 123 -215l77 15q46 0 62 -123l-62 -31l31 -31l46 16v-16l-15 -62l46 -46l-62 -61l-46 15q62 -77 93 -77v-15l-47 -47l-15 16l15 15v31h-15l-46 -15l-16 15l-15 -15v-16l31 -31l-47 -154l16 -46l-46 -92l-16 15h-46l15 -15v-31
q-77 0 -77 -31l47 -46l-16 -16v-15l31 -31v-15q-46 0 -46 -31l15 -16l-138 -77l-16 77h-31q0 -92 -31 -92l-15 15l-15 -15l-16 62h-15l-16 -16h-15l-46 46l-16 -15l-15 15q-46 -39 -46 -77h-31q0 47 -31 47q-48 0 -108 -62l-15 15h-16l-61 -15l-31 31v1371zM345 1217
l-15 -15v-16h46zM885 1217l30 -31l-15 -15h-15l-31 31l15 15h16zM392 1156v-16h30v16h-30zM438 909l15 -92l-15 -16v-15l15 -62v-46l-92 31l-16 -77l31 -31l-15 -15h15l-15 -16v-108h46q0 77 31 77l15 -15v-16l-15 -61l15 -16v-15l-15 -46h15q231 30 231 323v31l-30 185
l30 31v15l-92 62q0 52 -77 77q-70 0 -77 -185zM361 1063v-15l31 -31h15v31zM915 1032l-92 -77l15 -92l108 62v15l-77 -15q0 23 62 46l15 15v16l16 -16h46v31zM315 955v-15h30v15h-30zM376 955l31 -30v30h-31zM315 832h30v31zM376 832v-62l31 31zM176 647l-31 -61l46 -31
q0 46 31 46v-46h15l31 31zM438 663l15 -16v-46l-31 -31h-15v62zM1023 539h31v-15h-31v15zM977 478h16v-31h-16v31zM376 416v-46h16l30 31v15h-46zM977 370h16v-46l-78 -77h-46l-31 30q66 0 139 93zM114 293v-46h46v15l-30 31h-16zM607 277v-15h31v15h-31zM623 247l31 -31
l30 31h-61zM869 200h31v-31h-31v31zM669 139v-16l31 -31h15v47h-46zM530 77h31v31z" />
    <glyph glyph-name="e" unicode="e" horiz-adv-x="781" 
d="M83 1433h610l46 -46v-30l-30 -46l15 -46l-31 -30l31 -46l-76 -15l76 -92v-15h-31l-45 31h-16q0 -46 -30 -46l-46 46l-15 -16h-15l-46 16q-43 -77 -122 -77l30 -30l46 15v-76q0 -31 153 -46v-15l106 30l16 -15v-107l-31 -121l-76 45l-15 -15v-15l15 -61l-76 15l-31 -30
h-15v45h-15l-61 -15l-46 15l-31 -45h16l15 15h15l15 -15v-16q-30 0 -45 -106q61 0 61 -46l30 -92l92 31h30l46 -46q0 -30 -46 -30v-16l76 -30h16v15h-31v31h15l46 -16l-15 16v30l30 31l31 -31l-15 -15v-15l15 -61q0 -31 -46 -31v-46h31v-45h-16l-15 15h-15q0 -31 -92 -46
v-15q61 -8 61 -46l-15 -15l-15 15h-46l-15 -15h-15l-16 15v15l46 16l-30 30l-61 -46h-16l-61 46l-30 -30l-31 30l-15 -15l-15 15h-15l-46 -30l-46 15l-30 -31h-16v31h-15v-31l15 -15h-61l-30 31v1357zM663 1311v-30h15v30h-15zM556 1250v-30h15v30h-15zM373 1143l-15 -61
v-15h15l31 61l-16 15h-15zM99 1052v-15l45 -46v30l-30 31h-15zM175 1006v-30h30l16 61h-16zM144 960l31 -30h15v30h-46zM343 945v-30h15v30h-15zM373 945v-30h15v30h-15zM129 899v-15l76 -30v45h-76zM99 869v-31l30 31h-30zM678 610l31 -31v-30h-61v30zM480 564h30v-15h-30
v15zM327 381l61 -46v77h-30zM129 290l31 -31h61v31h-92zM343 290v-16h30v16h-30zM419 290v-16h30v16h-30z" />
    <glyph glyph-name="f" unicode="f" horiz-adv-x="789" 
d="M92 1441h628l31 -31l-15 -153l15 -77l-61 -46q61 -7 61 -46v-15l-31 -31h-15l-46 46l-123 -15l-46 15v-30h-30l-62 46l-92 -92l62 -31v-46h-31v-15l31 -31l15 46l92 -31h215q34 0 61 -107l-31 -61l16 -77v-30l-31 -46l31 -31l-31 -31h-31q-25 0 -61 108h-15l-77 -16v-30
l31 -46l-16 -16h-15q-31 0 -31 62h-30l15 76h-46l-46 -46l15 -61q-46 -15 -46 -92q77 0 77 -138l-15 -15h-16l16 -16v-15l-31 -31h-46l31 31l-16 15v31h46v15l-30 46l15 16v15q-46 0 -46 46l-31 -31l31 -30l-61 -108v-15q0 -31 61 -31v-15l-31 -31q0 -46 77 -46v-30
q-61 0 -77 -77h16l107 46v-46l-46 -46l-46 31l-31 -31l-46 31l-15 -16l-15 16v15l15 15l-15 16h-16l-107 -77h-15l-31 31v1379zM352 1349q0 -61 -61 -61v-31q46 0 77 -77l46 16l15 -16l61 92q-61 0 -61 31l15 46l-15 -15h-46l-15 15h-16zM92 1288l30 -31h31v31h-61z
M567 1272v-30h31v30h-31zM644 1272l-16 -46h16l30 31v15h-30zM368 1012h46l-31 -31h-15v31zM659 598h31l15 92q-46 -15 -46 -92zM138 613v-30h46l-31 30h-15zM306 583l16 -16h46v46h-31zM567 567h15v-30h-15v30zM414 230l15 -15v-16h-46z" />
    <glyph glyph-name="g" unicode="g" horiz-adv-x="1039" 
d="M648 -64q-77 0 -77 30l16 16h15l15 -16h16l15 78h-15l-46 -31l-16 46q-51 -15 -62 -62l16 -46l-16 15h-15l-16 -15q0 62 -92 62l-31 31l-15 -16h-31l-16 16l-15 -16h-31l15 16v15l-30 31h-16l-15 -16h-16l-15 16v15l15 47h-15l-93 92l16 16v31q-82 0 -93 416
q0 185 77 185v31h-31v31h47l-16 16v77q10 92 46 92l16 -15h15q78 262 232 262q0 28 185 31h46q31 0 31 62h31q0 -77 93 -77q123 -45 123 -77v-62l-31 -31l-46 31h-46l-16 -62l31 -31l16 16h15l15 -16l16 16l15 -16l-15 -15v-16l31 -46l-16 -15v-16l16 -92l-16 -16h-15
l-16 16v15l16 16l-16 46l16 46h-16l-15 -15h-15l-47 15v-31h31v-46l-92 62l15 15h-31v-11l-46 11l-77 -15l-31 31h-16v-47q47 0 47 -31q-47 0 -47 -46l-15 -15h-16l-46 31v-62h-15l-47 31h-92l77 -62l31 -31v-31h-16l-92 62v-46q77 -105 77 -170l46 -16l-31 -46l16 -15v-16
l-31 -31l-15 16q0 -31 -47 -31v-31l16 15h46l31 -30l-16 -16h-15l-15 16l-16 -16v-15l16 -16h15l15 16l16 -16v-15l-16 -46h16l139 -62h31q92 77 92 216h-77v-62h-15l-31 31l15 15l-46 47v77l15 185h31l108 -15l31 15h293l31 -31v-15l-15 -62l15 -46l-31 -62l31 -31
q-40 -92 -77 -92v-16h16l46 16v-16q0 -79 -93 -185l31 -31v-15h-15l-47 15l-15 -15v-16q62 0 62 -31v-61h-16q-31 0 -31 61l-46 16l-31 -47l16 -15h-16l16 -15l-16 -78v-46h-31l-15 16l-62 -31l16 -16l-13 -61h-34zM478 1232v-31l139 -62l16 78l-16 77zM293 1278v-15h31v15
h-31zM417 1078v-16l31 -31h15zM139 923v-31h46l-31 31h-15zM123 862l31 -31v31h-31zM309 692v-31h31v31h-31zM154 599h-31q0 47 -30 47h-16v-31q46 0 46 -31v-31l-77 15v-31l108 -15l16 15h15l47 -15l15 15v16h-93v46h31v62q-31 0 -31 -62zM571 615v-16l31 -31h31v31z
M818 599l-31 -62l46 -46h31l16 46q-11 47 -62 62zM77 476v-31h31v62zM154 476v-31h31v31h-31zM123 291v-31h31v31h-31zM525 167v-15h31v15h-31zM432 74v-46h46v16l-30 30h-16z" />
    <glyph glyph-name="h" unicode="h" 
d="M157 1432q277 -10 277 -93l-46 -15v-31l77 -77l-61 -16v-15q0 -31 46 -31l15 -15v-31h-61l30 -47l-15 -46l15 16h16l15 -16v-15l-61 -62l15 -16h15l16 16q23 -62 46 -62l31 31h108q8 62 46 62l-46 77v62l46 77l-30 31l108 61v16l-16 15h-15l-31 -31q-62 26 -62 109l31 30
h201l46 -46l-16 -62l16 -15v-16l-16 -46l93 -15v-31h-46l-16 15h-15v-31q15 -61 77 -61l16 15l15 -15v-16l-77 -15v-16h31v-30l-16 15h-62q47 -93 93 -93v-15q-93 0 -93 -77h16l46 -31l47 15l-16 -15v-16l16 -15v-15l-31 -31l15 -77l-15 -47l-78 16v-16l16 -15v-16l-16 -46
l78 -93l-31 -30q62 0 62 -78l-16 -15h-15l-47 15l-31 -46v-31q58 -5 93 -62v-30l-15 -16l31 -77h-16l-77 15v-15q0 -31 62 -31l15 -15v-31l-31 -31l-46 62h-16q0 -47 -30 -47h-16l-139 16l-61 -16l-16 16v62l16 92l-16 46l16 16v15l-16 47l31 31q-31 24 -31 169l-15 16h-170
l-16 -108l31 -31l-46 -46l15 -47h-30l-47 31l16 -77l-16 -62h16l46 16l15 -16v-62q-77 0 -77 -61l16 -16h31q0 47 30 47l31 -47l-31 -31h-15q-52 0 -108 47h-31l16 -16v-15l-16 -16h-15l-62 16l-93 -31l-15 15v1390q0 38 62 46zM959 1386h31l-31 -31v31zM249 1293l31 -31
l16 15v16h-47zM944 1293h31v-31h-31v31zM743 1231v-31h31zM203 1000l-16 -78l16 -61l77 61q-10 62 -77 78zM882 845v-46l31 31l-16 15h-15zM928 799l31 -31v31h-31zM897 737v-31h31zM944 676h31v30zM434 614v-47h31l47 31h30l47 -31h31v31l-93 31h-15zM388 382h31v31z
M218 305q0 -31 -61 -31v-31q46 0 46 -61q108 52 108 77q-46 0 -46 46h-47zM666 259v-31h31v31h-31zM913 197v-46h46v46h-46z" />
    <glyph glyph-name="i" unicode="i" horiz-adv-x="463" 
d="M77 1433h308l31 -31v-138h-31l15 15v15h-77v-30l16 -16v-15l-31 -31v-46l123 -31v-46h-61v-16l30 -46v-31q-61 0 -61 -92l61 46l16 -15v-16l-31 -31l-15 16v-47h15l15 16h16v-16q0 -30 -77 -30v-31l46 -16l46 16v-46q-61 0 -61 -31v-16h30v-15l-15 -15v-16l15 -15v-16
l-15 -46l31 -31v-15h-77l92 -108l-31 -62l16 -15q-62 -15 -62 -77h62v-31l-16 -15l16 -16v-15q0 -31 -46 -31v-15l30 -47v-15l-15 -15v-16l31 -31v-15h-16l-107 46v-46h-31l-139 15l-62 -15l-15 15v16l15 92l-15 16v15q0 93 46 93v30q-46 0 -46 31v570l46 47l62 -47h46
l15 47l-15 46h-15l-108 -31l-31 169l15 93l-15 154v46zM354 1402l-31 -46h31l31 31l-15 15h-16zM154 324v-47h31l-31 -30l-16 15v-62l77 62v15q-30 0 -30 47h-31zM354 247l-15 -16v-15l15 -16h16l15 16v15l-15 16h-16zM246 62v-31h16v31h-16z" />
    <glyph glyph-name="j" unicode="j" horiz-adv-x="657" 
d="M274 1448h122q77 -4 77 -30l15 15h106l31 -31l-31 -45v-31l16 -15v-15q-77 -20 -77 -46v-31h31l46 31l15 -15v-46l-15 -61l15 -46l-46 -15v-31l31 -45q0 -60 -77 -122v-15l46 -61v-31h-15l-46 15l31 -91v-15l-31 -46q61 -15 61 -92q-30 0 -46 -91h31l15 15h15l16 -15
q0 -46 -61 -46l15 -76h-46q0 -30 46 -30l15 -16v-30h-30l15 -46l-15 -76h-31v46h-30v-46h30q-23 -61 -45 -61h-31l15 107l-45 -31h-31l-15 15h-15l-16 -15v-15q77 -20 77 -46h-77l-15 15h-15l-31 -91h-76l-30 30l15 16q-168 69 -168 91v15l15 77q-30 0 -30 45l15 16l-15 76
v76h30q82 -61 138 -61q61 15 61 92v274l15 320l-15 15l15 76v260zM503 1311h30v30zM305 975l30 -30h31v76h-15zM503 975l15 -15h46v46h-31zM503 259v-15h30v15h-30zM366 229l30 -31v31h-30z" />
    <glyph glyph-name="k" unicode="k" horiz-adv-x="1031" 
d="M653 1441h45l166 -30l15 15h15l15 -15q0 -75 -90 -75l15 -75l-60 -15q0 -30 45 -30v-15l-30 -45q0 -30 45 -30l-15 -45l30 -75l-15 -15h-15l-15 15l15 15v30l-61 -60v-30l31 -45q-23 -60 -46 -60l-15 15h-15l-45 -15v-15q106 0 106 -45l-46 -45h-15v30h30v30l-60 -30v-30
q54 0 166 -346q0 -30 -60 -30l15 -75l15 15h60l45 -45l-135 -30v-45l75 15h15l15 -75l-15 -15q122 -10 135 -60l-45 -30q-15 54 -105 75q-15 -90 -75 -90v-15q-241 0 -241 225l-15 45l15 15q-49 0 -105 345h-15l-45 -30h-15v30h-45v-30q0 -30 90 -30v-15l-15 -75h-15
q0 60 -30 60h-30v-30l15 -60q-15 -78 -60 -120l15 -60l-15 -45q28 0 75 -90l-15 -15v-15h15l45 45l-30 30l30 30l15 -15v-135l-30 -30h-30l15 15v45h-30v-60h-45l-60 -15l-90 45q0 -45 -30 -45h-15q-30 0 -45 165h15l-15 15l15 75v931l30 30l45 -30h30l15 45l-15 45h-45v-30
h-60v135l30 30h180l45 -45l-15 -15v-15l30 -75h-15q-45 0 -45 -30v-15l45 -60l-30 -45v-15h15l15 15h15l60 -15v-15l-30 -30l-30 30h-15l15 -15v-15q-7 -60 -45 -60v-30h30v-60h-30v-30q45 0 45 -30l-15 -15l45 -30h15l15 45h-45l15 75l-15 15l15 15h15l-15 75v15h30l30 -30
l-15 -75h45q141 495 195 495zM939 1426l30 -30h-30v30zM608 1231l30 -30h30v30l-30 30zM894 1246h30v-75h-30v75zM368 1231h30v-30h-30v30zM323 1006h15v-30h-15v30zM173 585v-15h30v15h-30zM804 435v-45h15v45h-15zM383 435h30v-30h-30v30zM353 360q45 -9 45 -120v-15h-30
l-45 75q30 0 30 60zM743 300v-30h46l-31 30h-15z" />
    <glyph glyph-name="l" unicode="l" horiz-adv-x="811" 
d="M115 1433q259 -10 259 -30q0 -31 46 -31v-30h-31v-16l61 -122l-15 -15h-15q-31 35 -31 107l-61 -76q25 0 61 -107h15l16 15l15 -15l-46 -107l-15 15h-31q0 -41 -45 -91q49 0 76 -122h30v15l-15 15v16h31v-31l15 -15l-15 -15h-31l15 -16v-15h-76v-30l61 -15l-15 -16v-30
h30v46h16l15 -16h15q-11 -91 -30 -91l30 -153l-15 -15l-15 15h-16l-91 -30v-31l107 31q0 -28 137 -46l61 15h30l16 -15l15 15h61l15 -15h15l-30 -198l15 -15v-16q0 -123 -122 -152q0 30 -46 30q-30 61 -91 61v-30h-76l-46 -31l-15 16h-16v-31h-30q0 50 -31 76v16h-30
q-59 -66 -153 -107l-30 91v153l15 15l-15 15v641l15 15l-15 15v153l30 45l-30 31v15l30 31l46 -46h15q5 76 46 76l-15 61h-76q0 -46 -31 -46l-15 16v106zM191 1159v-31h15v31h-15zM328 1143v-30h31zM450 1037v-31l-46 -46h-15v46l15 -15h16q0 46 30 46zM404 762h31v-30z
M115 610v-31h30q0 -45 31 -45l30 61v30h-15zM359 625v-15l30 -31v46h-30zM343 534q0 -31 -45 -31l-16 -15v-15l16 -16h15l46 46h15v31h-31zM633 351v-46l31 30l-16 16h-15zM618 229l30 -31h16l-31 31h-15zM557 213v-30h15v30h-15zM328 152v-45l76 15v30h-76zM587 122v-15
l31 -31v15z" />
    <glyph glyph-name="m" unicode="m" horiz-adv-x="1361" 
d="M80 1451h123l217 -15l46 15q108 -15 108 -46v-15q-46 0 -46 -31q67 0 92 -201h-46v31h-31q0 -93 62 -93v-15l-62 -62l15 -15l-15 -78v-46h15l16 15h15l-15 16v46l15 16v15q29 0 78 -93v-15l-47 -62h16l15 16h16l15 -47h15q51 402 93 464l-15 15v15q19 155 61 155h108
q356 0 356 -46q-62 0 -62 -93q-62 -8 -62 -46l46 -47v-15l-46 31l-15 -16v-15q138 -76 139 -108l-16 -16h-31l-46 31l-16 -92q56 -78 93 -78v-15l-15 -16v-15q31 0 46 -93l-15 -15h-16l-46 123h-31v-15l15 -77q-56 -77 -92 -77v-31l77 -16v62h15l31 -31v-31l-46 -46l46 -77
l-15 -47h31v31h31v-15l-31 -62l15 -46h-15l-16 15h-15l-47 -15v-16q0 -123 62 -123l-15 -77l15 -16q-67 0 -92 -77h-47l16 -15v-31l-31 -31l-46 31q0 -62 -31 -62h-47l-46 31l15 463v201q-30 0 -30 -124q-26 0 -47 -123l-77 -31v-16q0 -30 62 -30v-31q0 -119 -62 -139
l16 -16v-15l-31 -46l31 -47l-16 -15v-16l16 -15l-16 -16h-15l-78 47l-30 -31q-31 0 -31 46l-31 -31l15 -15l-15 -16h-47q-41 0 -61 217l46 46q-77 0 -77 278q-20 0 -31 92q-62 0 -62 47l16 46q-31 0 -31 46h-16q0 -61 -31 -61l109 -155q0 -31 -47 -31v-15q47 -57 47 -108
h-16l16 -16v-15l-62 -62l-47 16l-30 -47l30 -46l-15 -77l77 -62v-15h-15l-47 15l-77 -93l-46 31h-31l-62 -46h-15l-31 31v509l15 62l-15 62v463q0 25 139 108l-15 77l15 16l-15 15l-16 -15h-31l-77 92zM1083 1359v-16h31v16h-31zM1099 1281h31v31zM358 1251v-31h15l31 31
h-46zM1006 1204v-15h31v15h-31zM327 1096v-31h31v31h-31zM311 1019l-46 -139l77 -31h16l31 62v31h-31v31h31v15l-31 31h-47zM1037 988v-31h-15l15 -46l16 15h92v31q-72 0 -108 31zM1269 988h31v-15h-31v15zM806 957v-31h30l31 31h-61zM883 818l61 -15v15l-30 31zM342 834
v-31h16v31h-16zM373 834v-31h16v31h-16zM281 803v-31h15v31h-15zM883 741l31 -31h30v31h-61zM404 726l31 -31v31h-31zM296 664v-16h31v16h-31zM1053 664v-16h30v16h-30zM1269 648h31v-30h-31v30zM327 571l15 -15h16v46zM157 571v-31h31v31h-31zM1053 571v-31h15v31h-15z
M1161 509v-30h77l-31 77zM342 479l-15 -108h46l16 46l-16 62h-31zM1068 340v-16l15 -15v-16l-15 -15l-15 15h-31l15 -108l46 31l47 -15v15l46 46h15v-30h16v30l-108 31v16q46 0 46 77zM1284 371h16v-31l-31 -31l-31 31zM775 340l-16 -62l47 -31v15l-16 62l16 16h-31z
M342 293h31v-31h-31v31zM543 216v-31h31zM1269 139h15v-31h-15v31zM358 62h15v-47h-46v16zM1222 46l31 -31l-15 -15h-31l-31 31l15 15h31z" />
    <glyph glyph-name="n" unicode="n" 
d="M106 1433h228q31 0 31 -61l46 31h15l15 -61l-46 -31l-45 31l-16 -92l92 -46q0 46 46 46v15q-46 0 -46 31q0 35 76 46l31 -168h-46v-46q47 0 107 -91l-16 -16l-15 16h-30l-16 -107v-31l77 -30l15 15v-30h-46v-16l15 -15v-15q98 0 107 91l-15 16l30 30v15l-45 77l15 15v15
l-15 15v16q0 137 76 137v30q-61 0 -61 31l15 61l-15 61l15 15h183q0 -61 46 -61q15 -76 61 -76v-46h-46q-38 0 -46 61h-61l-15 -61l15 -46h46l46 31l15 -15l-15 -46l45 -76l-30 -31l46 -76l-31 -31l31 -30v-15q-35 0 -61 -61v-16q76 0 76 -30l-15 -15h-16l-61 15v-30l77 -16
v-15l-46 -91l30 -31l-15 -15q10 -92 61 -92v-30h-76v-31q46 0 46 -30q-81 -73 -107 -137v-16q0 -30 76 -30l15 -15v-31l-30 -46l30 -30q-31 -7 -61 -76l-15 15h-30q0 -61 -31 -61l-45 15l-46 -15l-15 76l-46 -30l-92 76v46l31 45q-49 0 -137 305l-16 138q-112 -12 -152 -46
l-61 30l15 16v61h-15q-31 0 -31 -46h-30q0 46 -31 46h-15v-31l31 -46l-16 -15l-15 15h-15l-31 -30v-15h77v-16l-31 -45v-31h15q31 0 31 46h30q0 -61 31 -61h15v30l-30 46l15 15h15l15 -15l16 15h30l15 -106l-45 -107l45 -46v-15l-30 -92l30 -30l-122 -122l-45 46l-31 -31
l15 -15v-15l-15 -16h-46l-30 31v152l46 46h15v-15l-31 -46l46 -30l137 106q-61 0 -61 46l31 46v15l-46 15q0 -45 -30 -45l-46 45l-15 -15v-15l15 -61h-15l-46 46v198l15 61l-15 61v213l46 46l15 -15v-16l-31 -30l46 -15q0 45 31 45q30 0 30 -45h61v30q-46 0 -46 31v15h31
l15 -15h15v45h16l30 -30v-15h-30v-16l76 -30l15 15v15l-30 77l30 30l-61 31l-91 -77h-31v16l31 76h-46v-31h-31v31h-45l15 -76h-31l-30 30v198l30 31q0 -76 31 -76l46 45h15q0 -45 30 -45h16l45 122l-61 15l16 76l-16 15h-15l-30 -30l-46 30h-15v-76h-16l-30 31v45z
M959 1372h16v-30h-16v30zM151 1281h16v-31h-16v31zM975 1113h45l-30 -31l-15 16v15zM258 1052h46v30h-15zM853 960l15 -15h15v46zM578 960l31 -30l-31 -31h-15zM822 945l31 -30v30h-31zM334 823l31 -30h15v61h-15zM289 808v-30h15v30h-15zM609 762l30 -30h16l-16 61z
M304 762v-76q91 15 91 46l-30 30h-61zM624 701q-21 -91 -76 -91v-15q76 0 76 -46l-15 -46l15 -15h15l16 46h30v-31h31v15l-16 46l61 31v15q-61 0 -61 61zM639 625h31v-30h-31v30zM350 595h30l31 -31v-15l-16 -15l16 -16v-30h-31l-30 61v46zM350 396h30v-30h-30v30zM563 351
l15 -16l46 16l-30 30zM685 305v-46l31 31l-16 15h-15zM944 320h15l-30 -30h-15zM197 198v-30h15v30h-15zM365 76l46 -46h-16l-30 31v15zM914 30h30v-30h-30v30z" />
    <glyph glyph-name="o" unicode="o" horiz-adv-x="1187" 
d="M569 1433h77l76 -61h15l46 31l76 -77v-30l-15 -61l137 -168h15q0 46 31 46l15 -15l-15 -16v-15l15 -46h-46v-30h61v-31q-61 -7 -61 -45l46 -77l-15 -15v-15l15 -15h15l-15 -15v-31h46q0 46 30 46l15 -15v-16q-9 -45 -106 -45q0 -31 45 -31l16 -15v-15h-77l61 -92l61 46
h16v-15q0 -40 -107 -61l-15 15l-16 -15v-16l31 -30l-15 -15l-16 15h-30v-31l46 -15l-16 -15v-31h16l61 46l15 -15v-15q0 -27 -137 -77l-16 16q-49 -77 -121 -77v-30l76 -31v-30l-16 15h-30v-30l-15 -16l15 -15h15q0 -39 -137 -61v-15h31v-31h-16q-41 0 -45 77
q-61 -23 -61 -46l15 -46l-15 -15h-16q0 28 -106 91v-61h-31l-15 16h-15l-16 -16v31h-15l-46 -31q-186 105 -213 168l15 15q-91 140 -91 183q-31 55 -46 290q15 290 76 290l-15 15v15q0 134 152 229l-15 15v15q95 168 320 168zM707 1296v-15h15l30 30v15h-15zM768 1326v-15
h30v15h-30zM630 1311l16 -15v-46h-46v-30q46 0 46 -31l-16 -15v-15l16 -16h15q0 46 30 46l31 -30v45q-61 0 -61 31l15 15v15l-15 46h-31zM417 1235v-31h30l31 31l-31 30zM707 1235v-15h30v15h-30zM478 930h-31v76l-15 -15h-15l-15 15h-16v-107l16 -61l-16 -45h16l-16 -15
v-31h61v-30h-61v-16l16 -15v-15l-16 -15l-15 15h-30l30 -46l-46 -46v-15l46 31l15 -46l16 15h15l61 -61v-76l-15 -15v-16l183 -30q85 137 137 137l-15 15v61h45v16q-61 0 -61 30l31 46l-46 46v91l-15 91l15 46q-66 81 -152 92q-57 0 -107 -107zM859 945v-30l61 -16l15 46
h-76zM463 915v-46l-31 30l15 16h16zM310 762v-76h15l31 31v45h-46zM203 656l-30 -61l30 -31h92v31l-31 30l-15 -15h-15l-15 46h-16zM417 442h30v31zM615 335v-30h15v30h-15zM676 335v-30l31 30h-31zM966 305h61l-16 -76h-30zM402 274l15 -45h15l31 30v15h-61zM569 274v-15
h61v15h-61zM661 229l91 15v30h-45zM249 213v-15h31v15h-31zM615 213v-45l31 30l-16 15h-15zM691 198v-30h16v30h-16zM737 152h31v31zM859 46h30v-16h-30v16z" />
    <glyph glyph-name="p" unicode="p" horiz-adv-x="1031" 
d="M960 1219q0 -130 46 -183l-31 -46l31 -91l-31 -31l15 -15q-10 -122 -30 -122l15 -76l-46 15l-15 -15h-15l-61 46h76l-15 15v15l15 16v15q-152 -23 -152 -76l30 -31l-30 -30q-31 0 -31 45h-76q0 -30 -61 -76l46 -76v-15h-15l-61 45h-15q-31 0 -31 -60l-107 30v-15
q0 -41 -45 -92v-15q61 0 61 -30l-16 -16l-15 16h-30l-31 -61l31 -61l-31 -122l15 15h16l15 -15v-31h-46l-30 31l-76 -15h-46v-61q91 0 91 -31l-15 -15h-46l-45 30h-16l-45 -30l-46 46v487l15 92l-15 15v15l15 594v153l31 30h365q140 0 198 -61l46 15q46 -64 46 -121h-15
l-31 30l15 15v15q-71 0 -106 31h-16l16 -76l-61 -15v-31l76 -15l-15 -15v-31l15 15h30l16 -15h15q0 46 30 46h16l15 -15h15v15l-15 15v15l15 46h15q26 0 46 -91l-15 -46h61v30l-16 77h31v-31h30zM137 1341l31 -31v-15l-61 -15v-31q45 0 45 -30l-15 -46h31q0 46 30 46l61 -61
v15l-15 76l15 -15h31l30 31q-91 20 -91 45l45 46l-15 15h-15l-46 -30l-30 30zM396 1325l-15 -15l15 -15v-15l-15 -15v-16q30 0 30 -45l46 -16v107zM350 1173v-30h31zM427 1158v-31q45 0 45 -61h-15l-15 -60h-15q-31 0 -31 45h-30l15 -15v-15l-46 -122v-15h15q46 0 46 45
l15 16h31v-122h107l76 45l-16 46l16 92v15q-46 0 -46 61zM899 1143l-31 -92v-15h46l15 76v31h-30zM823 1127v-30h15v30h-15zM350 1082h46v30h-15zM168 1021q0 -46 -61 -92h45l16 16q45 0 45 -46l16 -15h15q0 45 46 45v31h-61l15 15v46q-31 0 -31 -46l-15 -15h-30l30 46
l-15 15h-15zM838 914q46 0 46 -61h15l30 31l-15 106h-15zM152 914v-61h16l30 61h-46zM396 884v-31h15v31h-15zM259 701v-31h-15l-76 16l45 -61l-76 -16q0 -30 76 -30l16 -15v-31l-16 15h-15l-30 -30l30 -30l31 30l61 -15l-16 76h16l15 -15h15l15 15v30q-91 0 -91 31l46 15
v46h-31zM442 609v-45h30v45h-30zM701 625l30 -31l-15 -15h-15v46zM762 564h15v-31h-15v31zM152 381l-15 -15l15 -16v-30q0 -31 -45 -31v-30h45v-46l-15 -15v-15h15l46 30q31 0 31 -45l91 -31v76l-15 -15h-31l-45 46l61 15v30q-77 0 -77 31q61 0 61 46h-45q0 -46 -31 -46
q-23 61 -46 61z" />
    <glyph glyph-name="q" unicode="q" horiz-adv-x="1179" 
d="M549 1433h64q174 0 321 -128h-16l-16 16h-16l-16 -16l16 -16v-97q48 0 48 -32l96 32l16 -16v-16q0 -32 -48 -32l64 -176l-32 -97q45 0 64 -128h48v-32q-96 -10 -96 -48l32 -32v-49l-48 -80h64v-32q-48 0 -48 -32l32 -32l-16 -64l32 -65l-16 -16h-32v49l-96 -65l-48 16
l-16 -16v-16l32 -32l-16 -16v-16l-16 16h-33l-16 -80q32 0 65 -96h16l128 80l32 -96q-32 0 -32 -49h-32v33l16 16v16l-128 -32l16 -17v-16l-16 -64h16l48 16l-113 -96h-48q-64 32 -64 96q64 24 64 48q-72 0 -160 81l-64 -48l-16 64h-32q0 -40 -65 -48q0 42 -112 64l-32 -32
h-16q0 96 -64 96q-97 0 -97 32t48 32v32q-160 0 -160 434v32q0 208 64 208l-16 16v16q0 264 161 289q0 32 48 32l-32 49v16q128 144 289 144zM645 1305l16 -49h32l-16 49h-32zM725 1289v-16h32v16h-32zM982 1289l32 -65l-16 -16h-16l-32 32v16zM420 1256l-16 -16v-16l32 -32
h16l48 48l-16 16l-16 -16h-16l-16 16h-16zM613 1224v-16h32v16h-32zM468 1032l16 -16l16 16h16l33 -32l-49 -32l-48 32v-32h-32v64h-32q0 -54 -48 -113l32 -48l-48 -160v-32l16 -16v-16h-32v-16h16l64 16l-16 16v48h16l48 -48q0 -32 -48 -32v-33q58 0 80 -224l129 -64
l176 160l-32 32q0 32 64 32v16h-48l16 81l-16 16h-16l16 64q-37 321 -112 321l-48 -16l-16 80h-65q-24 0 -48 -64zM597 1080v-16h32v16h-32zM228 984v-16h32v16h-32zM1126 1000l16 -16v-16l-16 -16h-16l-16 16v16l16 16h16zM452 919h16l-16 -80l16 -16l-64 -32l-16 16
q38 112 64 112zM886 903l32 -32l16 16v16h-48zM1126 919l32 -32v-128h-32v80l-32 48zM1158 679l16 -16v-32l-32 -33l-16 17v32zM115 550q48 0 48 -64h49l-17 16v32h65v81h-81zM950 566v-32h16v32h-16zM372 518v-32h32v32h-32zM1094 518h32v-16h-32v16zM998 358v-16h32v16
h-32zM356 213v-16h32v16h-32zM693 181h32v32zM998 181l16 -16v-48l-32 -32h-80v32l16 -16h16q0 47 64 80zM661 149v-32h32zM741 5v-32h16v32h-16z" />
    <glyph glyph-name="r" unicode="r" horiz-adv-x="1054" 
d="M75 1433h412q335 -38 335 -137q61 0 61 -92q77 0 77 -167q-46 0 -46 -46v-15h15q0 45 31 45l30 -30v-15l-15 -16l15 -15v-15q0 -35 -76 -46v-15q61 -8 61 -46l-15 -15h-16l-45 30l-16 -15v-30q61 0 61 -31l-106 -198l15 -122q-61 -8 -61 -46v-15l76 15h15l-45 -61v-15h15
l15 15h15l16 -15v-15q-70 -30 -77 -61h16l76 15l30 -107l-15 -15l46 -46v-30l-61 -15l15 -16v-30h-46v61l-76 -46l-45 15l-31 -30h-76l-15 15l-16 -15h-15q-36 0 -76 244l107 46h30v-31h46l30 31q-76 0 -76 30v15h-61q0 -61 -30 -61h-46q-26 0 -76 214h-16q-23 -61 -45 -61
h-16q-30 0 -30 46h-31l16 -16v-15l-16 -15v-15l31 -31v-15l-31 -31h-15l15 -61h92v-15q0 -30 -76 -30l76 -77v-30h-31q0 30 -45 30l-46 46q0 -61 -46 -107l15 -61l-122 31l-61 -61l-30 30v1373zM441 1067q0 -78 -45 -122l45 -107q96 0 153 107l61 15l-137 107h-77zM335 1021
v-15h61v15h-61zM91 930q45 0 45 -46h46l61 46l-15 46l-15 -16h-16l-30 31zM868 945l15 -15v-15l46 15v15h-61zM822 762l31 -30l15 15v15h-46zM838 671v-15h30v15h-30zM746 351v-16h31v16h-31zM136 335q0 -45 -45 -45v-16l30 -91q118 87 122 122l-15 15h-15v-30h-46v30h30v15
h-61zM365 351l15 -16v-15l-15 -15h-15l-15 15v15l15 16h15zM609 244v-31h15l31 31h-46zM853 183q23 -61 46 -61l15 15l-15 46h-46zM899 91v-15h30v15h-30zM960 46h15v-31h-15v31z" />
    <glyph glyph-name="s" unicode="s" horiz-adv-x="872" 
d="M524 1433q246 -52 246 -123l-46 -31l-46 15l-46 -77l46 -31l46 31h16v-61l-124 -31l-15 15l-31 -31l-46 31l-77 -123l-31 62h-46l-31 -93q0 -31 77 -31l15 -15v-31l-15 -15v-16q168 0 324 -169v-62q0 -31 -47 -31q53 -108 77 -108l16 16h15v-16l-15 -61l31 -31
q-21 -51 -124 -92l-15 15h-15l-16 -15h-15l15 -16v-31l-31 -46l31 -46l-15 -16h-16l-15 16l-15 -46q-31 0 -31 77h-16l-77 -62l-61 15l15 -15v-31h-31v-15l16 -16v-15l-108 -46l-31 46l-200 -77v15l15 47l-31 30v47l16 92q-31 69 -31 200l15 16h16l169 -108h77
q108 0 108 108v15l-154 108v31h-15l-78 -15q-169 164 -169 292l31 31l-31 46v62q89 416 416 416h108zM401 1294l-47 -61l16 -16h61v47zM154 1279v-15l15 -16v-15h-46l46 -47h47l15 47zM462 1264v-62l31 31zM385 1186l16 -46l15 16h15l16 -16h15v46l-77 16v-16zM647 1109v-15
l-31 -31h-15v31zM693 1109h16v-30h-16v30zM755 1063l15 -15v-62l-30 -31l-16 16v31l16 15v15l-16 16l16 15h15zM462 586v-31h31v31h-31zM724 462v-31h31v31h-31zM324 139v-31h30v31h-30zM416 123h154v-15l-31 -31l-15 15v16l-16 -16h-30l-16 16l-15 -16h-31v31zM693 123
l16 -15v-16l-16 -15h-15l-15 15v16l15 15h15zM92 92l31 -30v30h-31z" />
    <glyph glyph-name="t" unicode="t" horiz-adv-x="902" 
d="M76 1433h739l31 -31l-46 -46l-15 15q0 -92 -62 -92q0 -23 62 -46q0 -47 61 -47h16v-46l-62 -61h-31v30h46v31q-61 0 -61 31l15 15h-15l-46 -46v-15q46 0 46 -31l-46 -15l-16 15h-31v-15h31v-16l-31 -31q-10 41 -77 77h-15v-77h31v-30h-31v-47h15l47 16q-62 -73 -78 -154
h16q46 15 46 92l16 -15h15l-15 -16v-15l15 -77q-46 0 -46 -46l-16 -16h-15q0 -77 62 -77v-61h-31v46h-31l-31 -170q0 -46 46 -46v-31h-31v-108l16 16h15l16 -16v-15l-47 -15q8 -143 47 -185l-16 -16h-15l-31 31h-15q0 -77 -47 -77q-30 0 -30 77h-93v-15l16 -16v-15l-93 -31
l-15 15v216l31 31l-31 123v462l15 93l-31 123l16 16h-31v15l-93 -31h-30q0 31 -47 31l-15 15v108l46 47q6 -42 77 -62l31 77l-15 15l-16 47h-15q-46 0 -46 -47l-16 -15h-15l-31 31v92zM322 1371v-30h16v30h-16zM384 1371q0 -41 -77 -77l-15 16h-16l-15 -16v-30q77 0 77 -31
l-46 -47v-15h46v46h15q31 0 31 -61h31v46l-31 46l15 16l16 -16h15l31 31l-62 15l16 77h-31zM553 1341l-15 -77l15 -16h16l-16 -15v-31h16q5 62 92 62q-15 55 -108 77zM168 1171q0 -46 -61 -46v-16h46q0 31 46 31zM60 1063h47l-31 -31h-16v31zM338 1002v-31q61 0 61 -46h47
v15l-31 62h-77zM292 955l30 -30l16 15v15h-46zM322 878h31v31zM384 909v-31h31zM600 740l31 -31l-16 -16h-15v47zM353 693v-46h31q0 -31 -77 -31v-30q62 0 62 -31l-31 -31v-31h15l46 31l62 -31v46l-15 47h46v30q-46 0 -46 62l-62 -31q0 46 -31 46zM569 524h46v-16l-31 -30
l-15 15v31zM338 339l31 -31v31h-31zM399 339v-31h16v31h-16zM307 293v-31h46v31h-46zM399 293v-31h77v31h-77zM338 247l-31 -62h31l31 31v31h-31zM399 231v-31h16v31h-16zM600 216h46v-16l-31 -31l-15 16v31zM615 46h31v-31h-31v31z" />
    <glyph glyph-name="u" unicode="u" horiz-adv-x="963" 
d="M762 1433q22 0 45 -61h31l-16 -76l16 -46l-61 -15v-31q45 0 45 -30v-46l-30 -46q0 -45 46 -45v-31l-16 15h-30l15 -15v-30l-15 -16l30 -76l-15 -15v-15q0 -122 92 -122l-16 15v15l16 15h15l15 -15v-61h-61l-15 16h-15l-16 -16v-106q46 0 46 -31l-61 -15v-31l61 -15
q23 61 46 61h15v-46q0 -30 -61 -30l-61 -122h-15v-15h46l-61 -153l15 -46l-15 -15h-31v46h-15l-91 -61l30 -31l-15 -15l-15 15h-46l-15 -15h-16l-30 31q0 -61 -31 -61q0 37 -152 91l-15 15h-16q20 -70 61 -76l16 15v-15l-31 -76l-15 15h-15l15 15v16q-46 40 -46 91h-15
l-15 -15h-16l-45 15l-16 -15v-15l31 -31h-15l-46 46l15 15q-55 0 -122 153l15 15v15l-30 214v335l30 46l-30 45v16l30 45l-30 31v198l30 31q31 0 31 -46l15 -15h61l46 61h30v30q-45 0 -45 76l-16 -15h-61v15l31 31h30l16 -15l15 15h30q77 -42 77 -137l-31 -92l31 -30v-61
l-46 -16l46 -76l-31 -76q20 -76 46 -76q0 61 30 61l31 -31v-15l-46 -46h-15l-46 31v-16q31 -35 31 -106q76 0 76 -31l-31 -30l-30 30h-15v-45l30 -31v31h31l15 -138h-15q21 -63 76 -91q91 0 91 91v77q77 0 77 30q-77 0 -77 46v152l31 92l-15 45l15 61l-31 122v16l92 76
l30 -31v16l-15 15v15l61 15v31l-61 15l15 15v61h-15q0 -45 -30 -45h-16l-45 76l15 15h168zM75 1418q46 -15 46 -92l-15 -15h-31l-30 31v45zM365 1342h31v-16h-31v16zM609 1296h46v-15q0 -35 -76 -46v30zM197 1204v-15h31v15h-31zM365 1204h31v-30zM380 1128h31v-15h-31v15z
M838 1098h15v-31h-15v31zM624 1037v-31l31 31h-31zM655 976v-16h30v16h-30zM914 991l15 -15v-16l-15 -15h-31v15zM365 976h31v-31h-31v31zM624 930v-46h31v15zM197 656l16 -16l-107 -15l76 -76q63 21 92 76q-46 0 -46 31l15 45zM701 701v-30h15v30h-15zM533 305v-31h46v31
h-46zM640 290v-16h61v31h-16zM380 290l-15 -16v-15l15 -15h16l15 15v15l-15 16h-16zM853 305h30l-30 -31v31zM228 76h46v-30h-16zM518 46h30v-31h-30v31z" />
    <glyph glyph-name="v" unicode="v" horiz-adv-x="986" 
d="M708 1448q247 -26 247 -77v-31q0 -123 -77 -123v-46l30 -46l-15 -62h15l47 31l15 -16v-31l-92 -61v-62h46v-15l-16 -16v-15l16 -15h-31l-15 15h-16v-15l31 -93h-15l-62 -15v-16h46v-30l-46 -47l31 -92l-16 -15v-16l16 -46h-46v-31l61 -15v-31h-31l16 -15v-31h-16l-46 31
q-61 -70 -61 -108h30v-31l-77 -77v-16l77 16v-31l-15 -15v-16h15l16 16h15l16 -16v-15l-154 -62v-31h-47l-61 47q-65 -62 -154 -62l-16 62l-46 -31l-31 200l31 31h-31v46l16 15v16q-93 0 -93 154l-15 62l77 15q0 31 -77 31q-62 133 -62 323h46l62 16l62 -16h30q0 31 -61 31
l-16 62l-15 -16h-15l-47 31v-15l16 -47l-16 -15h-77l-46 247l16 61l-62 154l15 16h324l31 -31l-16 -16h-15l46 -77v-15h-46l-16 15h-15l15 16v15l-30 31l-93 -31v-15l16 -16v-15l-62 -15v-16l62 -46l-16 -15v-47l46 31h16l15 -15h16v15l-16 16v15l16 15h77l31 -30v-16h-47
v-61l16 -93l-16 -46l31 -31l-15 -46h15l46 -46l-46 -47v-30q108 -37 108 -62l-15 -15l30 -31l-15 -16v-15l46 -31h16v93q0 158 46 231l-16 15q16 231 62 231l-15 46q10 216 61 216zM708 955v-31l31 -31h15l31 31v31h-77zM246 909v-16l31 -30v15zM184 878v-31l31 31h-31z
M508 847v-15l-31 -31l-31 31l16 15h46zM462 693v-31h31zM261 678v-31h31zM338 678v-46l31 30v16h-31zM739 647l46 -31h16v31l-31 31zM878 693h30v-31h-30v31zM338 570l62 -15l16 15v15l-16 16h-31zM554 601q0 -31 -77 -31v-46h62l46 61l-15 16h-16zM323 555v-31h15v31h-15z
M261 508v-15h31v46zM477 462v-31h31v31h-31zM785 246h31v-15h-31v15zM631 139v-16h46v16h-46z" />
    <glyph glyph-name="w" unicode="w" horiz-adv-x="1448" 
d="M122 1426q91 -5 91 -31l15 16h15l31 -31l-61 -76q-37 0 -76 -45h-15v-15l30 -76h106q8 61 46 61l-46 121l16 15h30l61 -167l30 -30v-30h-46l16 -61l-31 -91q31 0 31 -46l-46 -75q30 0 30 -46l91 15l46 -15v15l61 546v15l30 31h30l91 -15l46 15l15 -15l76 15h60l31 -31
v-30l-76 -91l15 -45h-30v-16l60 -91l-15 -45h15l16 -15l-16 -46h16q75 0 75 -121l-45 -46l15 -45h-45v-15l15 -15v-16q60 0 60 61h31l60 576l31 31q197 0 197 -46l-30 -30v-15h30l30 -46l-15 -76v-75h46v-16l-61 -106l30 -30v-15l-45 -61v-15h15l15 15h15l15 -15v-15
l-15 -15h-15l-15 15h-15l-31 -76v-15q61 0 61 -31q-45 -15 -45 -91v-45l75 15v-45l-30 -31l-30 31h-15v-61q60 0 60 -30v-16l-60 -15l-46 15v-15l-30 -30l15 -15v-15l-30 -46l45 -15l-15 -76l15 -15h15l15 15l16 -61l-46 -45l46 -15v-31l-46 -15l-15 15h-30q-31 0 -31 -75
h-15l-45 30l-31 -76l-15 15h-15l-15 -15h-15l-76 15l-91 -15l-46 212l15 16v15q-30 59 -45 288l30 30v15q-30 0 -30 76l-15 15h-15q0 -75 -46 -75l15 -16v-75q0 -31 -45 -31v-15l15 -15v-15h-61l76 -91v-31h-15q-23 0 -46 61l-15 15h-15l-15 -15v-61l15 -15v-15h-30l30 -136
q-36 0 -45 -107l-107 -15h-30l-76 15l-30 -30l-15 15l15 15v31h-15l-46 -31h-30v76l-15 61l15 45q-46 0 -46 213l16 60l-31 31l31 30l15 -45q72 0 106 75l-15 16l-15 45h-16l-45 -15l-15 15q0 -45 -31 -45q-50 0 -60 242l15 46l-30 30v15q0 31 45 31q-91 41 -91 455z
M820 1335l15 -15h15v45zM653 1289q0 -45 -46 -45l-15 -15v-16h61q0 31 45 31v30zM1275 1289v-15h30v15h-30zM895 1229l31 -31v-30h-31v61zM653 1183v-15l60 -15v30h-60zM395 1062h15l30 -31l-15 -15h-15l-15 15v31zM410 986h30v-30zM1381 956h30l-30 -31v31zM668 910v-15h30
v15h-30zM880 910v-45h15l31 30l-15 15h-31zM440 910v-15l-30 -30l-15 15v15l15 15h30zM668 865v-16l15 -15v-15l-15 -45l45 15v45l-30 31h-15zM1366 849h15v-15l-31 -30h-15v15zM425 774l15 -16v-15l-45 -45v-15q76 17 76 121h-15zM683 667v-15h30v15h-30zM425 652v-30h15
v30h-15zM365 607v-31l30 -45l-15 -61l30 -30h15q0 91 91 136l-30 31l-30 -31h-16l-45 31h-30zM622 576v-45h46v15l-30 30h-16zM956 546v-30h30zM380 334l30 -31v31h-30zM1108 303v-15h45v15h-45zM1259 303h31v-30h-31v30zM380 273v-15l15 -46l-15 -15h30v76h-30zM1093 197
v-30h45l-30 30h-15zM1214 76h30l31 -30l-16 -16l-45 16v30z" />
    <glyph glyph-name="x" unicode="x" horiz-adv-x="925" 
d="M604 1456q139 -15 139 -46l-30 -31v-16q61 0 61 -31v-15q0 -31 -46 -31v-16l31 -31l15 16l16 -16v-15l-47 -16v-31q41 0 78 -93l-78 -15v-47l16 -15v-16q-48 0 -93 -108v-16h47v-31h-31q-31 0 -31 47h-31v-16q0 -77 31 -77l46 15v-15l-15 -62l31 -77h-31q0 46 -31 46
q-62 -23 -62 -46l124 -93l-16 -47h16l46 -15l15 15l62 -170l-15 15h-31v-15l31 -124l-47 -16v-15q42 -62 78 -62v-62l-62 -62h-31l-93 15l-62 -15l-124 263h-15q0 -90 -62 -124l-47 31q0 -31 -46 -31v-31l15 16h47l-31 -31h-78q0 -78 -201 -78l-16 -15h-15l-31 31l263 712
l-170 465l62 62v16l-47 -31l-15 15l15 16v31h-15l-47 -16l-46 124l15 16h124l47 -31l93 15v-62h15l93 62l16 -15v-62q-109 0 -109 -93l16 -16h15l93 31l47 -31q37 0 77 186zM790 1425h15v-31h-15v31zM573 1286v-47l78 16v31h-78zM852 1286h15v-31h-15v31zM310 1224v-16h31
v16h-31zM666 1208l31 -31v31h-31zM387 1177l16 -93h31q0 81 -47 93zM728 1146v-62h31v62h-31zM558 960v-31h31v31h-31zM387 604v-31l31 31h-31zM713 449v-15l30 -31v46h-30zM372 403l-16 -16v-15l16 -16h15l16 16v15l-16 16h-15zM387 325v-46h31l16 46h-47zM836 341l78 -140
l-16 -15h-15l-47 31l16 15l-16 78v31zM325 294v-31l31 31h-31zM558 279v-31h31v31h-31zM372 248l-16 -16v-15l47 -47h15q-20 78 -46 78zM914 155h15v-31h-15v31zM372 62h31l-31 -31v31zM325 46h16l31 -31h-47v31z" />
    <glyph glyph-name="y" unicode="y" horiz-adv-x="1016" 
d="M263 1456l31 -46l-15 -47h46q5 62 62 62l16 -15v-16l-93 -93v-31q0 -129 108 -201h16v31h31l15 -47l-170 -139h15l78 15v-31q-47 0 -47 -77q146 55 155 108q0 31 -62 31v16l78 62l108 403q190 -16 217 -47l31 31h15l16 -15l15 15h16l31 -31q-62 0 -109 -46l-15 15h-16
v-15l31 -93q0 -93 -93 -93v-16l47 -62l-16 -15h31q0 62 31 62l31 -31l-62 -124l-15 15h-16l-62 -62v-46q47 0 47 -31t-62 -31l-15 -62h30l16 15h15v-31q0 -46 -61 -46l-47 16v-16l31 -46q-51 -16 -62 -62l16 -16h15l16 16h15l16 -16v-62h-31v31l-16 -15h-15l-16 15h-15
l15 -77q0 -31 -46 -31q44 -78 93 -78v-31h-16l-46 16v-31l15 -16v-15h-31v-31h31v31h31l31 -78v-124q0 -46 -155 -77l-77 31l-16 -16v-15l-15 15h-16l-77 -15l-16 15v47q0 99 171 155q-51 66 -124 93q0 -62 -31 -62l-16 15v171q0 139 -77 139v47q-42 356 -124 433
q-31 147 -124 341l31 31h186zM418 1255v-31l-77 -16v31zM759 1038v-31h46l-31 31h-15zM356 1022v-31h16v31h-16zM403 743v-15h31v15h-31zM666 465h31v-31h-31v31zM620 217l-16 -109v-46l16 15l15 -15h31v46l-31 47l16 62h-31zM325 201h31v-46h-31v46z" />
    <glyph glyph-name="z" unicode="z" horiz-adv-x="895" 
d="M261 1433h31v-15l184 15h370v-62l-15 -15l15 -15v-16q0 -31 -46 -31l15 -15v-15h-15l-46 15v-15l-16 15h-107l15 -77h15l77 15v-15q0 -31 -46 -31l-15 -15v-16l77 -77q-31 0 -31 -77h-46v31h-62l-31 -62v-30l31 -31l62 46h15q-46 -93 -92 -93v-15l31 -46v-16h-108
q0 -30 92 -46v-31h-31l-15 16h-16v-31q47 0 47 -31v-15q-50 -139 -93 -139q16 -92 46 -92h232l30 -31v-46l-30 -31l15 -108v-16q0 -30 -46 -30v-62h31v-31l-16 16h-31l-15 -16h-15l-16 46l-61 -92h-16l-15 15v16l46 15v16l-31 30l-77 -77v77h-31l-46 -30l-62 30
q-11 -77 -46 -77l-46 47q-119 -12 -170 -62h-61l-16 15h-15q86 373 200 601q0 148 93 293l15 93l-61 61l30 31h16v-31h31q-61 123 -93 123v-30l16 -47l-16 -15h-15l-47 31l-77 -16h-30v31l15 16v15q-62 0 -62 231zM384 1341l-31 -77l16 -16h77l15 77zM153 1325v-46h46v-15
l-15 -16v-15h15l31 31q-6 41 -77 61zM399 1217v-31l31 31h-31zM785 1186l15 -15v-15l-15 -16h-16l-15 16v15l15 15h16zM91 1109h16v-46l-31 -31l-16 16v31zM430 663v-31h62l-31 31h-31zM399 601v-31h31v31h-31zM461 555l-15 -16v-15l15 -16h15l16 16v15l-16 16h-15zM307 108
v-31h46l-31 31h-15z" />
    <glyph glyph-name="cent" unicode="&#xa2;" horiz-adv-x="500" 
d="M249 1366h73q29 0 44 -116q58 0 58 -29v-44l14 -174l-14 -15h-15l-87 15l-43 -15l14 -72v-29l-14 -15v-14l72 -29h15l72 14l15 -14v-160q-11 -44 -102 -73l15 -73v-58q0 -34 -102 -43l-58 232q-76 0 -131 204v101q0 120 145 306q0 101 29 101zM337 1119l-15 -14v-29h44
v14z" />
    <glyph glyph-name="Aring" unicode="&#xc5;" 
d="M507 1803h20q16 -8 16 -20h12q0 12 9 12l8 -12l-4 -4l4 -4l4 4h8v-17l-4 -16q16 -37 32 -44h8v12h4l8 -8q-2 -17 -12 -17v-20l-8 -12l4 -4h12v20h4l13 -12l-13 -12v-4q17 0 25 -16l-16 -29l4 -4l-4 -20v-24h4q0 12 8 12l4 -4v-4l-4 -4l-12 -4v-5l4 -4v-4l-4 -4v-4l4 -12
l-13 -8l-8 8h-4v-8h-4l-12 4l-4 -16h-24v-8q20 -3 20 -12v-5l-4 5h-4l-12 -13l3 -14h70l45 -30h75v-15l-15 -15v-15h30v-31l-45 -15l15 -15v-45l-15 -15l15 -75h30l46 30l15 -46l-15 -15v-15l30 -151h-30v61l-61 -30l-45 15v-15l91 -76v-15l-16 -45h46v45l30 -30v-60l-45 30
l-31 -45q0 -46 106 -46l15 -75h-15q-45 0 -45 -30l15 -46l-15 -90v-30h15l15 15l15 -15h30l-30 60l15 15v15l-30 76h15q45 0 60 -242l-15 -15l30 -30l-15 -15v-15l15 -15l-30 -30v-15q0 -31 46 -31l15 -15v-15l-31 -30h31v-30q-46 0 -46 -30l61 -15l-15 -61l15 -45h-151
l-60 15l-121 -30q-45 40 -76 226l-15 15h-15l-15 -15h-15l-45 15l-91 -15v30h-15l-30 -30v-15l15 15h30q0 -90 -60 -90v-15l30 -46v-30q0 -30 -196 -45l-60 30l-121 -15l-15 15v30q75 498 121 498l-15 45l15 15v16l-15 15v15q96 588 120 588l-15 15v15q0 166 166 166l15 -15
l38 5q-1 8 -21 16l-8 16v5l4 4v4q-36 30 -36 101v16q0 75 20 81l-8 8q0 31 37 45l12 16l-8 8v9q36 36 85 36zM468 950l30 -135l-61 -151l31 -76h105l-45 317v91h-15zM478 1694l-12 -13l-12 8h-4l8 -12l-8 -12l4 -4l-4 -4v-12l16 -4v4l-4 16h16v-20l-12 -12l-12 4v-4
q2 -21 12 -21v-16h-12q0 29 -20 29v-5l24 -52l4 4h4l4 -4v-8q7 0 12 -21l-4 -12h25l16 -4q10 0 36 37l4 -4l-4 32l4 12l-8 8v25l-4 24l4 12l-16 20l-24 9l-20 -5zM287 1312v-75h45v15l-30 60h-15zM528 332l-30 -45v-15q60 22 60 45l-15 15h-15zM875 91l-15 -46h15l30 30v16
h-30zM965 106v-31h31v31h-31zM558 1267v-30h30v30h-30zM347 332v-15h60v15h-60zM860 422h15l30 31v15zM784 588h31v30zM405 1588l4 -4v-4l-4 -20h8v8q13 0 13 8v16h-13l-4 -4h-4zM769 1101v-15h30v15h-30zM920 166h15l30 30h-15zM317 121v-30l30 30h-30zM724 799l30 -30v30
h-30zM543 1771l-4 -17l4 -4v-4l-4 -12l4 -4h4q0 12 12 12v8l-12 4l4 4v13h-8zM515 1750v-8q12 0 12 -16h4l4 12l-4 4v4l4 12h-4zM470 1758l-4 -20l4 -4h4l12 8q-6 16 -12 16h-4zM624 1487l8 -8l-20 -17v13zM580 1669v-4l12 -12q0 12 12 12l-8 8zM628 1637q0 -6 17 -12v12
h-17zM608 1746l8 -12h-4l-12 4l-4 -4v8zM600 1576v-8h8l8 8v4h-4zM645 1588h4l8 -8l-4 -4h-4l-4 4v8zM446 1560l4 -12h4v16l-4 -4h-4zM539 1495v-8h4l8 8h-12zM535 1483v-13l8 9l-4 4h-4zM523 1767v-5h8v5h-8zM616 1548v-9h8zM507 1495l8 -8v8h-8zM551 1466v-8h4v8h-4z
M422 1653v-8h4v8h-4zM466 1535h8v8zM535 1511v-8l8 8h-8z" />
    <glyph glyph-name="AE" unicode="&#xc6;" horiz-adv-x="1411" 
d="M377 1448l15 -15l106 15h151l45 -30h75v-15l-15 -15v-15h30v-31l-45 -15l15 -15v-45l-15 -15l15 -75h30l46 30l15 -46l-15 -15v-15l30 -151h-30v61l-61 -30l-45 15v-15l91 -76v-15l-16 -45h46v45l30 -30v-60l-45 30l-31 -45q0 -46 106 -46l15 -75h-15q-45 0 -45 -30
l15 -46l-15 -90v-30h15l15 15l15 -15h30l-30 60l15 15v15l-30 76h15q45 0 60 -242l-15 -15l30 -30l-15 -15v-15l15 -15l-30 -30v-15q0 -31 46 -31l15 -15v-15l-31 -30h31v-30q-46 0 -46 -30l61 -15l-15 -61l15 -45h-151l-60 15l-121 -30q-45 40 -76 226l-15 15h-15l-15 -15
h-15l-45 15l-91 -15v30h-15l-30 -30v-15l15 15h30q0 -90 -60 -90v-15l30 -46v-30q0 -30 -196 -45l-60 30l-121 -15l-15 15v30q75 498 121 498l-15 45l15 15v16l-15 15v15q96 588 120 588l-15 15v15q0 166 166 166zM287 1312v-75h45v15l-30 60h-15zM558 1267v-30h30v30h-30z
M769 1101v-15h30v15h-30zM468 950l30 -135l-61 -151l31 -76h105l-45 317v91h-15zM724 799l30 -30v30h-30zM784 588h31v30zM860 422h15l30 31v15zM347 332v-15h60v15h-60zM528 332l-30 -45v-15q60 22 60 45l-15 15h-15zM920 166h15l30 30h-15zM317 121v-30l30 30h-30z
M965 106v-31h31v31h-31zM875 91l-15 -46h15l30 30v16h-30zM713 1433h610l46 -46v-30l-31 -46l15 -46l-30 -30l30 -46l-76 -15l76 -92v-15h-30l-46 31h-15q0 -46 -31 -46l-45 46l-16 -16h-15l-45 16q-43 -77 -122 -77l30 -30l46 15v-76q0 -31 152 -46v-15l107 30l15 -15v-107
l-30 -121l-77 45l-15 -15v-15l15 -61l-76 15l-30 -30h-15v45h-16l-61 -15l-45 15l-31 -45h15l16 15h15l15 -15v-16q-30 0 -46 -106q61 0 61 -46l31 -92l91 31h31l45 -46q0 -30 -45 -30v-16l76 -30h15v15h-30v31h15l46 -16l-16 16v30l31 31l30 -31l-15 -15v-15l15 -61
q0 -31 -45 -31v-46h30v-45h-15l-15 15h-16q0 -31 -91 -46v-15q61 -8 61 -46l-15 -15l-16 15h-45l-16 -15h-15l-15 15v15l46 16l-31 30l-61 -46h-15l-61 46l-30 -30l-31 30l-15 -15l-15 15h-16l-45 -30l-46 15l-31 -31h-15v31h-15v-31l15 -15h-61l-30 31v1357zM1292 1311v-30
h16v30h-16zM1186 1250v-30h15v30h-15zM1003 1143l-15 -61v-15h15l30 61l-15 15h-15zM728 1052v-15l46 -46v30l-30 31h-16zM805 1006v-30h30l15 61h-15zM774 960l31 -30h15v30h-46zM972 945v-30h16v30h-16zM1003 945v-30h15v30h-15zM759 899v-15l76 -30v45h-76zM728 869v-31
l31 31h-31zM1308 610l30 -31v-30h-61v30zM1110 564h30v-15h-30v15zM957 381l61 -46v77h-30zM759 290l30 -31h61v31h-91zM972 290v-16h31v16h-31zM1049 290v-16h30v16h-30z" />
    <glyph glyph-name="Oslash" unicode="&#xd8;" horiz-adv-x="1187" 
d="M706 1296v-15h15l31 30v15h-15zM993 1254l-41 -83h28l40 83h-27zM737 152h30v31zM691 198v-30h15v30h-15zM615 213v-45l30 30l-15 15h-15zM660 229l92 15v30h-46zM569 274v-15h61v15h-61zM676 335v-30l30 30h-30zM615 335v-30h15v30h-15zM417 442h30v31zM203 656l-30 -61
l30 -31h92v31l-31 30l-15 -15h-15l-16 46h-15zM310 762v-76h15l31 31v45h-46zM706 1235v-15h31v15h-31zM417 1235v-31h30l31 31l-31 30zM630 1311l15 -15v-46h-45v-30q45 0 45 -31l-15 -15v-15l15 -16h15q0 46 31 46l30 -30v45q-61 0 -61 31l16 15v15l-16 46h-30zM767 1326
v-15h31v15h-31zM462 915v-46l-30 30l15 16h15zM965 305h61l-15 -76h-30zM462 261q-1 -2 -3 -5l3 3v2zM417 274h-7q1 -5 2 -11zM835 1350q89 151 98 151h250l-12 -82l-197 -289l-6 -41l-2 -4l15 -18h15q0 46 30 46l16 -15l-16 -16v-15l16 -46h-46v-30h61v-31q-61 -7 -61 -45
l46 -77l-16 -15v-15l16 -15h15l-15 -15v-31h45q0 46 31 46l15 -15v-16q-9 -45 -107 -45q0 -31 46 -31l15 -15v-15h-76l61 -92l61 46h15v-15q0 -40 -106 -61l-16 15l-15 -15v-16l31 -30l-16 -15l-15 15h-30v-31l45 -15l-15 -15v-31h15l61 46l16 -15v-15q0 -27 -138 -77
l-15 16q-49 -77 -122 -77v-30l76 -31v-30l-15 15h-30v-30l-16 -16l16 -15h15q0 -39 -137 -61v-15h30v-31h-15q-41 0 -46 77q-61 -23 -61 -46l15 -46l-15 -15h-15q0 28 -107 91v-61h-30l-15 16h-16l-15 -16v31h-15l-46 -31l-36 21l-18 -36l-34 -41h-69l6 41h-14l-68 -83h-83
l6 42h-14l117 212q-4 6 -6 12l15 15q-92 140 -92 183q-30 55 -45 290q15 290 76 290l-15 15v15q0 134 152 229l-15 15v15q95 168 320 168h76l76 -61h16l45 31zM877 945l-18 -22v-8l61 -16l15 46h-58zM737 724l-6 -7l6 42v41h-8l-74 -124q36 0 -86 -289q-7 0 -16 -6l92 -15
q86 137 137 137l-15 15v61h46v16q-61 0 -61 30l30 46l-45 46v7zM645 1020q-29 13 -61 17q-56 0 -106 -107h-31v76l-15 -15h-15l-16 15h-15v-107l15 -61l-15 -45h15l-15 -15v-31h61v-30h-61v-16l15 -15v-15l-15 -15l-15 15h-31l31 -46l-46 -46v-15l46 31l13 -40zM466 395
l11 31l-15 -14v-16zM478 428l68 83q-41 0 39 165l-133 -147l26 -26v-75zM859 46h30v-16h-30v16z" />
    <glyph glyph-name="aring" unicode="&#xe5;" 
d="M507 1803h20q16 -8 16 -20h12q0 12 9 12l8 -12l-4 -4l4 -4l4 4h8v-17l-4 -16q16 -37 32 -44h8v12h4l8 -8q-2 -17 -12 -17v-20l-8 -12l4 -4h12v20h4l13 -12l-13 -12v-4q17 0 25 -16l-16 -29l4 -4l-4 -20v-24h4q0 12 8 12l4 -4v-4l-4 -4l-12 -4v-5l4 -4v-4l-4 -4v-4l4 -12
l-13 -8l-8 8h-4v-8h-4l-12 4l-4 -16h-24v-8q20 -3 20 -12v-5l-4 5h-4l-12 -13l3 -14h70l45 -30h75v-15l-15 -15v-15h30v-31l-45 -15l15 -15v-45l-15 -15l15 -75h30l46 30l15 -46l-15 -15v-15l30 -151h-30v61l-61 -30l-45 15v-15l91 -76v-15l-16 -45h46v45l30 -30v-60l-45 30
l-31 -45q0 -46 106 -46l15 -75h-15q-45 0 -45 -30l15 -46l-15 -90v-30h15l15 15l15 -15h30l-30 60l15 15v15l-30 76h15q45 0 60 -242l-15 -15l30 -30l-15 -15v-15l15 -15l-30 -30v-15q0 -31 46 -31l15 -15v-15l-31 -30h31v-30q-46 0 -46 -30l61 -15l-15 -61l15 -45h-151
l-60 15l-121 -30q-45 40 -76 226l-15 15h-15l-15 -15h-15l-45 15l-91 -15v30h-15l-30 -30v-15l15 15h30q0 -90 -60 -90v-15l30 -46v-30q0 -30 -196 -45l-60 30l-121 -15l-15 15v30q75 498 121 498l-15 45l15 15v16l-15 15v15q96 588 120 588l-15 15v15q0 166 166 166l15 -15
l38 5q-1 8 -21 16l-8 16v5l4 4v4q-36 30 -36 101v16q0 75 20 81l-8 8q0 31 37 45l12 16l-8 8v9q36 36 85 36zM468 950l30 -135l-61 -151l31 -76h105l-45 317v91h-15zM478 1694l-12 -13l-12 8h-4l8 -12l-8 -12l4 -4l-4 -4v-12l16 -4v4l-4 16h16v-20l-12 -12l-12 4v-4
q2 -21 12 -21v-16h-12q0 29 -20 29v-5l24 -52l4 4h4l4 -4v-8q7 0 12 -21l-4 -12h25l16 -4q10 0 36 37l4 -4l-4 32l4 12l-8 8v25l-4 24l4 12l-16 20l-24 9l-20 -5zM287 1312v-75h45v15l-30 60h-15zM528 332l-30 -45v-15q60 22 60 45l-15 15h-15zM875 91l-15 -46h15l30 30v16
h-30zM965 106v-31h31v31h-31zM558 1267v-30h30v30h-30zM347 332v-15h60v15h-60zM860 422h15l30 31v15zM784 588h31v30zM405 1588l4 -4v-4l-4 -20h8v8q13 0 13 8v16h-13l-4 -4h-4zM769 1101v-15h30v15h-30zM920 166h15l30 30h-15zM317 121v-30l30 30h-30zM724 799l30 -30v30
h-30zM543 1771l-4 -17l4 -4v-4l-4 -12l4 -4h4q0 12 12 12v8l-12 4l4 4v13h-8zM515 1750v-8q12 0 12 -16h4l4 12l-4 4v4l4 12h-4zM470 1758l-4 -20l4 -4h4l12 8q-6 16 -12 16h-4zM624 1487l8 -8l-20 -17v13zM580 1669v-4l12 -12q0 12 12 12l-8 8zM628 1637q0 -6 17 -12v12
h-17zM608 1746l8 -12h-4l-12 4l-4 -4v8zM600 1576v-8h8l8 8v4h-4zM645 1588h4l8 -8l-4 -4h-4l-4 4v8zM446 1560l4 -12h4v16l-4 -4h-4zM539 1495v-8h4l8 8h-12zM535 1483v-13l8 9l-4 4h-4zM523 1767v-5h8v5h-8zM616 1548v-9h8zM507 1495l8 -8v8h-8zM551 1466v-8h4v8h-4z
M422 1653v-8h4v8h-4zM466 1535h8v8zM535 1511v-8l8 8h-8z" />
    <glyph glyph-name="ae" unicode="&#xe6;" horiz-adv-x="1411" 
d="M377 1448l15 -15l106 15h151l45 -30h75v-15l-15 -15v-15h30v-31l-45 -15l15 -15v-45l-15 -15l15 -75h30l46 30l15 -46l-15 -15v-15l30 -151h-30v61l-61 -30l-45 15v-15l91 -76v-15l-16 -45h46v45l30 -30v-60l-45 30l-31 -45q0 -46 106 -46l15 -75h-15q-45 0 -45 -30
l15 -46l-15 -90v-30h15l15 15l15 -15h30l-30 60l15 15v15l-30 76h15q45 0 60 -242l-15 -15l30 -30l-15 -15v-15l15 -15l-30 -30v-15q0 -31 46 -31l15 -15v-15l-31 -30h31v-30q-46 0 -46 -30l61 -15l-15 -61l15 -45h-151l-60 15l-121 -30q-45 40 -76 226l-15 15h-15l-15 -15
h-15l-45 15l-91 -15v30h-15l-30 -30v-15l15 15h30q0 -90 -60 -90v-15l30 -46v-30q0 -30 -196 -45l-60 30l-121 -15l-15 15v30q75 498 121 498l-15 45l15 15v16l-15 15v15q96 588 120 588l-15 15v15q0 166 166 166zM287 1312v-75h45v15l-30 60h-15zM558 1267v-30h30v30h-30z
M769 1101v-15h30v15h-30zM468 950l30 -135l-61 -151l31 -76h105l-45 317v91h-15zM724 799l30 -30v30h-30zM784 588h31v30zM860 422h15l30 31v15zM347 332v-15h60v15h-60zM528 332l-30 -45v-15q60 22 60 45l-15 15h-15zM920 166h15l30 30h-15zM317 121v-30l30 30h-30z
M965 106v-31h31v31h-31zM875 91l-15 -46h15l30 30v16h-30zM713 1433h610l46 -46v-30l-31 -46l15 -46l-30 -30l30 -46l-76 -15l76 -92v-15h-30l-46 31h-15q0 -46 -31 -46l-45 46l-16 -16h-15l-45 16q-43 -77 -122 -77l30 -30l46 15v-76q0 -31 152 -46v-15l107 30l15 -15v-107
l-30 -121l-77 45l-15 -15v-15l15 -61l-76 15l-30 -30h-15v45h-16l-61 -15l-45 15l-31 -45h15l16 15h15l15 -15v-16q-30 0 -46 -106q61 0 61 -46l31 -92l91 31h31l45 -46q0 -30 -45 -30v-16l76 -30h15v15h-30v31h15l46 -16l-16 16v30l31 31l30 -31l-15 -15v-15l15 -61
q0 -31 -45 -31v-46h30v-45h-15l-15 15h-16q0 -31 -91 -46v-15q61 -8 61 -46l-15 -15l-16 15h-45l-16 -15h-15l-15 15v15l46 16l-31 30l-61 -46h-15l-61 46l-30 -30l-31 30l-15 -15l-15 15h-16l-45 -30l-46 15l-31 -31h-15v31h-15v-31l15 -15h-61l-30 31v1357zM1292 1311v-30
h16v30h-16zM1186 1250v-30h15v30h-15zM1003 1143l-15 -61v-15h15l30 61l-15 15h-15zM728 1052v-15l46 -46v30l-30 31h-16zM805 1006v-30h30l15 61h-15zM774 960l31 -30h15v30h-46zM972 945v-30h16v30h-16zM1003 945v-30h15v30h-15zM759 899v-15l76 -30v45h-76zM728 869v-31
l31 31h-31zM1308 610l30 -31v-30h-61v30zM1110 564h30v-15h-30v15zM957 381l61 -46v77h-30zM759 290l30 -31h61v31h-91zM972 290v-16h31v16h-31zM1049 290v-16h30v16h-30z" />
    <glyph glyph-name="oslash" unicode="&#xf8;" horiz-adv-x="1187" 
d="M706 1296v-15h15l31 30v15h-15zM993 1254l-41 -83h28l40 83h-27zM737 152h30v31zM691 198v-30h15v30h-15zM615 213v-45l30 30l-15 15h-15zM660 229l92 15v30h-46zM569 274v-15h61v15h-61zM676 335v-30l30 30h-30zM615 335v-30h15v30h-15zM417 442h30v31zM203 656l-30 -61
l30 -31h92v31l-31 30l-15 -15h-15l-16 46h-15zM310 762v-76h15l31 31v45h-46zM706 1235v-15h31v15h-31zM417 1235v-31h30l31 31l-31 30zM630 1311l15 -15v-46h-45v-30q45 0 45 -31l-15 -15v-15l15 -16h15q0 46 31 46l30 -30v45q-61 0 -61 31l16 15v15l-16 46h-30zM767 1326
v-15h31v15h-31zM462 915v-46l-30 30l15 16h15zM965 305h61l-15 -76h-30zM462 261q-1 -2 -3 -5l3 3v2zM417 274h-7q1 -5 2 -11zM835 1350q89 151 98 151h250l-12 -82l-197 -289l-6 -41l-2 -4l15 -18h15q0 46 30 46l16 -15l-16 -16v-15l16 -46h-46v-30h61v-31q-61 -7 -61 -45
l46 -77l-16 -15v-15l16 -15h15l-15 -15v-31h45q0 46 31 46l15 -15v-16q-9 -45 -107 -45q0 -31 46 -31l15 -15v-15h-76l61 -92l61 46h15v-15q0 -40 -106 -61l-16 15l-15 -15v-16l31 -30l-16 -15l-15 15h-30v-31l45 -15l-15 -15v-31h15l61 46l16 -15v-15q0 -27 -138 -77
l-15 16q-49 -77 -122 -77v-30l76 -31v-30l-15 15h-30v-30l-16 -16l16 -15h15q0 -39 -137 -61v-15h30v-31h-15q-41 0 -46 77q-61 -23 -61 -46l15 -46l-15 -15h-15q0 28 -107 91v-61h-30l-15 16h-16l-15 -16v31h-15l-46 -31l-36 21l-18 -36l-34 -41h-69l6 41h-14l-68 -83h-83
l6 42h-14l117 212q-4 6 -6 12l15 15q-92 140 -92 183q-30 55 -45 290q15 290 76 290l-15 15v15q0 134 152 229l-15 15v15q95 168 320 168h76l76 -61h16l45 31zM877 945l-18 -22v-8l61 -16l15 46h-58zM737 724l-6 -7l6 42v41h-8l-74 -124q36 0 -86 -289q-7 0 -16 -6l92 -15
q86 137 137 137l-15 15v61h46v16q-61 0 -61 30l30 46l-45 46v7zM645 1020q-29 13 -61 17q-56 0 -106 -107h-31v76l-15 -15h-15l-16 15h-15v-107l15 -61l-15 -45h15l-15 -15v-31h61v-30h-61v-16l15 -15v-15l-15 -15l-15 15h-31l31 -46l-46 -46v-15l46 31l13 -40zM466 395
l11 31l-15 -14v-16zM478 428l68 83q-41 0 39 165l-133 -147l26 -26v-75zM859 46h30v-16h-30v16z" />
    <glyph glyph-name="ring" unicode="&#x2da;" horiz-adv-x="1161" 
d="M595 1827h20q16 -8 16 -20h13q0 12 8 12l8 -12l-4 -4l4 -4l4 4h8v-17l-4 -16q16 -37 32 -44h8v12h4l9 -8q-2 -17 -13 -17v-20l-8 -12l4 -4h13v20h4l12 -12l-12 -12v-4q16 0 24 -16l-16 -29l4 -4l-4 -20v-24h4q0 12 8 12l4 -4v-4l-4 -4l-12 -4v-5l4 -4v-4l-4 -4v-4l4 -12
l-12 -8l-9 8h-4v-8h-4l-12 4l-4 -16h-24v-8q20 -3 20 -12v-5l-4 5h-4l-12 -13l4 -16l-4 -4h-4l-16 4l-5 -12l-16 12l-8 -8v-28h-4l-8 8q0 9 -16 24h-8v-4l8 -12v-12h-16v8h8l-8 8l-13 -4l4 4v8h-4l-16 -12q-8 0 -8 12h-4l-4 -4h-4l-4 4q0 8 -20 16l-9 16v5l4 4v4
q-36 30 -36 101v16q0 75 20 81l-8 8q0 31 37 45l12 16l-8 8v9q36 36 85 36zM631 1795l-4 -17l4 -4v-4l-4 -12l4 -4h4q0 12 13 12v8l-13 4l4 4v13h-8zM611 1791v-5h8v5h-8zM558 1782l-4 -20l4 -4h4l13 8q-6 16 -13 16h-4zM603 1774v-8q12 0 12 -16h4l4 12l-4 4v4l4 12h-4z
M696 1770l8 -12h-4l-12 4l-4 -4v8zM566 1718l-12 -13l-12 8h-4l8 -12l-8 -12l4 -4l-4 -4v-12l16 -4v4l-4 16h16v-20l-12 -12l-12 4v-4q2 -21 12 -21v-16h-12q0 29 -20 29v-5l24 -52l4 4h4l4 -4v-8q7 0 13 -21l-5 -12h25l16 -4q10 0 37 37l4 -4l-4 32l4 12l-9 8v25l-4 24
l4 12l-16 20l-24 9l-20 -5zM668 1693v-4l12 -12q0 12 12 12l-8 8zM510 1677v-8h4v8h-4zM717 1661q0 -6 16 -12v12h-16zM493 1612l5 -4v-4l-5 -20h9v8q12 0 12 8v16h-12l-4 -4h-5zM733 1612h4l8 -8l-4 -4h-4l-4 4v8zM688 1600v-8h8l8 8v4h-4zM534 1584l4 -12h4v16l-4 -4h-4z
M704 1572v-9h8zM554 1559h8v8zM623 1535v-8l8 8h-8zM595 1519l8 -8v8h-8zM627 1519v-8h4l8 8h-12zM623 1507v-13l8 9l-4 4h-4zM712 1511l9 -8l-21 -17v13zM639 1490v-8h5v8h-5zM639 1454h9v-12h-9v12z" />
    <glyph glyph-name="uni043E" unicode="&#x43e;" horiz-adv-x="1187" 
d="M569 1433h77l76 -61h15l46 31l76 -77v-30l-15 -61l137 -168h15q0 46 31 46l15 -15l-15 -16v-15l15 -46h-46v-30h61v-31q-61 -7 -61 -45l46 -77l-15 -15v-15l15 -15h15l-15 -15v-31h46q0 46 30 46l15 -15v-16q-9 -45 -106 -45q0 -31 45 -31l16 -15v-15h-77l61 -92l61 46
h16v-15q0 -40 -107 -61l-15 15l-16 -15v-16l31 -30l-15 -15l-16 15h-30v-31l46 -15l-16 -15v-31h16l61 46l15 -15v-15q0 -27 -137 -77l-16 16q-49 -77 -121 -77v-30l76 -31v-30l-16 15h-30v-30l-15 -16l15 -15h15q0 -39 -137 -61v-15h31v-31h-16q-41 0 -45 77
q-61 -23 -61 -46l15 -46l-15 -15h-16q0 28 -106 91v-61h-31l-15 16h-15l-16 -16v31h-15l-46 -31q-186 105 -213 168l15 15q-91 140 -91 183q-31 55 -46 290q15 290 76 290l-15 15v15q0 134 152 229l-15 15v15q95 168 320 168zM707 1296v-15h15l30 30v15h-15zM768 1326v-15
h30v15h-30zM630 1311l16 -15v-46h-46v-30q46 0 46 -31l-16 -15v-15l16 -16h15q0 46 30 46l31 -30v45q-61 0 -61 31l15 15v15l-15 46h-31zM417 1235v-31h30l31 31l-31 30zM707 1235v-15h30v15h-30zM478 930h-31v76l-15 -15h-15l-15 15h-16v-107l16 -61l-16 -45h16l-16 -15
v-31h61v-30h-61v-16l16 -15v-15l-16 -15l-15 15h-30l30 -46l-46 -46v-15l46 31l15 -46l16 15h15l61 -61v-76l-15 -15v-16l183 -30q85 137 137 137l-15 15v61h45v16q-61 0 -61 30l31 46l-46 46v91l-15 91l15 46q-66 81 -152 92q-57 0 -107 -107zM859 945v-30l61 -16l15 46
h-76zM463 915v-46l-31 30l15 16h16zM310 762v-76h15l31 31v45h-46zM203 656l-30 -61l30 -31h92v31l-31 30l-15 -15h-15l-15 46h-16zM417 442h30v31zM615 335v-30h15v30h-15zM676 335v-30l31 30h-31zM966 305h61l-16 -76h-30zM402 274l15 -45h15l31 30v15h-61zM569 274v-15
h61v15h-61zM661 229l91 15v30h-45zM249 213v-15h31v15h-31zM615 213v-45l31 30l-16 15h-15zM691 198v-30h16v30h-16zM737 152h31v31zM859 46h30v-16h-30v16z" />
    <glyph glyph-name="uni0454" unicode="&#x454;" horiz-adv-x="864" 
d="M455 1425h147q177 -42 177 -88l-15 -132l15 -44h-30l-14 14h-15l-15 -59h-15l-14 15h-15q0 -29 -44 -29l15 -15v-15l-15 -14h-15l-14 44h-59q0 -74 -44 -74l-59 15q0 -29 44 -29v-15l-29 -29q-37 0 -44 58h-44q0 -44 -30 -44l-14 15l-30 -44h15l88 15l29 -30
q0 -24 -2 -44l9 -2l70 13h181l41 -41q0 -28 -41 -28l28 -42v-42l-14 -13v-14l27 -28l-41 -14l28 -42v-42l-14 -13v-14l-98 14h-41q0 55 -42 55h-14v-55l-28 27l14 14h-42q-28 0 -28 -41h-22q9 -130 191 -191q83 0 191 117h15l14 -59l-29 -88l15 -14v-15l-30 -44l30 -44
q-15 -74 -59 -74v-14q0 -30 44 -30v-44h-88v30l-74 -30l15 -73l-15 -15h-14l-15 15l15 14v30l-74 14h-15v-44h-14q-89 74 -132 74q0 -34 -74 -44q-155 151 -191 235v15l15 14v15q-103 0 -103 352q0 460 279 676q101 59 176 59zM749 1116l30 -29v-103h-15q-103 51 -103 74v29
l74 -15h14v44zM544 44l14 -15v-14l-14 -15h-15l-15 15v14l15 15h15zM335 907h32v19h-58v-30l9 -5zM544 1175v-44h29v44h-29zM585 629v-14h28l14 42h-14zM617 1175v-29l29 29h-29zM309 705v-29h10l8 11z" />
    <glyph glyph-name="uni044D" unicode="&#x44d;" horiz-adv-x="864" 
d="M466 687l8 -11h10v29zM147 1175l29 -29v29h-29zM180 657h-14l14 -42h28v14zM220 1175v-44h29v44h-29zM475 891l9 5v30h-58v-19h32zM264 44l15 -15v-14l-15 -15h-15l-14 15v14l14 15h15zM44 1072h14l74 15v-29q0 -23 -103 -74h-15v103l30 29v-44zM338 1425q75 0 176 -59
q279 -216 279 -676q0 -352 -103 -352v-15l15 -14v-15q-36 -84 -191 -235q-74 10 -74 44q-43 0 -132 -74h-14v44h-15l-74 -14v-30l15 -14l-15 -15h-14l-15 15l15 73l-74 30v-30h-88v44q44 0 44 30v14q-44 0 -59 74l30 44l-30 44v15l15 14l-29 88l14 59h15q108 -117 191 -117
q182 61 191 191h-22q0 41 -28 41h-42l14 -14l-28 -27v55h-14q-42 0 -42 -55h-41l-98 -14v14l-14 13v42l28 42l-41 14l27 28v14l-14 13v42l28 42q-41 0 -41 28l41 41h181l70 -13l9 2q-2 20 -2 44l29 30l88 -15h15l-30 44l-14 -15q-30 0 -30 44h-44q-7 -58 -44 -58l-29 29v15
q44 0 44 29l-59 -15q-44 0 -44 74h-59l-14 -44h-15l-15 14v15l15 15q-44 0 -44 29h-15l-14 -15h-15l-15 59h-15l-14 -14h-30l15 44l-15 132q0 46 177 88h147v0z" />
    <glyph glyph-name="uni0442" unicode="&#x442;" horiz-adv-x="902" 
d="M76 1433h739l31 -31l-46 -46l-15 15q0 -92 -62 -92q0 -23 62 -46q0 -47 61 -47h16v-46l-62 -61h-31v30h46v31q-61 0 -61 31l15 15h-15l-46 -46v-15q46 0 46 -31l-46 -15l-16 15h-31v-15h31v-16l-31 -31q-10 41 -77 77h-15v-77h31v-30h-31v-47h15l47 16q-62 -73 -78 -154
h16q46 15 46 92l16 -15h15l-15 -16v-15l15 -77q-46 0 -46 -46l-16 -16h-15q0 -77 62 -77v-61h-31v46h-31l-31 -170q0 -46 46 -46v-31h-31v-108l16 16h15l16 -16v-15l-47 -15q8 -143 47 -185l-16 -16h-15l-31 31h-15q0 -77 -47 -77q-30 0 -30 77h-93v-15l16 -16v-15l-93 -31
l-15 15v216l31 31l-31 123v462l15 93l-31 123l16 16h-31v15l-93 -31h-30q0 31 -47 31l-15 15v108l46 47q6 -42 77 -62l31 77l-15 15l-16 47h-15q-46 0 -46 -47l-16 -15h-15l-31 31v92zM322 1371v-30h16v30h-16zM384 1371q0 -41 -77 -77l-15 16h-16l-15 -16v-30q77 0 77 -31
l-46 -47v-15h46v46h15q31 0 31 -61h31v46l-31 46l15 16l16 -16h15l31 31l-62 15l16 77h-31zM553 1341l-15 -77l15 -16h16l-16 -15v-31h16q5 62 92 62q-15 55 -108 77zM168 1171q0 -46 -61 -46v-16h46q0 31 46 31zM60 1063h47l-31 -31h-16v31zM338 1002v-31q61 0 61 -46h47
v15l-31 62h-77zM292 955l30 -30l16 15v15h-46zM322 878h31v31zM384 909v-31h31zM600 740l31 -31l-16 -16h-15v47zM353 693v-46h31q0 -31 -77 -31v-30q62 0 62 -31l-31 -31v-31h15l46 31l62 -31v46l-15 47h46v30q-46 0 -46 62l-62 -31q0 46 -31 46zM569 524h46v-16l-31 -30
l-15 15v31zM338 339l31 -31v31h-31zM399 339v-31h16v31h-16zM307 293v-31h46v31h-46zM399 293v-31h77v31h-77zM338 247l-31 -62h31l31 31v31h-31zM399 231v-31h16v31h-16zM600 216h46v-16l-31 -31l-15 16v31zM615 46h31v-31h-31v31z" />
    <glyph glyph-name="uni043C" unicode="&#x43c;" horiz-adv-x="1361" 
d="M80 1451h123l217 -15l46 15q108 -15 108 -46v-15q-46 0 -46 -31q67 0 92 -201h-46v31h-31q0 -93 62 -93v-15l-62 -62l15 -15l-15 -78v-46h15l16 15h15l-15 16v46l15 16v15q29 0 78 -93v-15l-47 -62h16l15 16h16l15 -47h15q51 402 93 464l-15 15v15q19 155 61 155h108
q356 0 356 -46q-62 0 -62 -93q-62 -8 -62 -46l46 -47v-15l-46 31l-15 -16v-15q138 -76 139 -108l-16 -16h-31l-46 31l-16 -92q56 -78 93 -78v-15l-15 -16v-15q31 0 46 -93l-15 -15h-16l-46 123h-31v-15l15 -77q-56 -77 -92 -77v-31l77 -16v62h15l31 -31v-31l-46 -46l46 -77
l-15 -47h31v31h31v-15l-31 -62l15 -46h-15l-16 15h-15l-47 -15v-16q0 -123 62 -123l-15 -77l15 -16q-67 0 -92 -77h-47l16 -15v-31l-31 -31l-46 31q0 -62 -31 -62h-47l-46 31l15 463v201q-30 0 -30 -124q-26 0 -47 -123l-77 -31v-16q0 -30 62 -30v-31q0 -119 -62 -139
l16 -16v-15l-31 -46l31 -47l-16 -15v-16l16 -15l-16 -16h-15l-78 47l-30 -31q-31 0 -31 46l-31 -31l15 -15l-15 -16h-47q-41 0 -61 217l46 46q-77 0 -77 278q-20 0 -31 92q-62 0 -62 47l16 46q-31 0 -31 46h-16q0 -61 -31 -61l109 -155q0 -31 -47 -31v-15q47 -57 47 -108
h-16l16 -16v-15l-62 -62l-47 16l-30 -47l30 -46l-15 -77l77 -62v-15h-15l-47 15l-77 -93l-46 31h-31l-62 -46h-15l-31 31v509l15 62l-15 62v463q0 25 139 108l-15 77l15 16l-15 15l-16 -15h-31l-77 92zM1083 1359v-16h31v16h-31zM1099 1281h31v31zM358 1251v-31h15l31 31
h-46zM1006 1204v-15h31v15h-31zM327 1096v-31h31v31h-31zM311 1019l-46 -139l77 -31h16l31 62v31h-31v31h31v15l-31 31h-47zM1037 988v-31h-15l15 -46l16 15h92v31q-72 0 -108 31zM1269 988h31v-15h-31v15zM806 957v-31h30l31 31h-61zM883 818l61 -15v15l-30 31zM342 834
v-31h16v31h-16zM373 834v-31h16v31h-16zM281 803v-31h15v31h-15zM883 741l31 -31h30v31h-61zM404 726l31 -31v31h-31zM296 664v-16h31v16h-31zM1053 664v-16h30v16h-30zM1269 648h31v-30h-31v30zM327 571l15 -15h16v46zM157 571v-31h31v31h-31zM1053 571v-31h15v31h-15z
M1161 509v-30h77l-31 77zM342 479l-15 -108h46l16 46l-16 62h-31zM1068 340v-16l15 -15v-16l-15 -15l-15 15h-31l15 -108l46 31l47 -15v15l46 46h15v-30h16v30l-108 31v16q46 0 46 77zM1284 371h16v-31l-31 -31l-31 31zM775 340l-16 -62l47 -31v15l-16 62l16 16h-31z
M342 293h31v-31h-31v31zM543 216v-31h31zM1269 139h15v-31h-15v31zM358 62h15v-47h-46v16zM1222 46l31 -31l-15 -15h-31l-31 31l15 15h31z" />
    <glyph glyph-name="uni0443" unicode="&#x443;" horiz-adv-x="907" 
d="M477 631h2v4q-6 -4 -15 -4q0 22 -133 54l-14 9h-14q18 -41 54 -45l13 8v-8l-27 -46l-12 9h-14l14 9v10q-41 23 -41 54h-14l-12 -9h-15l-39 9l-14 -9v-9l27 -18h-13l-40 27l13 9q-48 0 -107 92l13 9v9l-26 128v202l26 28l-26 26v10l26 26l-26 19v119l26 19q27 0 27 -28
l14 -9h53l40 37h26v18q-39 0 -39 45l-14 -8h-53v8l27 19h26l14 -9l13 9h26q68 -25 68 -82l-27 -56l27 -18v-36l-41 -9l41 -46l-27 -46q17 -46 41 -46q0 38 26 38l27 -20v-8l-41 -28h-12l-41 18v-9q27 -21 27 -64q67 0 67 -18l-27 8l-26 -8h-14v-2l26 -18v18h27l14 -83h-14
q19 -37 67 -54q29 0 47 7l10 175l-15 15l15 76v260l30 30h13l-5 6l12 9h148q19 0 39 -36h1l6 6h106l31 -31l-31 -45v-31l16 -15v-15q-77 -20 -77 -46v-31h31l46 31l15 -15v-46l-15 -61l15 -46l-46 -15v-1l9 -6v-36h-1l23 -33q0 -32 -22 -65v-13q0 -11 -23 -15
q-14 -15 -32 -29v-15l46 -61v-31h-15l-35 11l-8 -5v8l-3 1l3 -9l28 -82v-15l-31 -46q61 -15 61 -92q-30 0 -46 -91h31l15 15h15l16 -15q0 -46 -61 -46l15 -76h-46q0 -30 46 -30l15 -16v-30h-30l15 -46l-15 -76h-31v46h-30v-46h30q-23 -61 -45 -61h-31l15 107l-45 -31h-31
l-15 15h-15l-16 -15v-15q77 -20 77 -46h-77l-15 15h-15l-31 -91h-76l-30 30l15 16q-168 69 -168 91v15l15 77q-30 0 -30 45l15 16l-15 76v76h30q82 -61 138 -61q61 15 61 92v139h-2v19zM196 996l14 -9l-94 -9l67 -45q56 12 81 45q-41 0 -41 18l14 28zM89 1454q41 -9 41 -55
l-14 -9h-27l-26 19v26zM753 975l15 -15h46v46h-31zM357 803l-14 -9v-10l14 -34h13l14 34v10l-14 9h-13zM343 1189h27v-19h-27v19zM223 649h41v-18h-15zM616 229l30 -31v31h-30zM753 259v-15h30v15h-30zM753 1311h30v30zM555 1001l11 -11q19 4 19 14q-15 0 -26 1zM343 1409
h27v-10h-27v10zM196 1326v-10h27v10h-27zM357 1280h27v-9h-27v9zM343 1326h27v-18z" />
    <glyph glyph-name="uni0440" unicode="&#x440;" horiz-adv-x="1031" 
d="M960 1219q0 -130 46 -183l-31 -46l31 -91l-31 -31l15 -15q-10 -122 -30 -122l15 -76l-46 15l-15 -15h-15l-61 46h76l-15 15v15l15 16v15q-152 -23 -152 -76l30 -31l-30 -30q-31 0 -31 45h-76q0 -30 -61 -76l46 -76v-15h-15l-61 45h-15q-31 0 -31 -60l-107 30v-15
q0 -41 -45 -92v-15q61 0 61 -30l-16 -16l-15 16h-30l-31 -61l31 -61l-31 -122l15 15h16l15 -15v-31h-46l-30 31l-76 -15h-46v-61q91 0 91 -31l-15 -15h-46l-45 30h-16l-45 -30l-46 46v487l15 92l-15 15v15l15 594v153l31 30h365q140 0 198 -61l46 15q46 -64 46 -121h-15
l-31 30l15 15v15q-71 0 -106 31h-16l16 -76l-61 -15v-31l76 -15l-15 -15v-31l15 15h30l16 -15h15q0 46 30 46h16l15 -15h15v15l-15 15v15l15 46h15q26 0 46 -91l-15 -46h61v30l-16 77h31v-31h30zM137 1341l31 -31v-15l-61 -15v-31q45 0 45 -30l-15 -46h31q0 46 30 46l61 -61
v15l-15 76l15 -15h31l30 31q-91 20 -91 45l45 46l-15 15h-15l-46 -30l-30 30zM396 1325l-15 -15l15 -15v-15l-15 -15v-16q30 0 30 -45l46 -16v107zM350 1173v-30h31zM427 1158v-31q45 0 45 -61h-15l-15 -60h-15q-31 0 -31 45h-30l15 -15v-15l-46 -122v-15h15q46 0 46 45
l15 16h31v-122h107l76 45l-16 46l16 92v15q-46 0 -46 61zM899 1143l-31 -92v-15h46l15 76v31h-30zM823 1127v-30h15v30h-15zM350 1082h46v30h-15zM168 1021q0 -46 -61 -92h45l16 16q45 0 45 -46l16 -15h15q0 45 46 45v31h-61l15 15v46q-31 0 -31 -46l-15 -15h-30l30 46
l-15 15h-15zM838 914q46 0 46 -61h15l30 31l-15 106h-15zM152 914v-61h16l30 61h-46zM396 884v-31h15v31h-15zM259 701v-31h-15l-76 16l45 -61l-76 -16q0 -30 76 -30l16 -15v-31l-16 15h-15l-30 -30l30 -30l31 30l61 -15l-16 76h16l15 -15h15l15 15v30q-91 0 -91 31l46 15
v46h-31zM442 609v-45h30v45h-30zM701 625l30 -31l-15 -15h-15v46zM762 564h15v-31h-15v31zM152 381l-15 -15l15 -16v-30q0 -31 -45 -31v-30h45v-46l-15 -15v-15h15l46 30q31 0 31 -45l91 -31v76l-15 -15h-31l-45 46l61 15v30q-77 0 -77 31q61 0 61 46h-45q0 -46 -31 -46
q-23 61 -46 61z" />
    <glyph glyph-name="uni0435" unicode="&#x435;" horiz-adv-x="781" 
d="M83 1433h610l46 -46v-30l-30 -46l15 -46l-31 -30l31 -46l-76 -15l76 -92v-15h-31l-45 31h-16q0 -46 -30 -46l-46 46l-15 -16h-15l-46 16q-43 -77 -122 -77l30 -30l46 15v-76q0 -31 153 -46v-15l106 30l16 -15v-107l-31 -121l-76 45l-15 -15v-15l15 -61l-76 15l-31 -30
h-15v45h-15l-61 -15l-46 15l-31 -45h16l15 15h15l15 -15v-16q-30 0 -45 -106q61 0 61 -46l30 -92l92 31h30l46 -46q0 -30 -46 -30v-16l76 -30h16v15h-31v31h15l46 -16l-15 16v30l30 31l31 -31l-15 -15v-15l15 -61q0 -31 -46 -31v-46h31v-45h-16l-15 15h-15q0 -31 -92 -46
v-15q61 -8 61 -46l-15 -15l-15 15h-46l-15 -15h-15l-16 15v15l46 16l-30 30l-61 -46h-16l-61 46l-30 -30l-31 30l-15 -15l-15 15h-15l-46 -30l-46 15l-30 -31h-16v31h-15v-31l15 -15h-61l-30 31v1357zM663 1311v-30h15v30h-15zM556 1250v-30h15v30h-15zM373 1143l-15 -61
v-15h15l31 61l-16 15h-15zM99 1052v-15l45 -46v30l-30 31h-15zM175 1006v-30h30l16 61h-16zM144 960l31 -30h15v30h-46zM343 945v-30h15v30h-15zM373 945v-30h15v30h-15zM129 899v-15l76 -30v45h-76zM99 869v-31l30 31h-30zM678 610l31 -31v-30h-61v30zM480 564h30v-15h-30
v15zM327 381l61 -46v77h-30zM129 290l31 -31h61v31h-92zM343 290v-16h30v16h-30zM419 290v-16h30v16h-30z" />
    <glyph glyph-name="uni0430" unicode="&#x430;" 
d="M377 1448l15 -15l106 15h151l45 -30h75v-15l-15 -15v-15h30v-31l-45 -15l15 -15v-45l-15 -15l15 -75h30l46 30l15 -46l-15 -15v-15l30 -151h-30v61l-61 -30l-45 15v-15l91 -76v-15l-16 -45h46v45l30 -30v-60l-45 30l-31 -45q0 -46 106 -46l15 -75h-15q-45 0 -45 -30
l15 -46l-15 -90v-30h15l15 15l15 -15h30l-30 60l15 15v15l-30 76h15q45 0 60 -242l-15 -15l30 -30l-15 -15v-15l15 -15l-30 -30v-15q0 -31 46 -31l15 -15v-15l-31 -30h31v-30q-46 0 -46 -30l61 -15l-15 -61l15 -45h-151l-60 15l-121 -30q-45 40 -76 226l-15 15h-15l-15 -15
h-15l-45 15l-91 -15v30h-15l-30 -30v-15l15 15h30q0 -90 -60 -90v-15l30 -46v-30q0 -30 -196 -45l-60 30l-121 -15l-15 15v30q75 498 121 498l-15 45l15 15v16l-15 15v15q96 588 120 588l-15 15v15q0 166 166 166zM287 1312v-75h45v15l-30 60h-15zM558 1267v-30h30v30h-30z
M769 1101v-15h30v15h-30zM468 950l30 -135l-61 -151l31 -76h105l-45 317v91h-15zM724 799l30 -30v30h-30zM784 588h31v30zM860 422h15l30 31v15zM347 332v-15h60v15h-60zM528 332l-30 -45v-15q60 22 60 45l-15 15h-15zM920 166h15l30 30h-15zM317 121v-30l30 30h-30z
M965 106v-31h31v31h-31zM875 91l-15 -46h15l30 30v16h-30z" />
    <glyph glyph-name="uni043B" unicode="&#x43b;" horiz-adv-x="1220" 
d="M1096 0q-259 10 -259 30q0 31 -46 31v30h31v16l-61 122l15 15h15q31 -35 31 -107l61 76q-25 0 -61 107h-15l-16 -15l-15 15l46 107l-15 15h-16q0 -46 -30 -46v31l46 46h15v-46l15 -15h31q0 41 45 91q-49 0 -76 122h-30v-15l15 -15v-16h-31v31l-15 15l15 15h31l-15 16v15
h76v30l-61 15l15 16v30h-30v-46h-16l-15 16h-15q11 91 30 91l-30 153l15 15l15 -15h16l91 30v31l-107 -31q0 28 -137 46l-61 -15h-14v-1l31 -45q0 -60 -77 -122v-15l46 -61v-31h-15l-46 15l31 -91v-15l-31 -46q61 -15 61 -92q-30 0 -46 -91h31l15 15h15l16 -15
q0 -46 -61 -46l15 -76h-46q0 -30 46 -30l15 -16v-30h-30l15 -46l-15 -76h-31v46h-30v-46h30q-23 -61 -45 -61h-31l15 107l-45 -31h-31l-15 15h-15l-16 -15v-15q77 -20 77 -46h-77l-15 15h-15l-31 -91h-76l-30 30l15 16q-168 69 -168 91v15l15 77q-30 0 -30 45l15 16l-15 76
v76h30q82 -61 138 -61q61 15 61 92v274l15 320l-15 15l15 76v260l30 30h122q77 -4 77 -30l15 15h106l31 -31l-1 -1q30 -59 91 -59v30h76l46 31l15 -16h16v31h30q0 -50 31 -76v-16h30q59 66 153 107l30 -91v-153l-15 -15l15 -15v-641l-15 -15l15 -15v-153l-30 -45l30 -31v-15
l-30 -31l-46 46h-15q-5 -76 -46 -76l15 -61h76q0 46 31 46l15 -16v-106zM1096 823v31h-30q0 45 -31 45l-30 -61v-30h15zM868 899q0 31 45 31l16 15v15l-16 16h-15l-46 -46h-15v-31h31zM305 975l30 -30h31v76h-15zM883 1281v45l-76 -15v-30h76zM503 975l15 -15h46v46h-31z
M852 808v15l-30 31v-46h30zM366 229l30 -31v31h-30zM1020 274v31h-15v-31h15zM883 290v30h-31zM807 671h-31v30zM503 259v-15h30v15h-30zM624 1311v15l-30 30v-15zM654 1220v30h-15v-30h15zM564 1219l9 6l-10 10h-16l16 -16h1z" />
    <glyph glyph-name="uni044C" unicode="&#x44c;" horiz-adv-x="1031" 
d="M152 1051q23 0 46 61q31 0 31 -46h45q0 46 -61 46q0 31 77 31v30l-61 15l45 46h31l15 -15v76l-91 -31q0 -45 -31 -45l-46 30h-15v-15l15 -15v-46h-45v-30q45 0 45 -31v-30l-15 -16l15 -15v0zM762 899h15v-31h-15v31zM701 853h15l15 -15l-30 -31v46zM472 823v45h-30v-45
h30zM290 731v46l-46 15q0 31 91 31v30l-15 15h-15l-15 -15h-16l16 76l-61 -15l-31 30l-30 -30l30 -30h15l16 15v-31l-16 -15q-76 0 -76 -30l76 -16l-45 -61l76 16h15v-31h31zM411 548v31h-15v-31h15zM198 518l-30 61h-16v-61h46zM899 442h15l15 106l-30 31h-15
q0 -61 -46 -61zM183 411l15 15l-30 46h30l15 -15q0 -46 31 -46v46l-15 15h61v31q-46 0 -46 45h-15l-16 -15q0 -46 -45 -46l-16 16h-45q61 -46 61 -92h15zM381 320h15v30h-46zM838 305v30h-15v-30h15zM929 289v31l-15 76h-46v-15l31 -92h30zM579 350q0 61 46 61v15l-16 92
l16 46l-76 45h-107v-122h-31l-15 16q0 45 -46 45h-15v-15l46 -122v-15l-15 -15h30q0 45 31 45h15l15 -60h15q0 -61 -45 -61v-31zM381 289h-31v-30zM457 137v107l-46 -16q0 -45 -30 -45v-16l15 -15v-15l-15 -15l15 -15zM168 61l30 30l46 -30h15l15 15l-45 46q0 25 91 45
l-30 31h-31l-15 -15l15 76v15l-61 -61q-30 0 -30 46h-31l15 -46q0 -30 -45 -30v-31l61 -15v-15l-31 -31zM929 198h-30v-31h-31l16 77v30h-61l15 -46q-20 -91 -46 -91h-15l-15 46v15l15 15v15h-15l-15 -15h-16q-30 0 -30 46h-15l-16 -15h-30l-15 15v-31l15 -15l-76 -15v-31
l61 -15l-16 -76h16q35 31 106 31v15l-15 15l31 30h15q0 -57 -46 -121l-46 15q-58 -61 -198 -61h-365l-31 30v153l-15 594v15l15 15l-15 92v487l46 46l45 -30h16l45 30h46l15 -15q0 -31 -91 -31v-61h46l76 -15l30 31h46v-31l-15 -15h-16l-15 15l31 -122l-31 -61l31 -61h30
l15 16l16 -16q0 -30 -61 -30v-15q45 -51 45 -92v-15l107 30q0 -60 31 -60h15l61 45h15v-15l-46 -76q61 -46 61 -76h76q0 45 31 45l30 -30l-30 -31q0 -53 152 -76v15l-15 16v15l15 15h-76l61 46h15l15 -15l46 15l-15 -76q20 0 30 -122l-15 -15l31 -31l-31 -91l31 -46
q-46 -53 -46 -183z" />
    <glyph glyph-name="uni043D" unicode="&#x43d;" 
d="M157 1432q277 -10 277 -93l-46 -15v-31l77 -77l-61 -16v-15q0 -31 46 -31l15 -15v-31h-61l30 -47l-15 -46l15 16h16l15 -16v-15l-61 -62l15 -16h15l16 16q23 -62 46 -62l31 31h108q8 62 46 62l-46 77v62l46 77l-30 31l108 61v16l-16 15h-15l-31 -31q-62 26 -62 109l31 30
h201l46 -46l-16 -62l16 -15v-16l-16 -46l93 -15v-31h-46l-16 15h-15v-31q15 -61 77 -61l16 15l15 -15v-16l-77 -15v-16h31v-30l-16 15h-62q47 -93 93 -93v-15q-93 0 -93 -77h16l46 -31l47 15l-16 -15v-16l16 -15v-15l-31 -31l15 -77l-15 -47l-78 16v-16l16 -15v-16l-16 -46
l78 -93l-31 -30q62 0 62 -78l-16 -15h-15l-47 15l-31 -46v-31q58 -5 93 -62v-30l-15 -16l31 -77h-16l-77 15v-15q0 -31 62 -31l15 -15v-31l-31 -31l-46 62h-16q0 -47 -30 -47h-16l-139 16l-61 -16l-16 16v62l16 92l-16 46l16 16v15l-16 47l31 31q-31 24 -31 169l-15 16h-170
l-16 -108l31 -31l-46 -46l15 -47h-30l-47 31l16 -77l-16 -62h16l46 16l15 -16v-62q-77 0 -77 -61l16 -16h31q0 47 30 47l31 -47l-31 -31h-15q-52 0 -108 47h-31l16 -16v-15l-16 -16h-15l-62 16l-93 -31l-15 15v1390q0 38 62 46zM959 1386h31l-31 -31v31zM249 1293l31 -31
l16 15v16h-47zM944 1293h31v-31h-31v31zM743 1231v-31h31zM203 1000l-16 -78l16 -61l77 61q-10 62 -77 78zM882 845v-46l31 31l-16 15h-15zM928 799l31 -31v31h-31zM897 737v-31h31zM944 676h31v30zM434 614v-47h31l47 31h30l47 -31h31v31l-93 31h-15zM388 382h31v31z
M218 305q0 -31 -61 -31v-31q46 0 46 -61q108 52 108 77q-46 0 -46 46h-47zM666 259v-31h31v31h-31zM913 197v-46h46v46h-46z" />
    <glyph glyph-name="uni044B" unicode="&#x44b;" horiz-adv-x="1530" 
d="M152 1051q23 0 46 61q31 0 31 -46h45q0 46 -61 46q0 31 77 31v30l-61 15l45 46h31l15 -15v76l-91 -31q0 -45 -31 -45l-46 30h-15v-15l15 -15v-46h-45v-30q45 0 45 -31v-30l-15 -16l15 -15v0zM762 899h15v-31h-15v31zM701 853h15l15 -15l-30 -31v46zM472 823v45h-30v-45
h30zM290 731v46l-46 15q0 31 91 31v30l-15 15h-15l-15 -15h-16l16 76l-61 -15l-31 30l-30 -30l30 -30h15l16 15v-31l-16 -15q-76 0 -76 -30l76 -16l-45 -61l76 16h15v-31h31zM411 548v31h-15v-31h15zM198 518l-30 61h-16v-61h46zM899 442h15l15 106l-30 31h-15
q0 -61 -46 -61zM183 411l15 15l-30 46h30l15 -15q0 -46 31 -46v46l-15 15h61v31q-46 0 -46 45h-15l-16 -15q0 -46 -45 -46l-16 16h-45q61 -46 61 -92h15zM381 320h15v30h-46zM838 305v30h-15v-30h15zM929 289v31l-15 76h-46v-15l31 -92h30zM579 350q0 61 46 61v15l-16 92
l16 46l-76 45h-107v-122h-31l-15 16q0 45 -46 45h-15v-15l46 -122v-15l-15 -15h30q0 45 31 45h15l15 -60h15q0 -61 -45 -61v-31zM381 289h-31v-30zM457 137v107l-46 -16q0 -45 -30 -45v-16l15 -15v-15l-15 -15l15 -15zM168 61l30 30l46 -30h15l15 15l-45 46q0 25 91 45
l-30 31h-31l-15 -15l15 76v15l-61 -61q-30 0 -30 46h-31l15 -46q0 -30 -45 -30v-31l61 -15v-15l-31 -31zM929 198h-30v-31h-31l16 77v30h-61l15 -46q-20 -91 -46 -91h-15l-15 46v15l15 15v15h-15l-15 -15h-16q-30 0 -30 46h-15l-16 -15h-30l-15 15v-31l15 -15l-76 -15v-31
l61 -15l-16 -76h16q35 31 106 31v15l-15 15l31 30h15q0 -57 -46 -121l-46 15q-58 -61 -198 -61h-365l-31 30v153l-15 594v15l15 15l-15 92v487l46 46l45 -30h16l45 30h46l15 -15q0 -31 -91 -31v-61h46l76 -15l30 31h46v-31l-15 -15h-16l-15 15l31 -122l-31 -61l31 -61h30
l15 16l16 -16q0 -30 -61 -30v-15q45 -51 45 -92v-15l107 30q0 -60 31 -60h15l61 45h15v-15l-46 -76q61 -46 61 -76h76q0 45 31 45l30 -30l-30 -31q0 -53 152 -76v15l-15 16v15l15 15h-76l61 46h15l15 -15l46 15l-15 -76q20 0 30 -122l-15 -15l31 -31l-31 -91l31 -46
q-46 -53 -46 -183zM1107 1433h308l31 -31v-138h-31l15 15v15h-77v-30l16 -16v-15l-31 -31v-46l123 -31v-46h-61v-16l30 -46v-31q-61 0 -61 -92l61 46l16 -15v-16l-31 -31l-15 16v-47h15l15 16h16v-16q0 -30 -77 -30v-31l46 -16l46 16v-46q-61 0 -61 -31v-16h30v-15l-15 -15
v-16l15 -15v-16l-15 -46l31 -31v-15h-77l92 -108l-31 -62l16 -15q-62 -15 -62 -77h62v-31l-16 -15l16 -16v-15q0 -31 -46 -31v-15l30 -47v-15l-15 -15v-16l31 -31v-15h-16l-107 46v-46h-31l-139 15l-62 -15l-15 15v16l15 92l-15 16v15q0 93 46 93v30q-46 0 -46 31v570l46 47
l62 -47h46l15 47l-15 46h-15l-108 -31l-31 169l15 93l-15 154v46zM1384 1402l-31 -46h31l31 31l-15 15h-16zM1184 324v-47h31l-31 -30l-16 15v-62l77 62v15q-30 0 -30 47h-31zM1384 247l-15 -16v-15l15 -16h16l15 16v15l-15 16h-16zM1276 62v-31h16v31h-16z" />
    <glyph glyph-name="uni0441" unicode="&#x441;" horiz-adv-x="864" 
d="M455 1425h147q177 -42 177 -88l-15 -132l15 -44h-30l-14 14h-15l-15 -59h-15l-14 15h-15q0 -29 -44 -29l15 -15v-15l-15 -14h-15l-14 44h-59q0 -74 -44 -74l-59 15q0 -29 44 -29v-15l-29 -29q-37 0 -44 58h-44q0 -44 -30 -44l-14 15l-30 -44h15l88 15l29 -30
q0 -161 -73 -161v-15q44 -54 44 -103v-15l-44 -58h15l14 14h15q0 -140 191 -205q83 0 191 117h15l14 -59l-29 -88l15 -14v-15l-30 -44l30 -44q-15 -74 -59 -74v-14q0 -30 44 -30v-44h-88v30l-74 -30l15 -73l-15 -15h-14l-15 15l15 14v30l-74 14h-15v-44h-14q-89 74 -132 74
q0 -34 -74 -44q-155 151 -191 235v15l15 14v15q-103 0 -103 352q0 460 279 676q101 59 176 59zM544 1175v-44h29v44h-29zM617 1175v-29l29 29h-29zM749 1116l30 -29v-103h-15q-103 51 -103 74v29l74 -15h14v44zM309 926v-30l58 -29v59h-58zM309 705v-29h29zM544 44l14 -15
v-14l-14 -15h-15l-15 15v14l15 15h15z" />
    <glyph glyph-name="uni0432" unicode="&#x432;" horiz-adv-x="1039" 
d="M159 1433h60l15 -15l15 15h226q155 0 362 -106l-15 -15v-30h30v-15l-15 -15l31 -60l45 15v-15l15 -61l-15 -45h15l30 -30v-76l-15 -75h-30l-15 15h-15v-45q45 0 45 -30q-51 0 -91 -76v-15q136 -142 136 -256l-15 -15l30 -30v-16l-30 -45v-15q45 0 45 -30q-30 0 -30 -60
l-15 -15h-15l-30 30q0 -46 -61 -46v-30l61 -15q-15 -105 -45 -105l-46 45q-45 0 -45 -45h-30l-15 15h-15v-30q-46 0 -46 -61l-105 -15l-30 30v15l60 15l45 -15v15l15 46l-166 -76l-15 15h-45q0 -38 -75 -45l-15 15h-15l-91 -15l-15 15l-30 -30h-106l-30 30v106l15 60l-15 60
l15 16l-15 75v136l15 196l-15 45l15 241v257q0 30 121 45v-30h-30l30 -30l75 30v30q-45 0 -45 60l-91 -60h-30l-30 30v91q15 45 91 45zM626 1267l30 -30l15 15v15h-45zM506 1131q0 -45 -61 -45l-15 -45l15 -15v-15l-30 -31l-30 31l-30 -31q65 0 105 -90q83 0 151 75
q-28 107 -105 166zM355 1071v-30h30zM852 996v-31h16v31h-16zM883 996v-31h30v31h-30zM430 664l15 -76v-15l-30 -120l15 -76h60q106 0 106 106v60l-121 91v45zM204 649v-15l45 -46h60v15q-45 0 -45 46h-60zM128 603v-15q61 0 61 -45h45v15l-45 45h-61zM913 573v-30h15v30
h-15zM355 422v-30h45v30h-45zM913 422v-45l30 30v15h-30zM309 392l31 -30v30h-31zM898 332v-15h15l30 30v15h-15zM822 272h30l16 60q-23 0 -46 -60zM943 256h15v-30h-45zM219 75h60v46q-60 -23 -60 -46z" />
    <glyph glyph-name="uni0434" unicode="&#x434;" horiz-adv-x="1632" 
d="M1093 -38h-31l-15 15l-76 15q0 -19 -91 -30v15l-8 8l-8 -8l-15 15v31l-16 -15h-14l30 -31h-30v31h-1v-31h-30l30 31h-14l-16 15v-31l-15 -15l-7 8l-9 -8v-15q-91 11 -91 30l-76 -15l-15 -15h-31q0 3 1 6l-32 -6l-15 15l15 15v5l-45 -20l-1 2q-17 -29 -30 -124l15 -61v-30
l-15 -16l15 -15v-61l-15 -15v-15l-198 30l-15 -15h-16q-123 0 -152 122q30 0 30 46q61 30 61 91h-30v76l-31 46l16 15v16h-31v30q50 0 76 31h11q-2 17 -3 37q-60 57 -99 146l91 30h153l16 -15l14 15h17l184 534l63 49l45 -46l45 1l32 48v45h-15l-117 -34l27 168l46 94
l39 153l15 46l42 32l308 8l5 -8h227l31 -31v-138h-31l15 15v15h-77v-30l16 -16v-15l-31 -31v-46l123 -31v-46h-61v-16l30 -46v-31q-61 0 -61 -92l61 46l16 -15v-16l-31 -31l-15 16v-47h15l15 16h16v-16q0 -30 -77 -30v-31l46 -16l46 16v-46q-61 0 -61 -31v-16h30v-15
l-15 -15v-16l15 -15v-16l-15 -46l31 -31v-15h-77l92 -108l-31 -62l16 -15l-10 -3l7 -8l16 15h153l91 -30q-39 -89 -99 -146q-1 -20 -3 -37h11q26 -31 76 -31v-30h-31v-16l16 -15l-31 -46v-76h-30q0 -61 61 -91q0 -46 30 -46q-29 -122 -152 -122h-16l-15 15l-198 -30v15
l-15 15v61l15 15l-15 16v30l15 61q-13 95 -30 124l-1 -2l-45 19v-4l15 -15l-15 -15l-32 6q1 -3 1 -6zM954 878l46 47l62 -47h46l15 47l-15 46h-15l-108 -31l-27 147l-34 -1l-6 -16l14 -45l-10 -31q-61 -1 -93 -93l77 47l11 -14l-6 -16l-42 -32l-9 15l-16 -47l15 1l20 16
l16 1l-5 -16q-11 -30 -88 -32l-11 -31l41 -15l51 17l-15 -46q-61 -2 -72 -33l-6 -16l30 1l-5 -15l-20 -15l-6 -16l10 -15l-5 -16l-31 -46l20 -30l-5 -15l-77 -2l55 -106l-53 -63l11 -14q-8 -2 -16 -5h256v535zM969 1202l-10 98h-8l-10 -30l10 -15l-5 -15l-42 -32l-16 -46
l71 -18zM1262 1402l-31 -46h31l31 31l-15 15h-16zM681 53h-15l-31 -30h46v30zM879 8l15 15h16v15h-30l-16 -15v-15h15zM757 38h-30v-15h16l15 -15h15v15zM407 -221h-46l30 -31l16 16v15zM1230 -236l16 -16l30 31h-46v-15zM178 8h30q-5 30 -30 30q-4 0 -8 13zM1429 8h30l8 43
q-4 -13 -8 -13q-25 0 -30 -30zM285 -206l-31 -30v-16l31 31v15zM1352 -221l31 -31v16l-31 30v-15zM178 -175h-15l-31 -31h15zM1490 -206h15l-31 31h-15zM269 -145h-30v-15h30v15zM1368 -160h30v15h-30v-15zM590 69h-2l-5 -15l7 -11v26zM465 67h-3l1 -6zM1170 62h-1v-9l1 1v8
zM956 43l1 10h-1v-10z" />
    <glyph glyph-name="uni0438" unicode="&#x438;" horiz-adv-x="1101" 
d="M166 0h-30v30h30v-30zM715 61l-30 -31h-16l46 46v-15zM868 198v-30h15v30h-15zM166 290h-15l-30 30h15zM380 305l-16 -15l31 -31v46h-15zM486 381l-30 -30l46 -16l15 16zM730 366h-30v30h30v-30zM730 549l-30 -61h-31v30l16 16l-16 15v15l31 31h30v-46zM441 595h-31v30
h31v-30zM380 671q0 -61 -61 -61v-15l61 -31l-16 -46v-15h31v31h30l16 -46h15l15 15l-15 46q0 46 76 46v15q-55 0 -76 91zM715 762l-30 -30q0 -31 91 -46v76h-61zM441 793l-16 -61h16l30 30zM776 808v-30h15v30h-15zM715 854h-15v-61h15l31 30zM227 945v-30l31 30h-31z
M517 899h-15l-31 31l31 30zM197 991v-46h15l15 15zM791 1082h-15v-30h46zM105 1098l-15 -16l-30 31h45v-15zM929 1250h-16v31h16v-31zM121 1342h-16v30h16v-30zM1020 1387v-45l-30 -31h-16v76h-15l-46 -30l-30 30h-15l-16 -15l16 -76l-61 -15l45 -122h16q30 0 30 45h15
l46 -45q31 0 31 76l30 -31v-198l-30 -30h-31l15 76h-45v-31h-31v31h-46l31 -76v-16h-31l-91 77l-61 -31l30 -30l-30 -77v-15l15 -15l76 30v16h-30v15l30 30h16v-45h15l15 15h31v-15q0 -31 -46 -31v-30h61q0 45 30 45q31 0 31 -45l46 15l-31 30v16l15 15l46 -46v-213l-15 -61
l15 -61v-198l-46 -46h-15l15 61v15l-15 15l-46 -45q-30 0 -30 45l-46 -15v-15l31 -46q0 -46 -61 -46l137 -106l46 30l-31 46v15h15l46 -46v-152l-30 -31h-46l-15 16v15l15 15l-31 31l-45 -46l-122 122l30 30l-30 92v15l45 46l-45 107l15 106h30l16 -15l15 15h15l15 -15
l-30 -46v-30h15q31 0 31 61h30q0 -46 31 -46h15v31l-31 45v16h77v15l-31 30h-15l-15 -15l-16 15l31 46v31h-15q-31 0 -31 -46h-30q0 46 -31 46h-15v-61l15 -16l-61 -30q-40 34 -152 46l-16 -138q-88 -305 -137 -305l31 -45v-46l-92 -76l-46 30l-15 -76l-46 15l-45 -15
q-31 0 -31 61h-30l-15 -15q-30 69 -61 76l30 30l-30 46v31l15 15q76 0 76 30v16q-26 64 -107 137q0 30 46 30v31h-76v30q51 0 61 92l-15 15l30 31l-46 91v15l77 16v30l-61 -15h-16l-15 15q0 30 76 30v16q-26 61 -61 61v15l31 30l-31 31l46 76l-30 31l45 76l-15 46l15 15
l46 -31h46l15 46l-15 61h-61q-8 -61 -46 -61h-46v46q46 0 61 76q46 0 46 61h183l15 -15l-15 -61l15 -61q0 -31 -61 -31v-30q76 0 76 -137v-16l-15 -15v-15l15 -15l-45 -77v-15l30 -30l-15 -16q9 -91 107 -91v15l15 15v16h-46v30l15 -15l77 30v31l-16 107h-30l-15 -16l-16 16
q60 91 107 91v46h-46l31 168q76 -11 76 -46q0 -31 -46 -31v-15q46 0 46 -46l92 46l-16 92l-45 -31l-46 31l15 61h15l46 -31q0 61 31 61h228z" />
    <glyph glyph-name="uni044F" unicode="&#x44f;" horiz-adv-x="1054" 
d="M75 15h-15v31h15v-31zM106 91v-15h30v15h-30zM136 183l-15 -46l15 -15q23 0 46 61h-46zM380 244l31 -31h15v31h-46zM685 351l15 -16v-15l-15 -15h-15l-15 15v15l15 16h15zM838 335v-15h30v-30h-46v30h-15l-15 -15q4 -35 122 -122l30 91v16q-45 0 -45 45h-61zM258 351v-16
h31v16h-31zM167 671v-15h30v15h-30zM167 762v-15l15 -15l31 30h-46zM106 945v-15l46 -15v15l15 15h-61zM868 991l-30 -31h-16l-15 16l-15 -46l61 -46h46q0 46 45 46zM639 1021v-15h61v15h-61zM517 1067l-137 -107l61 -15q57 -107 153 -107l45 107q-45 44 -45 122h-77z
M990 1403v-1373l-30 -30l-61 61l-122 -31l15 61q-46 46 -46 107l-46 -46q-45 0 -45 -30h-31v30l76 77q-76 0 -76 30v15h92l15 61h-15l-31 31v15l31 31v15l-16 15v15l16 16h-31q0 -46 -30 -46h-16q-22 0 -45 61h-16q-50 -214 -76 -214h-46q-30 0 -30 61h-61v-15
q0 -30 -76 -30l30 -31h46v31h30l107 -46q-40 -244 -76 -244h-15l-16 15l-15 -15h-76l-31 30l-45 -15l-76 46v-61h-46v30l15 16l-61 15v30l46 46l-15 15l30 107l76 -15h16q-7 31 -77 61v15l16 15h15l15 -15h15v15l-45 61h15l76 -15v15q0 38 -61 46l15 122l-106 198
q0 31 61 31v30l-16 15l-45 -30h-16l-15 15q0 38 61 46v15q-76 11 -76 46v15l15 15l-15 16v15l30 30q31 0 31 -45h15v15q0 46 -46 46q0 167 77 167q0 92 61 92q0 99 335 137h412z" />
    <glyph glyph-name="uni043F" unicode="&#x43f;" horiz-adv-x="1063" 
d="M656 1433h308l31 -31v-138h-31l15 15v15h-77v-30l16 -16v-15l-31 -31v-46l123 -31v-46h-61v-16l30 -46v-31q-61 0 -61 -92l61 46l16 -15v-16l-31 -31l-15 16v-47h15l15 16h16v-16q0 -30 -77 -30v-31l46 -16l46 16v-46q-61 0 -61 -31v-16h30v-15l-15 -15v-16l15 -15v-16
l-15 -46l31 -31v-15h-77l92 -108l-31 -62l16 -15q-62 -15 -62 -77h62v-31l-16 -15l16 -16v-15q0 -31 -46 -31v-15l30 -47v-15l-15 -15v-16l31 -31v-15h-16l-107 46v-46h-31l-139 15l-62 -15l-15 15v16l15 92l-15 16v15q0 93 46 93v30q-46 0 -46 31v570l46 47l62 -47h46
l15 47l-15 46h-15l-108 -31l-18 97h-20l-61 15q-137 -18 -137 -46l-107 31v-31l91 -30h16l15 15l15 -15l-30 -153q19 0 30 -91h-15l-15 -16h-16v46h-30v-30l15 -16l-61 -15v-30h76v-15l-15 -16h31l15 -15l-15 -15v-31h-31v16l15 15v15h-30q-27 -122 -76 -122q45 -50 45 -91
h31l15 15l46 -107l-15 -15l-16 15h-15q-36 -107 -61 -107l61 -76q0 72 31 107h15l15 -15l-61 -122v-16h31v-30q-46 0 -46 -31q0 -20 -259 -30l-46 46v106l15 16q31 0 31 -46h76l15 61q-41 0 -46 76h-15l-46 -46l-30 31v15l30 31l-30 45v153l15 15l-15 15v641l15 15l-15 15
v153l30 91q94 -41 153 -107h30v16q31 26 31 76h30v-31h16l15 16l46 -31h76v-30q61 0 91 61q46 0 46 30q9 -2 18 -5zM191 808h15v30l-30 61q-31 0 -31 -45h-30v-31zM733 324v-47h31l-31 -30l-16 15v-62l77 62v15q-30 0 -30 47h-31zM374 899v31h-15l-46 46h-15l-16 -16v-15
l16 -15q45 0 45 -31h31zM404 1281v30l-76 15v-45h76zM450 396q-30 0 -30 46h-16l-15 -15v46h15l46 -46v-31zM933 247l-15 -16v-15l15 -16h16l15 16v15l-15 16h-16zM933 1402l-31 -46h31l31 31l-15 15h-16zM389 808v46l-30 -31v-15h30zM825 62v-31h16v31h-16zM435 701v-30
h-31zM359 320h-31v-30zM618 1342v15l-31 -31v-15zM206 274v31h-15v-31h15zM572 1220v30h-15v-30h15zM633 1204l6 6l-1 14l-20 -20h15z" />
    <glyph glyph-name="uni0448" unicode="&#x448;" horiz-adv-x="1635" 
d="M450 1006l-46 -46h-15v46l-15 15h-31q0 -41 -45 -91q49 0 76 -122h30v15l-15 15v16h31v-31l15 -15l-15 -15h-31l15 -16v-15h31v-30l-31 30h-76v-30l61 -15l-15 -16v-30h30v46h16l15 -16h15q-11 -91 -30 -91l30 -153l-15 -15l-15 15h-16l-91 -30v-31l107 31q0 -28 137 -46
l61 15h19v146l-12 13v570q0 25 30 30l-18 19v15l8 8q-20 21 -20 82v15l12 13v21l-12 74v16l15 15l34 -9l9 9q61 -3 108 -6l50 6h31v-12q40 -5 57 -10l50 22h16v-15l-31 -31v-13q10 -2 24 -2v-30h-9v-1l-17 -26l23 -45q9 -7 10 -20l23 -46l-15 -15h-8v-18h-60q10 -24 22 -58
h15l16 15l15 -15l-9 -19h1l-1 -1l-10 -24l18 -37q6 5 16 5v-31l-46 -46h-11l-43 -51h77v-15l-31 -31l3 -9h21v-31l15 -15l-15 -15h-17l-7 -7v-1l8 -8v-15h31v-30l-31 30l7 -7v-15h-30v-16v-5l8 -2l-5 -6q5 -9 20 -14v20h16l15 -16h15q-4 -30 -8 -50v-4h-1q-9 -37 -21 -37
l2 -11q5 -6 5 -13v-13l23 -116l-15 -15l-15 15h-16l-17 -6q10 -4 24 -4v-23l9 3q0 -28 137 -46l61 15h20l18 97l108 -31h15l15 46l-15 47h-46l-62 -47l-46 47v570q0 31 46 31v30q-46 0 -46 93v15l15 16l-15 92v16l15 15l62 -15l139 15h31v-46l107 46h16v-15l-31 -31v-16
l15 -15v-15l-30 -47v-15q46 0 46 -31v-15l-16 -16l16 -15v-31h-62q0 -62 62 -77l-16 -15l31 -62l-92 -108h77v-15l-31 -31l15 -46v-16l-15 -15v-16l15 -15v-15h-30v-16q0 -31 61 -31v-46l-46 16l-46 -16v-31q77 0 77 -30v-16h-16l-15 16h-15v-47l15 16l31 -31v-16l-16 -15
l-61 46q0 -92 61 -92v-31l-30 -46v-16h61v-46l-123 -31v-46l31 -31v-15l-16 -16v-30h77v15l-15 15h31v-138l-31 -31h-308l-5 5q-9 -3 -18 -5q0 30 -46 30q-30 61 -91 61v-30h-69v-30l-31 -31h-308l-5 5q-9 -3 -18 -5q0 30 -46 30q-30 61 -91 61v-30h-76l-46 -31l-15 16h-16
v-31h-30q0 50 -31 76v16h-30q-59 -66 -153 -107l-30 91v153l15 15l-15 15v641l15 15l-15 15v153l30 45l-30 31v15l30 31l46 -46h15q5 76 46 76l-15 61h-76q0 -46 -31 -46l-15 16v106l46 46q259 -10 259 -30q0 -31 46 -31v-30h-31v-16l61 -122l-15 -15h-15q-31 35 -31 107
l-61 -76q25 0 61 -107h15l16 15l15 -15l-46 -107l15 -15h16q0 46 30 46v-31zM115 610v-31h30q0 -45 31 -45l30 61v30h-15zM1332 1109q0 47 30 47v15l-77 62v-62l16 15l31 -30h-31v-47h31zM343 534q0 -31 -45 -31l-16 -15v-15l16 -16h15l46 46h15v31h-31zM328 152v-45l76 15
v30h-76zM1517 1186l15 16v15l-15 16h-16l-15 -16v-15l15 -16h16zM949 1186l15 16v15l-15 16h-16l-15 -16v-15v-1l15 -15h16zM1517 31l15 15l-31 31h-31l31 -46h16zM359 625v-15l30 -31v46h-30zM972 152h-70v-13h70v13zM717 1174h3l8 8q2 21 7 36l-18 15v-59zM922 498l5 5h15
v18l-18 13h-6q0 -21 4 -36zM1409 1371v31h-16v-31h16zM720 545q8 -11 24 -11l10 21h-21zM1155 122v-15l31 -31v15zM328 1143v-30h31zM587 122v-15l31 -31v15zM191 1159v-31h15v31h-15zM1125 213v-30h15v30h-15zM557 213v-30h15v30h-15zM774 1147v12h-13l3 -3h-5v-28h6
q3 12 9 19zM927 625v-9q17 -1 30 -3v12h-30zM1186 229l20 -20l1 14l-6 6h-15zM618 229l19 -19v15l-4 4h-15zM957 1279v17l-8 -10v-7h8zM933 31h8l-14 15h-4zM949 31l11 11l-17 -11h6zM957 579v7h-7z" />
    <glyph glyph-name="uni0446" unicode="&#x446;" horiz-adv-x="1297" 
d="M651 5q-9 -3 -18 -5q0 30 -46 30q-30 61 -91 61v-30h-76l-46 -31l-15 16h-16v-31h-30q0 50 -31 76v16h-30q-59 -66 -153 -107l-30 91v153l15 15l-15 15v641l15 15l-15 15v153l30 45l-30 31v15l30 31l46 -46h15q5 76 46 76l-15 61h-76q0 -46 -31 -46l-15 16v106l46 46
q259 -10 259 -30q0 -31 46 -31v-30h-31v-16l61 -122l-15 -15h-15q-31 35 -31 107l-61 -76q25 0 61 -107h15l16 15l15 -15l-46 -107l15 -15h16q0 46 30 46v-31l-46 -46h-15v46l-15 15h-31q0 -41 -45 -91q49 0 76 -122h30v15l-15 15v16h31v-31l15 -15l-15 -15h-31l15 -16v-15
h-76v-30l61 -15l-15 -16v-30h30v46h16l15 -16h15q-11 -91 -30 -91l30 -153l-15 -15l-15 15h-16l-91 -30v-31l107 31q0 -28 137 -46l61 15h20l18 97l108 -31h15l15 46l-15 47h-46l-62 -47l-46 47v570q0 31 46 31v30q-46 0 -46 93v15l15 16l-15 92v16l15 15l62 -15l139 15h31
v-46l107 46h16v-15l-31 -31v-16l15 -15v-15l-30 -47v-15q46 0 46 -31v-15l-16 -16l16 -15v-31h-62q0 -62 62 -77l-16 -15l31 -62l-92 -108h77v-15l-31 -31l15 -46v-16l-15 -15v-16l15 -15v-15h-30v-16q0 -31 61 -31v-46l-46 16l-46 -16v-31q77 0 77 -30v-16h-16l-15 16h-15
v-47l15 16l31 -31v-16l-16 -15l-61 46q0 -92 61 -92v-31l-30 -46v-16h61v-11h137l91 -30q-39 -89 -99 -146q-1 -20 -3 -37h11q26 -31 76 -31v-30h-31v-16l16 -15l-31 -46v-76h-30q0 -61 61 -91q0 -46 30 -46q-29 -122 -152 -122h-16l-15 15l-198 -30v15l-15 15v61l15 15
l-15 16v30l15 61q-13 95 -30 124l-1 -2l-31 13l6 10h-145zM115 610v-31h30q0 -45 31 -45l30 61v30h-15zM764 1109q0 47 30 47v15l-77 62v-62l16 15l31 -30h-31v-47h31zM343 534q0 -31 -45 -31l-16 -15v-15l16 -16h15l46 46h15v31h-31zM887 231l24 -24l46 88l-70 -18v-46z
M328 152v-45l76 15v30h-76zM949 1186l15 16v15l-15 16h-16l-15 -16v-15l15 -16h16zM359 625v-15l30 -31v46h-30zM887 -236l16 -16l30 31h-46v-15zM1086 8h30l8 43q-4 -13 -8 -13q-25 0 -30 -30zM841 1371v31h-16v-31h16zM1009 -221l31 -31v16l-31 30v-15zM587 122v-15
l31 -31v15zM328 1143v-30h31zM404 762h31v-30zM191 1159v-31h15v31h-15zM1147 -206h15l-31 31h-15zM557 213v-30h15v30h-15zM1025 -160h30v15h-30v-15zM618 229l20 -20l1 14l-6 6h-15zM781 -8l10 -10l4 8l-14 6v-4zM796 -23l-15 -15l10 20zM981 339l-10 -3l5 -6zM827 62h-1
v-9l1 1v8z" />
    <glyph glyph-name="uni0437" unicode="&#x437;" horiz-adv-x="891" 
d="M786 1000v-1l31 31v-16l-25 -24l25 -36l-15 -15l30 -31q0 -29 -91 -60v-15l15 -15v-15h15l-15 -15v-15l-15 15h-10l-81 -46l81 -46h10l15 15v-15l15 -15h-15v-15l-15 -15v-15q91 -31 91 -60l-30 -31l15 -15l-25 -37l25 -23v-16h15l30 -30l-30 -30v-1l-15 -15h-1l-21 -21
l37 -9q0 -99 -61 -168v-13h-12q-29 -29 -70 -53q-20 -38 -39 -38h-15l11 17q-15 -7 -31 -13l5 -4v-15l-106 -16v6l-30 -6h-76q-70 11 -121 24v-24h-61q-79 0 -91 46l25 25q-25 17 -25 35v17q-15 23 -15 59l15 15v16l-15 196l15 16h15l1 -1q128 -31 157 -96q40 -8 87 -9
l34 17l14 37l-5 6l-76 -15h-15v30l116 34l14 38l-15 21q-61 12 -123 89h-37l15 -15v-15l-15 -15h-15l-16 15v15l16 15h-61q-25 0 -39 91q-4 7 -6 15q1 8 1 15t-1 15q2 8 6 15q14 91 39 91h61l-16 15v15l16 15h15l15 -15v-15l-15 -15h37q62 77 123 89q7 10 15 20l-14 38
l-116 35v30h15l76 -15l5 5l-14 38l-34 17q-47 -1 -87 -10q-29 -64 -157 -95l-1 -1h-15l-15 16l15 196v16l-15 15q0 35 15 58v18q0 18 25 35l-25 25q12 46 91 46h61v-25q51 13 121 25h76l30 -6v6l106 -16v-15l-5 -5l31 -12l-11 17h15q19 0 39 -39q41 -23 70 -52h12v-13
q61 -69 61 -168l-37 -9l21 -21h1l15 -15v-1l30 -30l-30 -30h-15v37l-42 -23q-9 -19 -19 -45v-15h14zM756 1197v45l-76 15l-13 -13l44 -33v-15l-15 -15v-15l2 -2q9 26 58 33zM696 303l15 -15v-15l-44 -33l13 -13l76 15v45q-49 6 -58 33l-2 -2v-15zM756 485q10 -27 19 -45
l42 -23v37l-31 30l-16 16h-14v-15zM484 288l-16 -61l16 -15h30v15l-15 46l15 15h-30zM514 1196l-15 15l15 46v15h-30l-16 -15l16 -61h30zM741 954h-30l45 -46h30v31zM786 576h-30l-45 -46h30l45 15v31zM241 1212h15v30h-30l-10 -5zM226 242h30v30h-15l-25 -25zM259 1407
q-73 -4 -90 -34q30 18 90 34zM259 76q-59 17 -90 34q17 -29 90 -34zM711 893l-31 31v-31h31zM680 591v-31l31 31h-31zM408 227h30v31zM438 1226v31h-30zM756 1106v14h-30l14 -14h16zM726 364h30v14h-16zM726 1151v-15l15 15h-15zM726 333h15l-15 15v-15zM726 848v15h-8
q4 -7 8 -15zM726 621v14q-4 -8 -8 -14h8z" />
    <glyph glyph-name="uni0439" unicode="&#x439;" horiz-adv-x="1101" 
d="M166 0h-30v30h30v-30zM715 61l-30 -31h-16l46 46v-15zM868 198v-30h15v30h-15zM166 290h-15l-30 30h15zM380 305l-16 -15l31 -31v46h-15zM486 381l-30 -30l46 -16l15 16zM730 366h-30v30h30v-30zM730 549l-30 -61h-31v30l16 16l-16 15v15l31 31h30v-46zM441 595h-31v30
h31v-30zM380 671q0 -61 -61 -61v-15l61 -31l-16 -46v-15h31v31h30l16 -46h15l15 15l-15 46q0 46 76 46v15q-55 0 -76 91zM715 762l-30 -30q0 -31 91 -46v76h-61zM441 793l-16 -61h16l30 30zM776 808v-30h15v30h-15zM715 854h-15v-61h15l31 30zM227 945v-30l31 30h-31z
M517 899h-15l-31 31l31 30zM197 991v-46h15l15 15zM791 1082h-15v-30h46zM105 1098l-15 -16l-30 31h45v-15zM929 1250h-16v31h16v-31zM121 1342h-16v30h16v-30zM1020 1387v-45l-30 -31h-16v76h-15l-46 -30l-30 30h-15l-16 -15l16 -76l-61 -15l45 -122h16q30 0 30 45h15
l46 -45q31 0 31 76l30 -31v-198l-30 -30h-31l15 76h-45v-31h-31v31h-46l31 -76v-16h-31l-91 77l-61 -31l30 -30l-30 -77v-15l15 -15l76 30v16h-30v15l30 30h16v-45h15l15 15h31v-15q0 -31 -46 -31v-30h61q0 45 30 45q31 0 31 -45l46 15l-31 30v16l15 15l46 -46v-213l-15 -61
l15 -61v-198l-46 -46h-15l15 61v15l-15 15l-46 -45q-30 0 -30 45l-46 -15v-15l31 -46q0 -46 -61 -46l137 -106l46 30l-31 46v15h15l46 -46v-152l-30 -31h-46l-15 16v15l15 15l-31 31l-45 -46l-122 122l30 30l-30 92v15l45 46l-45 107l15 106h30l16 -15l15 15h15l15 -15
l-30 -46v-30h15q31 0 31 61h30q0 -46 31 -46h15v31l-31 45v16h77v15l-31 30h-15l-15 -15l-16 15l31 46v31h-15q-31 0 -31 -46h-30q0 46 -31 46h-15v-61l15 -16l-61 -30q-40 34 -152 46l-16 -138q-88 -305 -137 -305l31 -45v-46l-92 -76l-46 30l-15 -76l-46 15l-45 -15
q-31 0 -31 61h-30l-15 -15q-30 69 -61 76l30 30l-30 46v31l15 15q76 0 76 30v16q-26 64 -107 137q0 30 46 30v31h-76v30q51 0 61 92l-15 15l30 31l-46 91v15l77 16v30l-61 -15h-16l-15 15q0 30 76 30v16q-26 61 -61 61v15l31 30l-31 31l46 76l-30 31l45 76l-15 46l15 15
l46 -31h46l15 46l-15 61h-61q-8 -61 -46 -61h-46v46q46 0 61 76q46 0 46 61h183l15 -15l-15 -61l15 -61q0 -31 -61 -31v-30q76 0 76 -137v-16l-15 -15v-15l15 -15l-45 -77v-15l30 -30l-15 -16q9 -91 107 -91v15l15 15v16h-46v30l15 -15l77 30v31l-16 107h-30l-15 -16l-16 16
q60 91 107 91v46h-46l31 168q76 -11 76 -46q0 -31 -46 -31v-15q46 0 46 -46l92 46l-16 92l-45 -31l-46 31l15 61h15l46 -31q0 61 31 61h228zM392 1842h42l41 -13l70 13h181l41 -41q0 -28 -41 -28l28 -42v-42l-14 -13v-14l27 -28l-41 -14l28 -42v-42l-14 -13v-14l-98 14h-41
q0 55 -42 55h-14v-55l-28 27l14 14h-42q-28 0 -28 -41h-97v69l28 42l-28 28v153zM642 1564v-14h28l14 42h-14z" />
    <glyph glyph-name="uni0447" unicode="&#x447;" 
d="M157 1432q277 -10 277 -93l-46 -15v-31l77 -77l-61 -16v-15q0 -31 46 -31l15 -15v-31h-61l30 -47l-15 -46l15 16h16l15 -16v-15l-61 -62l15 -16h15l16 16q23 -62 46 -62l31 31h108q8 62 46 62l-46 77v62l46 77l-30 31l108 61v16l-16 15h-15l-31 -31q-62 26 -62 109l31 30
h201l46 -46l-16 -62l16 -15v-16l-16 -46l93 -15v-31h-46l-16 15h-15v-31q15 -61 77 -61l16 15l15 -15v-16l-77 -15v-16h31v-30l-16 15h-62q47 -93 93 -93v-15q-93 0 -93 -77h16l46 -31l47 15l-16 -15v-16l16 -15v-15l-31 -31l15 -77l-15 -47l-78 16v-16l16 -15v-16l-16 -46
l78 -93l-31 -30q62 0 62 -78l-16 -15h-15l-47 15l-31 -46v-31q58 -5 93 -62v-30l-15 -16l31 -77h-16l-77 15v-15q0 -31 62 -31l15 -15v-31l-31 -31l-46 62h-16q0 -47 -30 -47h-16l-139 16l-61 -16l-16 16v62l16 92l-16 46l16 16v15l-16 47l31 31q-31 24 -31 169l-15 16
l-529 -1l4 881q0 38 62 46zM959 1386h31l-31 -31v31zM249 1293l31 -31l16 15v16h-47zM944 1293h31v-31h-31v31zM743 1231v-31h31zM203 1000l-16 -78l16 -61l77 61q-10 62 -77 78zM882 845v-46l31 31l-16 15h-15zM928 799l31 -31v31h-31zM897 737v-31h31zM944 676h31v30z
M434 614v-47h31l47 31h30l47 -31h31v31l-93 31h-15zM666 259v-31h31v31h-31zM913 197v-46h46v46h-46z" />
    <glyph glyph-name="uni043A" unicode="&#x43a;" horiz-adv-x="1031" 
d="M653 1441h45l166 -30l15 15h15l15 -15q0 -75 -90 -75l15 -75l-60 -15q0 -30 45 -30v-15l-30 -45q0 -30 45 -30l-15 -45l30 -75l-15 -15h-15l-15 15l15 15v30l-61 -60v-30l31 -45q-23 -60 -46 -60l-15 15h-15l-45 -15v-15q106 0 106 -45l-46 -45h-15v30h30v30l-60 -30v-30
q54 0 166 -346q0 -30 -60 -30l15 -75l15 15h60l45 -45l-135 -30v-45l75 15h15l15 -75l-15 -15q122 -10 135 -60l-45 -30q-15 54 -105 75q-15 -90 -75 -90v-15q-241 0 -241 225l-15 45l15 15q-49 0 -105 345h-15l-45 -30h-15v30h-45v-30q0 -30 90 -30v-15l-15 -75h-15
q0 60 -30 60h-30v-30l15 -60q-15 -78 -60 -120l15 -60l-15 -45q28 0 75 -90l-15 -15v-15h15l45 45l-30 30l30 30l15 -15v-135l-30 -30h-30l15 15v45h-30v-60h-45l-60 -15l-90 45q0 -45 -30 -45h-15q-30 0 -45 165h15l-15 15l15 75v931l30 30l45 -30h30l15 45l-15 45h-45v-30
h-60v135l30 30h180l45 -45l-15 -15v-15l30 -75h-15q-45 0 -45 -30v-15l45 -60l-30 -45v-15h15l15 15h15l60 -15v-15l-30 -30l-30 30h-15l15 -15v-15q-7 -60 -45 -60v-30h30v-60h-30v-30q45 0 45 -30l-15 -15l45 -30h15l15 45h-45l15 75l-15 15l15 15h15l-15 75v15h30l30 -30
l-15 -75h45q141 495 195 495zM939 1426l30 -30h-30v30zM608 1231l30 -30h30v30l-30 30zM894 1246h30v-75h-30v75zM368 1231h30v-30h-30v30zM323 1006h15v-30h-15v30zM173 585v-15h30v15h-30zM804 435v-45h15v45h-15zM383 435h30v-30h-30v30zM353 360q45 -9 45 -120v-15h-30
l-45 75q30 0 30 60zM743 300v-30h46l-31 30h-15z" />
    <glyph glyph-name="uni0445" unicode="&#x445;" horiz-adv-x="925" 
d="M604 1456q139 -15 139 -46l-30 -31v-16q61 0 61 -31v-15q0 -31 -46 -31v-16l31 -31l15 16l16 -16v-15l-47 -16v-31q41 0 78 -93l-78 -15v-47l16 -15v-16q-48 0 -93 -108v-16h47v-31h-31q-31 0 -31 47h-31v-16q0 -77 31 -77l46 15v-15l-15 -62l31 -77h-31q0 46 -31 46
q-62 -23 -62 -46l124 -93l-16 -47h16l46 -15l15 15l62 -170l-15 15h-31v-15l31 -124l-47 -16v-15q42 -62 78 -62v-62l-62 -62h-31l-93 15l-62 -15l-124 263h-15q0 -90 -62 -124l-47 31q0 -31 -46 -31v-31l15 16h47l-31 -31h-78q0 -78 -201 -78l-16 -15h-15l-31 31l263 712
l-170 465l62 62v16l-47 -31l-15 15l15 16v31h-15l-47 -16l-46 124l15 16h124l47 -31l93 15v-62h15l93 62l16 -15v-62q-109 0 -109 -93l16 -16h15l93 31l47 -31q37 0 77 186zM790 1425h15v-31h-15v31zM573 1286v-47l78 16v31h-78zM852 1286h15v-31h-15v31zM310 1224v-16h31
v16h-31zM666 1208l31 -31v31h-31zM387 1177l16 -93h31q0 81 -47 93zM728 1146v-62h31v62h-31zM558 960v-31h31v31h-31zM387 604v-31l31 31h-31zM713 449v-15l30 -31v46h-30zM372 403l-16 -16v-15l16 -16h15l16 16v15l-16 16h-15zM387 325v-46h31l16 46h-47zM836 341l78 -140
l-16 -15h-15l-47 31l16 15l-16 78v31zM325 294v-31l31 31h-31zM558 279v-31h31v31h-31zM372 248l-16 -16v-15l47 -47h15q-20 78 -46 78zM914 155h15v-31h-15v31zM372 62h31l-31 -31v31zM325 46h16l31 -31h-47v31z" />
    <glyph glyph-name="uni0436" unicode="&#x436;" horiz-adv-x="1623" 
d="M397 1441q54 0 195 -495h45l-15 75l30 30h8v37l-8 8v15l8 2v88h-8v30h30v-8l8 8l45 -30h14l23 30v15q0 30 -45 30h-7v-15h-60v135l30 30h262l30 -30v-135h-60v15h-7q-45 0 -45 -30v-15l22 -30h15l45 30l8 -8v8h30v-30h-8v-88l8 -2v-15l-8 -8v-37h8l30 -30l-15 -75h45
q141 495 195 495h45l166 -30l15 15h15l15 -15q0 -75 -90 -75l15 -75l-60 -15q0 -30 45 -30v-15l-30 -45q0 -30 45 -30l-15 -45l30 -75l-15 -15h-15l-15 15l15 15v30l-61 -60v-30l31 -45q-23 -60 -46 -60l-15 15h-15l-45 -15v-15q106 0 106 -45l-46 -45h-15v30h30v30l-60 -30
v-30q54 0 166 -346q0 -30 -60 -30l15 -75l15 15h60l45 -45l-135 -30v-45l75 15h15l15 -75l-15 -15q122 -10 135 -60l-45 -30q-15 54 -105 75q-15 -90 -75 -90v-15q-241 0 -241 225l-15 45l15 15q-49 0 -105 345h-15l-38 -26v-34h23v-15l-15 -75h-8v-45h23v-30h-23v-89
q8 -29 8 -76v-10l5 -25l10 -10v-135l-30 -30h-7q-7 -15 -16 -15h-15q-18 0 -25 15h-27l-60 -15l-4 2l-4 -2l-60 15h-28q-7 -15 -24 -15h-15q-9 0 -17 15h-6l-30 30v135l10 10l5 25v10q0 47 8 76v89h-23v30h23v45h-8l-15 75v15h23v34l-38 26h-15q-56 -345 -105 -345l15 -15
l-15 -45q0 -225 -241 -225v15q-60 0 -75 90q-90 -21 -105 -75l-45 30q13 50 135 60l-15 15l15 75h15l75 -15v45l-135 30l45 45h60l15 -15l15 75q-60 0 -60 30q112 346 166 346v30l-60 30v-30h30v-30h-15l-46 45q0 45 106 45v15l-45 15h-15l-15 -15q-23 0 -46 60l31 45v30
l-61 60v-30l15 -15l-15 -15h-15l-15 15l30 75l-15 45q45 0 45 30l-30 45v15q45 0 45 30l-60 15l15 75q-90 0 -90 75l15 15h15l15 -15l166 30h45zM1486 1246h30v-75h-30v75zM412 1261l-30 -30v-30h30l30 30zM156 1171h-30v75h30v-75zM1200 1231l30 -30h30v30l-30 30zM292 300
l-31 -30h46v30h-15zM1335 300v-30h46l-31 30h-15zM1396 435v-45h15v45h-15zM231 435v-45h15v45h-15zM111 1396h-30l30 30v-30zM1531 1426l30 -30h-30v30zM990 856h-8v-24zM660 832v24h-8z" />
    <glyph glyph-name="uni0449" unicode="&#x449;" horiz-adv-x="1848" 
d="M450 1006l-46 -46h-15v46l-15 15h-31q0 -41 -45 -91q49 0 76 -122h30v15l-15 15v16h31v-31l15 -15l-15 -15h-31l15 -16v-15h31v-30l-31 30h-76v-30l61 -15l-15 -16v-30h30v46h16l15 -16h15q-11 -91 -30 -91l30 -153l-15 -15l-15 15h-16l-91 -30v-31l107 31q0 -28 137 -46
l61 15h15v150l-8 9v570q0 23 27 29l-19 20v15l10 10q-18 22 -18 80v15l8 8v50l-8 50v16l15 15l31 -8l8 8h4q17 -1 32 -2q43 -2 78 -4l48 6h31v-12q40 -5 57 -10l50 22h16v-15l-31 -31v-13q10 -2 24 -2v-30h-9v-1l-17 -26l23 -45q9 -7 10 -20l23 -46l-15 -15h-8v-18h-60
q10 -24 22 -58h11l16 15l2 -2l2 2l15 -15l-9 -19h1l-1 -1l-10 -24l17 -35q5 3 13 3h4v-31l-46 -46h-11l-43 -51h77v-15l-31 -31l3 -9h21v-31l15 -15l-15 -15h-17l-7 -7v-1l8 -8v-15h31v-30l-4 4v-4l-20 19v-11h-30v-21l8 -2l-5 -6q4 -8 16 -13v19h20l15 -16h15
q-4 -30 -8 -50v-4h-1q-9 -37 -21 -37l2 -11q5 -6 5 -13v-13l23 -116l-15 -15l-2 2l-2 -2l-15 15h-12l-17 -6q10 -4 24 -4v-22l5 2v-2l4 2q0 -28 134 -46l60 15h20l18 97l4 -1v1l108 -31h11l15 46l-15 47h-42l-62 -47l-2 1l-2 -1l-46 47v570q0 31 46 31v30h-1q-45 0 -45 93
v15l15 16l-15 92v16l15 15l3 -1l1 1l61 -15l136 15h35v-45l103 45h20v-15l-31 -31v-16l15 -15v-15l-30 -47v-15q46 0 46 -31v-15l-16 -16l16 -15v-31h-62q0 -62 62 -77l-16 -15l31 -62l-92 -108h77v-15l-31 -31l15 -46v-16l-15 -15v-16l15 -15v-15h-30v-16q0 -29 52 -31h5h4
v-46l-4 1v-1l-44 15l-44 -15v-31q77 0 77 -30v-16h-20l-15 16h-11v-43l11 12l2 -2l2 2l31 -31v-16l-16 -15l-2 1l-2 -1l-57 43q1 -89 61 -89v-31l-30 -46v-16h61v-11h133l91 -30q-39 -89 -99 -146q-1 -20 -3 -37h11q26 -31 76 -31v-30h-31v-16l16 -15l-31 -46v-76h-30
q0 -61 61 -91q0 -46 30 -46q-29 -122 -152 -122h-16l-15 15l-198 -30v15l-15 15v61l15 15l-15 16v30l15 61q-13 95 -30 124l-1 -2l-31 13l6 10h-145l-4 4q-8 -3 -15 -4h-4q0 30 -46 30q-29 59 -87 61v-30h-69v-30l-31 -31h-308l-5 5q-9 -3 -18 -5q0 30 -46 30q-30 61 -91 61
v-30h-76l-46 -31l-15 16h-16v-31h-30q0 50 -31 76v16h-30q-59 -66 -153 -107l-30 91v153l15 15l-15 15v641l15 15l-15 15v153l30 45l-30 31v15l30 31l46 -46h15q5 76 46 76l-15 61h-76q0 -46 -31 -46l-15 16v106l46 46q259 -10 259 -30q0 -31 46 -31v-30h-31v-16l61 -122
l-15 -15h-15q-31 35 -31 107l-61 -76q25 0 61 -107h15l16 15l15 -15l-46 -107l15 -15h16q0 46 30 46v-31zM115 610v-31h30q0 -45 31 -45l30 61v30h-15zM1328 1109q0 47 30 47v15l-73 59v-56l12 12l2 -2l2 2l31 -30h-31v-47h27zM343 534q0 -31 -45 -31l-16 -15v-15l16 -16h15
l46 46h15v31h-31zM1455 231l21 -22l44 84l-65 -16v-46zM328 152v-45l76 15v30h-76zM949 1186l15 16v15l-15 16h-16l-15 -16v-16l15 -15h16zM1513 1186l15 16v15l-15 16h-12l-15 -16v-15l15 -16h12zM359 625v-15l30 -31v46h-30zM902 139h66v13h-66v-13zM1451 -236l16 -16
l30 31h-46v-15zM1650 8h30l8 43q-4 -13 -8 -13q-25 0 -30 -30zM717 1174h3l4 4q2 26 8 42l-15 13v-59zM921 501l2 2h15v21l-14 10h-6q0 -19 3 -33zM1573 -221l31 -31v16l-31 30v-15zM1711 -206h15l-31 31h-15zM328 1143v-30h31zM587 122v-15l31 -31v15zM191 1159v-31h15v31
h-15zM557 213v-30h15v30h-15zM1589 -160h30v15h-30v-15zM720 545q7 -10 20 -11l10 21h-17zM1405 1371v31h-12v-31h12zM1125 213v-30h11v30h-11zM1182 91l-27 27v-11l27 -27v11zM764 1156h-5v-28h6q2 7 5 13v18h-9zM927 625v-9q14 -1 26 -3v12h-26zM1186 229l16 -17l1 11
l-6 6h-11zM618 229l15 -15v15h-15zM1345 -8l10 -10l4 8l-14 6v-4zM1360 -23l-15 -15l10 20zM949 1279h4v12l-4 -5v-7zM949 31l11 11l-17 -11h6zM933 31h4l-14 15zM953 583v3h-3zM941 31h-1h-1h2z" />
    <glyph glyph-name="uni0451" unicode="&#x451;" horiz-adv-x="781" 
d="M83 1433h610l46 -46v-30l-30 -46l15 -46l-31 -30l31 -46l-76 -15l76 -92v-15h-31l-45 31h-16q0 -46 -30 -46l-46 46l-15 -16h-15l-46 16q-43 -77 -122 -77l30 -30l46 15v-76q0 -31 153 -46v-15l106 30l16 -15v-107l-31 -121l-76 45l-15 -15v-15l15 -61l-76 15l-31 -30
h-15v45h-15l-61 -15l-46 15l-31 -45h16l15 15h15l15 -15v-16q-30 0 -45 -106q61 0 61 -46l30 -92l92 31h30l46 -46q0 -30 -46 -30v-16l76 -30h16v15h-31v31h15l46 -16l-15 16v30l30 31l31 -31l-15 -15v-15l15 -61q0 -31 -46 -31v-46h31v-45h-16l-15 15h-15q0 -31 -92 -46
v-15q61 -8 61 -46l-15 -15l-15 15h-46l-15 -15h-15l-16 15v15l46 16l-30 30l-61 -46h-16l-61 46l-30 -30l-31 30l-15 -15l-15 15h-15l-46 -30l-46 15l-30 -31h-16v31h-15v-31l15 -15h-61l-30 31v1357zM663 1311v-30h15v30h-15zM556 1250v-30h15v30h-15zM373 1143l-15 -61
v-15h15l31 61l-16 15h-15zM99 1052v-15l45 -46v30l-30 31h-15zM175 1006v-30h30l16 61h-16zM144 960l31 -30h15v30h-46zM343 945v-30h15v30h-15zM373 945v-30h15v30h-15zM129 899v-15l76 -30v45h-76zM99 869v-31l30 31h-30zM678 610l31 -31v-30h-61v30zM480 564h30v-15h-30
v15zM327 381l61 -46v77h-30zM129 290l31 -31h61v31h-92zM343 290v-16h30v16h-30zM419 290v-16h30v16h-30zM172 1910h111q59 0 126 -223l-28 -27l14 -14v-14q-14 -56 -56 -56l-42 14v-14l14 -42l-14 -13h-41l14 13v42h-28q-28 0 -28 -69h-14q-129 0 -167 194q0 123 139 209z
M158 1785v-14h42v14h-42zM595 1912h111q59 0 126 -223l-28 -27l14 -14v-14q-14 -56 -56 -56l-42 14v-14l14 -42l-14 -13h-41l14 13v42h-28q-28 0 -28 -69h-14q-129 0 -167 194q0 123 139 209zM581 1787v-14h42v14h-42z" />
    <glyph glyph-name="uni0433" unicode="&#x433;" horiz-adv-x="811" 
d="M618 1342v15l-31 -31v-15zM404 1281v30l-76 15v-45h76zM572 1220v30h-15v-30h15zM633 1204l31 31h-16l-30 -31h15zM648 1082l16 16l-31 30v-46h15zM374 899v31h-15l-46 46h-15l-16 -16v-15l16 -15q45 0 45 -31h31zM389 808v46l-30 -31v-15h30zM191 808h15v30l-30 61
q-31 0 -31 -45h-30v-31zM435 701v-30h-31zM450 396q-30 0 -30 46h-16l-15 -15v46h15l46 -46v-31v0zM359 320h-31v-30zM206 274v31h-15v-31h15zM69 46v106l15 16q31 0 31 -46h76l15 61q-41 0 -46 76h-15l-46 -46l-30 31v15l30 31l-30 45v153l15 15l-15 15v641l15 15l-15 15
v153l30 91q94 -41 153 -107h30v16q31 26 31 76h30v-31h16l15 16l46 -31h76v-30q61 0 91 61q46 0 46 30q122 -29 122 -152v-16l-15 -15l30 -198h-15l-15 -15h-61l-15 15l-16 -15h-30l-61 15q-137 -18 -137 -46l-107 31v-31l91 -30h16l15 15l15 -15l-30 -153q19 0 30 -91h-15
l-15 -16h-16v46h-30v-30l15 -16l-61 -15v-30h76v-15l-15 -16h31l15 -15l-15 -15v-31h-31v16l15 15v15h-30q-27 -122 -76 -122q45 -50 45 -91h31l15 15l46 -107l-15 -15l-16 15h-15q-36 -107 -61 -107l61 -76q0 72 31 107h15l15 -15l-61 -122v-16h31v-30q-46 0 -46 -31
q0 -20 -259 -30z" />
    <glyph glyph-name="uni0431" unicode="&#x431;" horiz-adv-x="1036" 
d="M929 198h-30v-31h-31l16 77v30h-61l15 -46q-20 -91 -46 -91h-15l-15 46v15l15 15v15h-15l-15 -15h-16q-30 0 -30 46h-15l-16 -15h-30l-15 15v-31l15 -15l-76 -15v-31l61 -15l-16 -76h16q35 31 106 31v15l-15 15l31 30h15q0 -57 -46 -121l-46 15q-58 -61 -198 -61h-365
l-31 30v9l-7 7v106l7 7v24l-2 55l-5 6v15l5 5l-2 66l-3 5v131l-8 311v15l8 8v50l-8 49v487l33 33l5 14q3 -2 6 -3l2 2l12 -8q21 -11 40 -22h9l45 30h46l15 -15q0 -31 -90 -31q38 -27 68 -60h30v16q31 26 31 76h30v-31h16l15 16l46 -31h76v-30q61 0 91 61q46 0 46 30
q122 -29 122 -152v-16l-15 -15l30 -198h-15l-15 -15h-61l-15 15l-16 -15h-30l-61 15q-137 -18 -137 -46l-54 15q19 -22 30 -43l8 -2h16l15 15l15 -15l-11 -54l79 22q0 -60 31 -60h15l61 45h15v-15l-46 -76q61 -46 61 -76h76q0 45 31 45l30 -30l-30 -31q0 -53 152 -76v15
l-15 16v15l15 15h-76l61 46h15l15 -15l46 15l-15 -76q20 0 30 -122l-15 -15l31 -31l-31 -91l31 -46q-46 -53 -46 -183zM579 350q0 61 46 61v15l-16 92l16 46l-76 45h-107v-122h-31l-15 16q0 45 -46 45h-1q-6 -12 -12 -21l42 -110l10 10l9 -23q6 19 23 21q-1 8 -1 17h-16
l-15 -15v46h15l46 -46v-31h-1l8 -30h15q0 -61 -45 -61v-31zM899 442h15l15 106l-30 31h-15q0 -61 -46 -61zM110 151l58 -14v-15h23l15 61q-41 0 -46 76h-15l-6 -6l13 -40q0 -30 -45 -30v-26q1 -3 3 -6zM929 289v31l-15 76h-46v-15l31 -92h30zM457 137v107l-17 -6l10 -9
l-59 -118l5 -4zM206 838l-8 15q-61 -3 -61 -30l69 -15v30zM404 1281v30l-23 4v-5l-15 -15h-16l-15 15l7 -29h62zM472 823v45h-30v-45h30zM648 1082l16 16l-31 30v-46h15zM701 853h15l15 -15l-30 -31v46zM633 1204l31 31h-16l-30 -31h15zM411 548v31h-15v-31h15zM618 1342v15
l-31 -31v-15zM762 899h15v-31h-15v31zM572 1220v30h-15v-30h15zM838 305v30h-15v-30h15zM393 185q-6 -2 -12 -2v-16l8 -9q2 15 4 27zM381 289h-3q-1 -3 -2 -5z" />
    <glyph glyph-name="uni0444" unicode="&#x444;" horiz-adv-x="1582" 
d="M97 552q0 130 -46 183l31 46l-31 91l31 31l-15 15q10 122 30 122l-15 76l46 -15l15 15h15l61 -46h-76l15 -15v-15l-15 -16v-15q152 23 152 76l-30 31l30 30q31 0 31 -45h76q0 30 61 76l-46 76v15h15l61 -45h15q31 0 31 60l106 -30l1 1v14q0 41 45 -58v15q-61 0 -61 30
l16 16l15 -16h30l31 61l-5 12l-10 -10h-16l-15 15v31h22l-7 13l9 -13h22l30 -31l15 3v-4q26 0 43 -3l7 17l11 2h46v61q-91 0 -91 31l15 15h46l45 -30h16l45 30l46 -46v-143h27q140 0 198 -61l46 15q46 -64 46 -121h-15l-31 30l15 15v15q-71 0 -106 31h-16l16 -76l-61 -15
v-31l76 -15l-15 -15v-31l15 15h30l16 -15h15q0 46 30 46h16l15 -15h15v15l-15 15v15l15 46h15q26 0 46 -91l-15 -46h61v30l-16 77h31v-31h30l31 -15q0 -130 46 -183l-31 -46l31 -91l-31 -31l15 -15q-10 -122 -30 -122l15 -76l-46 15l-15 -15h-15l-61 46h76l-15 15v15l15 16
v15q-152 -23 -152 -76l30 -31l-30 -30q-31 0 -31 45h-76q0 -30 -61 -76l46 -76v-15h-15l-61 45h-15q-31 0 -31 -60l-106 29l-1 -1v-13q0 -41 -45 -92v-15q61 0 61 -30l-16 -16l-15 16h-30l-31 -61l5 -12l10 10h16l15 -15v-31h-22l7 -13l-9 13h-22l-30 31l-15 -3v4
q-26 0 -43 3l-7 -17l-11 -2h-46v-61q91 0 91 -31l-15 -15h-46l-45 30h-16l-45 -30l-46 46v293h-27q-140 0 -198 61l-46 -15q-46 64 -46 121h15l31 -30l-15 -15v-15q71 0 106 -31h16l-16 76l61 15v31l-76 15l15 15v31l-15 -15h-30l-16 15h-15q0 -46 -30 -46h-16l-15 15h-15
v-15l15 -15v-15l-15 -46h-15q-26 0 -46 91l15 46h-61v-30l16 -77h-31v31h-30zM1023 900h-15l-15 -60h-4l-2 -61h6v-122h107l76 45l-16 46l16 92v15q-46 0 -46 61l-138 68v-25q31 -9 31 -59zM585 705h15l15 60h3l2 61h-5v122h-107l-76 -45l16 -46l-16 -92v-15q46 0 46 -61
l137 -69v26q-30 8 -30 59zM1389 748q46 0 46 -61h15l30 31l-15 106h-15zM219 857q-46 0 -46 61h-15l-30 -31l15 -106h15zM158 628l31 92v15h-46l-15 -76v-31h30zM1450 977l-31 -92v-15h46l15 76v31h-30zM780 168l22 -8q7 4 12 9l-4 -11l61 -21v76l-15 -15h-31v2h-45
q0 -9 -1 -16q1 -7 1 -16zM806 1295q-7 -4 -12 -9l4 11l-61 21v-76l15 15h31v-2h45q0 9 1 16q-1 7 -1 16zM825 1190l-15 15h-15l-13 -9l1 -4h-8l-26 -17l-22 22l-5 -5v-30q45 0 68 -8zM886 413v30q-46 0 -69 7l-34 -35l15 -15h15l13 8l-1 5h8l26 17l22 -22zM795 504l-50 10
l-8 -8q54 -12 76 -26l28 9v46h-31l3 -13l-3 3v-21h-15zM871 1099q-55 12 -77 25l-27 -8v-46h30l-2 13l3 -3v21h15l50 -11zM658 123v-30h45v54q-5 -24 -45 -24zM950 1362h-45v-53q6 23 45 23v30zM767 1362v-26l50 10l11 31zM841 93v26l-50 -10l-11 -31zM1008 1022v107l-20 9
l8 -7v-15l-3 -89zM612 489l2 89l-14 5v-107l19 -10l-7 8v15zM615 1162v45h-30v-45h30zM993 443v-45h30v45h-30zM767 834v-23h28v37q-10 -6 -25 -6q-1 -4 -3 -8zM837 763q2 4 4 9v22h-28v-38q9 6 24 7zM920 1255l-1 1l1 1v15h-15l-24 -15q12 -17 24 -17zM703 215l-15 -15
l1 -1l-1 -1v-15h15l24 15q-12 17 -24 17zM356 1146l-30 31l15 15h15v-46zM1252 459l30 -31l-15 -15h-15v46zM295 1207h-15v31h15v-31zM1313 398h15v-31h-15v31zM234 644v30h-15v-30h15zM1374 961v-30h15v30h-15zM950 842h-23l-12 -32q14 16 35 32zM658 763h23l12 32
q-14 -16 -35 -32zM841 1266h35l-17 17zM749 322l17 17h-34zM905 1271v-29l14 14zM703 184v29l-14 -14zM794 1286q-10 -11 -11 -29zM814 169q10 11 11 29zM841 337l-1 2h-7zM767 1266h8l-8 2v-2zM707 689h-4v-2h2zM901 916h4v2h-2z" />
    <glyph glyph-name="uni044A" unicode="&#x44a;" horiz-adv-x="1296" 
d="M79 1440h42l41 -13l70 13h181l31 -31l34 23h46l15 -15q0 -31 -88 -31q-1 -2 -3 -5v-56h46l76 -15l30 31h46v-31l-15 -15h-16l-15 15l31 -122l-31 -61l31 -61h30l15 16l16 -16q0 -30 -61 -30v-15q45 -51 45 -92v-15l107 30q0 -60 31 -60h15l61 45h15v-15l-46 -76
q61 -46 61 -76h76q0 45 31 45l30 -30l-30 -31q0 -53 152 -76v15l-15 16v15l15 15h-76l61 46h15l15 -15l46 15l-15 -76q20 0 30 -122l-15 -15l31 -31l-31 -91l31 -46q-46 -53 -46 -183l-31 -15h-30v-31h-31l16 77v30h-61l15 -46q-20 -91 -46 -91h-15l-15 46v15l15 15v15h-15
l-15 -15h-16q-30 0 -30 46h-15l-16 -15h-30l-15 15v-31l15 -15l-76 -15v-31l61 -15l-16 -76h16q35 31 106 31v15l-15 15l31 30h15q0 -57 -46 -121l-46 15q-58 -61 -198 -61h-365l-31 30v153l-15 594v15l15 15l-15 92v222h-38q0 55 -42 55h-14v-55l-28 27l14 14h-42
q-28 0 -28 -41h-97v69l28 42l-28 28v153zM844 350q0 61 46 61v15l-16 92l16 46l-76 45h-107v-122h-31l-15 16q0 45 -46 45h-15v-15l46 -122v-15l-15 -15h30q0 45 31 45h15l15 -60h15q0 -61 -45 -61v-31zM433 61l30 30l46 -30h15l15 15l-45 46q0 25 91 45l-30 31h-31l-15 -15
l15 76v15l-61 -61q-30 0 -30 46h-31l15 -46q0 -30 -45 -30v-31l61 -15v-15l-31 -31zM417 1051q23 0 46 61q31 0 31 -46h45q0 46 -61 46q0 31 77 31v30l-61 15l45 46h31l15 -15v76l-91 -31q0 -45 -31 -45l-16 10l-31 -10h1v-7l24 -36v-42l-14 -13v-14l-10 1v-26l-15 -16z
M555 731v46l-46 15q0 31 91 31v30l-15 15h-15l-15 -15h-16l16 76l-61 -15l-31 30l-30 -30l30 -30h15l16 15v-31l-16 -15q-76 0 -76 -30l76 -16l-45 -61l76 16h15v-31h31zM448 411l15 15l-30 46h30l15 -15q0 -46 31 -46v46l-15 15h61v31q-46 0 -46 45h-15l-16 -15
q0 -46 -45 -46l-16 16h-45q61 -46 61 -92h15zM722 137v107l-46 -16q0 -45 -30 -45v-16l15 -15v-15l-15 -15l15 -15zM1164 442h15l15 106l-30 31h-15q0 -61 -46 -61zM1194 289v31l-15 76h-46v-15l31 -92h30zM463 518l-30 61h-16v-61h46zM737 823v45h-30v-45h30zM646 320h15
v30h-46zM966 853h15l15 -15l-30 -31v46zM1027 899h15v-31h-15v31zM676 548v31h-15v-31h15zM646 289h-31v-30zM1103 305v30h-15v-30h15z" />
    <glyph glyph-name="uni044E" unicode="&#x44e;" horiz-adv-x="1660" 
d="M91 1433h308l31 -31v-138h-31l15 15v15h-77v-30l16 -16v-15l-31 -31v-46l123 -31v-46h-61v-16l30 -46v-31q-61 0 -61 -92l61 46l16 -15v-16l-31 -31l-15 16v-47h15l15 16h16v-16q0 -7 -4 -13l12 -4l70 13h30q20 133 62 133l-15 15v15q0 134 152 229l-15 15v15
q95 168 320 168h77l76 -61h15l46 31l76 -77v-30l-15 -61l137 -168h15q0 46 31 46l15 -15l-15 -16v-15l15 -46h-46v-30h61v-31q-61 -7 -61 -45l46 -77l-15 -15v-15l15 -15h15l-15 -15v-31h46q0 46 30 46l15 -15v-16q-9 -45 -106 -45q0 -31 45 -31l16 -15v-15h-77l61 -92
l61 46h16v-15q0 -40 -107 -61l-15 15l-16 -15v-16l31 -30l-15 -15l-16 15h-30v-31l46 -15l-16 -15v-31h16l61 46l15 -15v-15q0 -27 -137 -77l-16 16q-49 -77 -121 -77v-30l76 -31v-30l-16 15h-30v-30l-15 -16l15 -15h15q0 -39 -137 -61v-15h31v-31h-16q-41 0 -45 77
q-61 -23 -61 -46l15 -46l-15 -15h-16q0 28 -106 91v-61h-31l-15 16h-15l-16 -16v31h-15l-46 -31q-186 105 -213 168l15 15q-91 140 -91 183q-23 41 -38 182q-5 1 -10 1h-14v-55l-28 27l14 14h-42q-20 0 -26 -22l4 -4v-15h-77l92 -108l-31 -62l16 -15q-62 -15 -62 -77h62v-31
l-16 -15l16 -16v-15q0 -31 -46 -31v-15l30 -47v-15l-15 -15v-16l31 -31v-15h-16l-107 46v-46h-31l-139 15l-62 -15l-15 15v16l15 92l-15 16v15q0 93 46 93v30q-46 0 -46 31v570l46 47l62 -47h46l15 47l-15 46h-15l-108 -31l-31 169l15 93l-15 154v46zM951 930h-31v76
l-15 -15h-15l-15 15h-16v-107l16 -61l-16 -45h16l-16 -15v-31h61v-30h-61v-16l16 -15v-15l-16 -15l-15 15h-30l30 -46l-46 -46v-15l46 31l15 -46l16 15h15l61 -61v-76l-15 -15v-16l183 -30q85 137 137 137l-15 15v61h45v16q-61 0 -61 30l31 46l-46 46v91l-15 91l15 46
q-66 81 -152 92q-57 0 -107 -107zM1103 1311l16 -15v-46h-46v-30q46 0 46 -31l-16 -15v-15l16 -16h15q0 46 30 46l31 -30v45q-61 0 -61 31l15 15v15l-15 46h-31zM168 324v-47h31l-31 -30l-16 15v-62l77 62v15q-30 0 -30 47h-31zM1439 305h61l-16 -76h-30zM783 762v-76h15
l31 31v45h-46zM768 564v31l-31 30l-15 -15h-15l-5 15l-13 -4l28 -42v-15h51zM1332 945v-30l61 -16l15 46h-76zM1134 229l91 15v30h-45zM890 1235v-31h30l31 31l-31 30zM875 274l15 -45h15l31 30v15h-61zM368 247l-15 -16v-15l15 -16h16l15 16v15l-15 16h-16zM368 1402
l-31 -46h31l31 31l-15 15h-16zM1180 1296v-15h15l30 30v15h-15zM1042 274v-15h61v15h-61zM936 915v-46l-31 30l15 16h16zM1088 213v-45l31 30l-16 15h-15zM260 62v-31h16v31h-16zM1210 152h31v31zM1164 198v-30h16v30h-16zM1332 46h30v-16h-30v16zM722 213v-15h31v15h-31z
M1149 335v-30l31 30h-31zM890 442h30v31zM1241 1326v-15h30v15h-30zM1088 335v-30h15v30h-15zM1180 1235v-15h30v15h-30z" />
    <glyph glyph-name="uni0410" unicode="&#x410;" 
d="M377 1448l15 -15l106 15h151l45 -30h75v-15l-15 -15v-15h30v-31l-45 -15l15 -15v-45l-15 -15l15 -75h30l46 30l15 -46l-15 -15v-15l30 -151h-30v61l-61 -30l-45 15v-15l91 -76v-15l-16 -45h46v45l30 -30v-60l-45 30l-31 -45q0 -46 106 -46l15 -75h-15q-45 0 -45 -30
l15 -46l-15 -90v-30h15l15 15l15 -15h30l-30 60l15 15v15l-30 76h15q45 0 60 -242l-15 -15l30 -30l-15 -15v-15l15 -15l-30 -30v-15q0 -31 46 -31l15 -15v-15l-31 -30h31v-30q-46 0 -46 -30l61 -15l-15 -61l15 -45h-151l-60 15l-121 -30q-45 40 -76 226l-15 15h-15l-15 -15
h-15l-45 15l-91 -15v30h-15l-30 -30v-15l15 15h30q0 -90 -60 -90v-15l30 -46v-30q0 -30 -196 -45l-60 30l-121 -15l-15 15v30q75 498 121 498l-15 45l15 15v16l-15 15v15q96 588 120 588l-15 15v15q0 166 166 166zM287 1312v-75h45v15l-30 60h-15zM558 1267v-30h30v30h-30z
M769 1101v-15h30v15h-30zM468 950l30 -135l-61 -151l31 -76h105l-45 317v91h-15zM724 799l30 -30v30h-30zM784 588h31v30zM860 422h15l30 31v15zM347 332v-15h60v15h-60zM528 332l-30 -45v-15q60 22 60 45l-15 15h-15zM920 166h15l30 30h-15zM317 121v-30l30 30h-30z
M965 106v-31h31v31h-31zM875 91l-15 -46h15l30 30v16h-30z" />
    <glyph glyph-name="uni0411" unicode="&#x411;" horiz-adv-x="1036" 
d="M929 198h-30v-31h-31l16 77v30h-61l15 -46q-20 -91 -46 -91h-15l-15 46v15l15 15v15h-15l-15 -15h-16q-30 0 -30 46h-15l-16 -15h-30l-15 15v-31l15 -15l-76 -15v-31l61 -15l-16 -76h16q35 31 106 31v15l-15 15l31 30h15q0 -57 -46 -121l-46 15q-58 -61 -198 -61h-365
l-31 30v9l-7 7v106l7 7v24l-2 55l-5 6v15l5 5l-2 66l-3 5v131l-8 311v15l8 8v50l-8 49v487l33 33l5 14q3 -2 6 -3l2 2l12 -8q21 -11 40 -22h9l45 30h46l15 -15q0 -31 -90 -31q38 -27 68 -60h30v16q31 26 31 76h30v-31h16l15 16l46 -31h76v-30q61 0 91 61q46 0 46 30
q122 -29 122 -152v-16l-15 -15l30 -198h-15l-15 -15h-61l-15 15l-16 -15h-30l-61 15q-137 -18 -137 -46l-54 15q19 -22 30 -43l8 -2h16l15 15l15 -15l-11 -54l79 22q0 -60 31 -60h15l61 45h15v-15l-46 -76q61 -46 61 -76h76q0 45 31 45l30 -30l-30 -31q0 -53 152 -76v15
l-15 16v15l15 15h-76l61 46h15l15 -15l46 15l-15 -76q20 0 30 -122l-15 -15l31 -31l-31 -91l31 -46q-46 -53 -46 -183zM579 350q0 61 46 61v15l-16 92l16 46l-76 45h-107v-122h-31l-15 16q0 45 -46 45h-1q-6 -12 -12 -21l42 -110l10 10l9 -23q6 19 23 21q-1 8 -1 17h-16
l-15 -15v46h15l46 -46v-31h-1l8 -30h15q0 -61 -45 -61v-31zM899 442h15l15 106l-30 31h-15q0 -61 -46 -61zM110 151l58 -14v-15h23l15 61q-41 0 -46 76h-15l-6 -6l13 -40q0 -30 -45 -30v-26q1 -3 3 -6zM929 289v31l-15 76h-46v-15l31 -92h30zM457 137v107l-17 -6l10 -9
l-59 -118l5 -4zM206 838l-8 15q-61 -3 -61 -30l69 -15v30zM404 1281v30l-23 4v-5l-15 -15h-16l-15 15l7 -29h62zM472 823v45h-30v-45h30zM648 1082l16 16l-31 30v-46h15zM701 853h15l15 -15l-30 -31v46zM633 1204l31 31h-16l-30 -31h15zM411 548v31h-15v-31h15zM618 1342v15
l-31 -31v-15zM762 899h15v-31h-15v31zM572 1220v30h-15v-30h15zM838 305v30h-15v-30h15zM393 185q-6 -2 -12 -2v-16l8 -9q2 15 4 27zM381 289h-3q-1 -3 -2 -5z" />
    <glyph glyph-name="uni0412" unicode="&#x412;" horiz-adv-x="1039" 
d="M159 1433h60l15 -15l15 15h226q155 0 362 -106l-15 -15v-30h30v-15l-15 -15l31 -60l45 15v-15l15 -61l-15 -45h15l30 -30v-76l-15 -75h-30l-15 15h-15v-45q45 0 45 -30q-51 0 -91 -76v-15q136 -142 136 -256l-15 -15l30 -30v-16l-30 -45v-15q45 0 45 -30q-30 0 -30 -60
l-15 -15h-15l-30 30q0 -46 -61 -46v-30l61 -15q-15 -105 -45 -105l-46 45q-45 0 -45 -45h-30l-15 15h-15v-30q-46 0 -46 -61l-105 -15l-30 30v15l60 15l45 -15v15l15 46l-166 -76l-15 15h-45q0 -38 -75 -45l-15 15h-15l-91 -15l-15 15l-30 -30h-106l-30 30v106l15 60l-15 60
l15 16l-15 75v136l15 196l-15 45l15 241v257q0 30 121 45v-30h-30l30 -30l75 30v30q-45 0 -45 60l-91 -60h-30l-30 30v91q15 45 91 45zM626 1267l30 -30l15 15v15h-45zM506 1131q0 -45 -61 -45l-15 -45l15 -15v-15l-30 -31l-30 31l-30 -31q65 0 105 -90q83 0 151 75
q-28 107 -105 166zM355 1071v-30h30zM852 996v-31h16v31h-16zM883 996v-31h30v31h-30zM430 664l15 -76v-15l-30 -120l15 -76h60q106 0 106 106v60l-121 91v45zM204 649v-15l45 -46h60v15q-45 0 -45 46h-60zM128 603v-15q61 0 61 -45h45v15l-45 45h-61zM913 573v-30h15v30
h-15zM355 422v-30h45v30h-45zM913 422v-45l30 30v15h-30zM309 392l31 -30v30h-31zM898 332v-15h15l30 30v15h-15zM822 272h30l16 60q-23 0 -46 -60zM943 256h15v-30h-45zM219 75h60v46q-60 -23 -60 -46z" />
    <glyph glyph-name="uni0413" unicode="&#x413;" horiz-adv-x="811" 
d="M618 1342v15l-31 -31v-15zM404 1281v30l-76 15v-45h76zM572 1220v30h-15v-30h15zM633 1204l31 31h-16l-30 -31h15zM648 1082l16 16l-31 30v-46h15zM374 899v31h-15l-46 46h-15l-16 -16v-15l16 -15q45 0 45 -31h31zM389 808v46l-30 -31v-15h30zM191 808h15v30l-30 61
q-31 0 -31 -45h-30v-31zM435 701v-30h-31zM450 396q-30 0 -30 46h-16l-15 -15v46h15l46 -46v-31v0zM359 320h-31v-30zM206 274v31h-15v-31h15zM69 46v106l15 16q31 0 31 -46h76l15 61q-41 0 -46 76h-15l-46 -46l-30 31v15l30 31l-30 45v153l15 15l-15 15v641l15 15l-15 15
v153l30 91q94 -41 153 -107h30v16q31 26 31 76h30v-31h16l15 16l46 -31h76v-30q61 0 91 61q46 0 46 30q122 -29 122 -152v-16l-15 -15l30 -198h-15l-15 -15h-61l-15 15l-16 -15h-30l-61 15q-137 -18 -137 -46l-107 31v-31l91 -30h16l15 15l15 -15l-30 -153q19 0 30 -91h-15
l-15 -16h-16v46h-30v-30l15 -16l-61 -15v-30h76v-15l-15 -16h31l15 -15l-15 -15v-31h-31v16l15 15v15h-30q-27 -122 -76 -122q45 -50 45 -91h31l15 15l46 -107l-15 -15l-16 15h-15q-36 -107 -61 -107l61 -76q0 72 31 107h15l15 -15l-61 -122v-16h31v-30q-46 0 -46 -31
q0 -20 -259 -30z" />
    <glyph glyph-name="uni0414" unicode="&#x414;" horiz-adv-x="1632" 
d="M1093 -38h-31l-15 15l-76 15q0 -19 -91 -30v15l-8 8l-8 -8l-15 15v31l-16 -15h-14l30 -31h-30v31h-1v-31h-30l30 31h-14l-16 15v-31l-15 -15l-7 8l-9 -8v-15q-91 11 -91 30l-76 -15l-15 -15h-31q0 3 1 6l-32 -6l-15 15l15 15v5l-45 -20l-1 2q-17 -29 -30 -124l15 -61v-30
l-15 -16l15 -15v-61l-15 -15v-15l-198 30l-15 -15h-16q-123 0 -152 122q30 0 30 46q61 30 61 91h-30v76l-31 46l16 15v16h-31v30q50 0 76 31h11q-2 17 -3 37q-60 57 -99 146l91 30h153l16 -15l14 15h17l184 534l63 49l45 -46l45 1l32 48v45h-15l-117 -34l27 168l46 94
l39 153l15 46l42 32l308 8l5 -8h227l31 -31v-138h-31l15 15v15h-77v-30l16 -16v-15l-31 -31v-46l123 -31v-46h-61v-16l30 -46v-31q-61 0 -61 -92l61 46l16 -15v-16l-31 -31l-15 16v-47h15l15 16h16v-16q0 -30 -77 -30v-31l46 -16l46 16v-46q-61 0 -61 -31v-16h30v-15
l-15 -15v-16l15 -15v-16l-15 -46l31 -31v-15h-77l92 -108l-31 -62l16 -15l-10 -3l7 -8l16 15h153l91 -30q-39 -89 -99 -146q-1 -20 -3 -37h11q26 -31 76 -31v-30h-31v-16l16 -15l-31 -46v-76h-30q0 -61 61 -91q0 -46 30 -46q-29 -122 -152 -122h-16l-15 15l-198 -30v15
l-15 15v61l15 15l-15 16v30l15 61q-13 95 -30 124l-1 -2l-45 19v-4l15 -15l-15 -15l-32 6q1 -3 1 -6zM954 878l46 47l62 -47h46l15 47l-15 46h-15l-108 -31l-27 147l-34 -1l-6 -16l14 -45l-10 -31q-61 -1 -93 -93l77 47l11 -14l-6 -16l-42 -32l-9 15l-16 -47l15 1l20 16
l16 1l-5 -16q-11 -30 -88 -32l-11 -31l41 -15l51 17l-15 -46q-61 -2 -72 -33l-6 -16l30 1l-5 -15l-20 -15l-6 -16l10 -15l-5 -16l-31 -46l20 -30l-5 -15l-77 -2l55 -106l-53 -63l11 -14q-8 -2 -16 -5h256v535zM969 1202l-10 98h-8l-10 -30l10 -15l-5 -15l-42 -32l-16 -46
l71 -18zM1262 1402l-31 -46h31l31 31l-15 15h-16zM681 53h-15l-31 -30h46v30zM879 8l15 15h16v15h-30l-16 -15v-15h15zM757 38h-30v-15h16l15 -15h15v15zM407 -221h-46l30 -31l16 16v15zM1230 -236l16 -16l30 31h-46v-15zM178 8h30q-5 30 -30 30q-4 0 -8 13zM1429 8h30l8 43
q-4 -13 -8 -13q-25 0 -30 -30zM285 -206l-31 -30v-16l31 31v15zM1352 -221l31 -31v16l-31 30v-15zM178 -175h-15l-31 -31h15zM1490 -206h15l-31 31h-15zM269 -145h-30v-15h30v15zM1368 -160h30v15h-30v-15zM590 69h-2l-5 -15l7 -11v26zM465 67h-3l1 -6zM1170 62h-1v-9l1 1v8
zM956 43l1 10h-1v-10z" />
    <glyph glyph-name="uni0415" unicode="&#x415;" horiz-adv-x="781" 
d="M83 1433h610l46 -46v-30l-30 -46l15 -46l-31 -30l31 -46l-76 -15l76 -92v-15h-31l-45 31h-16q0 -46 -30 -46l-46 46l-15 -16h-15l-46 16q-43 -77 -122 -77l30 -30l46 15v-76q0 -31 153 -46v-15l106 30l16 -15v-107l-31 -121l-76 45l-15 -15v-15l15 -61l-76 15l-31 -30
h-15v45h-15l-61 -15l-46 15l-31 -45h16l15 15h15l15 -15v-16q-30 0 -45 -106q61 0 61 -46l30 -92l92 31h30l46 -46q0 -30 -46 -30v-16l76 -30h16v15h-31v31h15l46 -16l-15 16v30l30 31l31 -31l-15 -15v-15l15 -61q0 -31 -46 -31v-46h31v-45h-16l-15 15h-15q0 -31 -92 -46
v-15q61 -8 61 -46l-15 -15l-15 15h-46l-15 -15h-15l-16 15v15l46 16l-30 30l-61 -46h-16l-61 46l-30 -30l-31 30l-15 -15l-15 15h-15l-46 -30l-46 15l-30 -31h-16v31h-15v-31l15 -15h-61l-30 31v1357zM663 1311v-30h15v30h-15zM556 1250v-30h15v30h-15zM373 1143l-15 -61
v-15h15l31 61l-16 15h-15zM99 1052v-15l45 -46v30l-30 31h-15zM175 1006v-30h30l16 61h-16zM144 960l31 -30h15v30h-46zM343 945v-30h15v30h-15zM373 945v-30h15v30h-15zM129 899v-15l76 -30v45h-76zM99 869v-31l30 31h-30zM678 610l31 -31v-30h-61v30zM480 564h30v-15h-30
v15zM327 381l61 -46v77h-30zM129 290l31 -31h61v31h-92zM343 290v-16h30v16h-30zM419 290v-16h30v16h-30z" />
    <glyph glyph-name="uni0416" unicode="&#x416;" horiz-adv-x="1623" 
d="M397 1441q54 0 195 -495h45l-15 75l30 30h8v37l-8 8v15l8 2v88h-8v30h30v-8l8 8l45 -30h14l23 30v15q0 30 -45 30h-7v-15h-60v135l30 30h262l30 -30v-135h-60v15h-7q-45 0 -45 -30v-15l22 -30h15l45 30l8 -8v8h30v-30h-8v-88l8 -2v-15l-8 -8v-37h8l30 -30l-15 -75h45
q141 495 195 495h45l166 -30l15 15h15l15 -15q0 -75 -90 -75l15 -75l-60 -15q0 -30 45 -30v-15l-30 -45q0 -30 45 -30l-15 -45l30 -75l-15 -15h-15l-15 15l15 15v30l-61 -60v-30l31 -45q-23 -60 -46 -60l-15 15h-15l-45 -15v-15q106 0 106 -45l-46 -45h-15v30h30v30l-60 -30
v-30q54 0 166 -346q0 -30 -60 -30l15 -75l15 15h60l45 -45l-135 -30v-45l75 15h15l15 -75l-15 -15q122 -10 135 -60l-45 -30q-15 54 -105 75q-15 -90 -75 -90v-15q-241 0 -241 225l-15 45l15 15q-49 0 -105 345h-15l-38 -26v-34h23v-15l-15 -75h-8v-45h23v-30h-23v-89
q8 -29 8 -76v-10l5 -25l10 -10v-135l-30 -30h-7q-7 -15 -16 -15h-15q-18 0 -25 15h-27l-60 -15l-4 2l-4 -2l-60 15h-28q-7 -15 -24 -15h-15q-9 0 -17 15h-6l-30 30v135l10 10l5 25v10q0 47 8 76v89h-23v30h23v45h-8l-15 75v15h23v34l-38 26h-15q-56 -345 -105 -345l15 -15
l-15 -45q0 -225 -241 -225v15q-60 0 -75 90q-90 -21 -105 -75l-45 30q13 50 135 60l-15 15l15 75h15l75 -15v45l-135 30l45 45h60l15 -15l15 75q-60 0 -60 30q112 346 166 346v30l-60 30v-30h30v-30h-15l-46 45q0 45 106 45v15l-45 15h-15l-15 -15q-23 0 -46 60l31 45v30
l-61 60v-30l15 -15l-15 -15h-15l-15 15l30 75l-15 45q45 0 45 30l-30 45v15q45 0 45 30l-60 15l15 75q-90 0 -90 75l15 15h15l15 -15l166 30h45zM1486 1246h30v-75h-30v75zM412 1261l-30 -30v-30h30l30 30zM156 1171h-30v75h30v-75zM1200 1231l30 -30h30v30l-30 30zM292 300
l-31 -30h46v30h-15zM1335 300v-30h46l-31 30h-15zM1396 435v-45h15v45h-15zM231 435v-45h15v45h-15zM111 1396h-30l30 30v-30zM1531 1426l30 -30h-30v30zM990 856h-8v-24zM660 832v24h-8z" />
    <glyph glyph-name="uni0417" unicode="&#x417;" horiz-adv-x="891" 
d="M786 1000v-1l31 31v-16l-25 -24l25 -36l-15 -15l30 -31q0 -29 -91 -60v-15l15 -15v-15h15l-15 -15v-15l-15 15h-10l-81 -46l81 -46h10l15 15v-15l15 -15h-15v-15l-15 -15v-15q91 -31 91 -60l-30 -31l15 -15l-25 -37l25 -23v-16h15l30 -30l-30 -30v-1l-15 -15h-1l-21 -21
l37 -9q0 -99 -61 -168v-13h-12q-29 -29 -70 -53q-20 -38 -39 -38h-15l11 17q-15 -7 -31 -13l5 -4v-15l-106 -16v6l-30 -6h-76q-70 11 -121 24v-24h-61q-79 0 -91 46l25 25q-25 17 -25 35v17q-15 23 -15 59l15 15v16l-15 196l15 16h15l1 -1q128 -31 157 -96q40 -8 87 -9
l34 17l14 37l-5 6l-76 -15h-15v30l116 34l14 38l-15 21q-61 12 -123 89h-37l15 -15v-15l-15 -15h-15l-16 15v15l16 15h-61q-25 0 -39 91q-4 7 -6 15q1 8 1 15t-1 15q2 8 6 15q14 91 39 91h61l-16 15v15l16 15h15l15 -15v-15l-15 -15h37q62 77 123 89q7 10 15 20l-14 38
l-116 35v30h15l76 -15l5 5l-14 38l-34 17q-47 -1 -87 -10q-29 -64 -157 -95l-1 -1h-15l-15 16l15 196v16l-15 15q0 35 15 58v18q0 18 25 35l-25 25q12 46 91 46h61v-25q51 13 121 25h76l30 -6v6l106 -16v-15l-5 -5l31 -12l-11 17h15q19 0 39 -39q41 -23 70 -52h12v-13
q61 -69 61 -168l-37 -9l21 -21h1l15 -15v-1l30 -30l-30 -30h-15v37l-42 -23q-9 -19 -19 -45v-15h14zM756 1197v45l-76 15l-13 -13l44 -33v-15l-15 -15v-15l2 -2q9 26 58 33zM696 303l15 -15v-15l-44 -33l13 -13l76 15v45q-49 6 -58 33l-2 -2v-15zM756 485q10 -27 19 -45
l42 -23v37l-31 30l-16 16h-14v-15zM484 288l-16 -61l16 -15h30v15l-15 46l15 15h-30zM514 1196l-15 15l15 46v15h-30l-16 -15l16 -61h30zM741 954h-30l45 -46h30v31zM786 576h-30l-45 -46h30l45 15v31zM241 1212h15v30h-30l-10 -5zM226 242h30v30h-15l-25 -25zM259 1407
q-73 -4 -90 -34q30 18 90 34zM259 76q-59 17 -90 34q17 -29 90 -34zM711 893l-31 31v-31h31zM680 591v-31l31 31h-31zM408 227h30v31zM438 1226v31h-30zM756 1106v14h-30l14 -14h16zM726 364h30v14h-16zM726 1151v-15l15 15h-15zM726 333h15l-15 15v-15zM726 848v15h-8
q4 -7 8 -15zM726 621v14q-4 -8 -8 -14h8z" />
    <glyph glyph-name="uni0418" unicode="&#x418;" horiz-adv-x="1101" 
d="M166 0h-30v30h30v-30zM715 61l-30 -31h-16l46 46v-15zM868 198v-30h15v30h-15zM166 290h-15l-30 30h15zM380 305l-16 -15l31 -31v46h-15zM486 381l-30 -30l46 -16l15 16zM730 366h-30v30h30v-30zM730 549l-30 -61h-31v30l16 16l-16 15v15l31 31h30v-46zM441 595h-31v30
h31v-30zM380 671q0 -61 -61 -61v-15l61 -31l-16 -46v-15h31v31h30l16 -46h15l15 15l-15 46q0 46 76 46v15q-55 0 -76 91zM715 762l-30 -30q0 -31 91 -46v76h-61zM441 793l-16 -61h16l30 30zM776 808v-30h15v30h-15zM715 854h-15v-61h15l31 30zM227 945v-30l31 30h-31z
M517 899h-15l-31 31l31 30zM197 991v-46h15l15 15zM791 1082h-15v-30h46zM105 1098l-15 -16l-30 31h45v-15zM929 1250h-16v31h16v-31zM121 1342h-16v30h16v-30zM1020 1387v-45l-30 -31h-16v76h-15l-46 -30l-30 30h-15l-16 -15l16 -76l-61 -15l45 -122h16q30 0 30 45h15
l46 -45q31 0 31 76l30 -31v-198l-30 -30h-31l15 76h-45v-31h-31v31h-46l31 -76v-16h-31l-91 77l-61 -31l30 -30l-30 -77v-15l15 -15l76 30v16h-30v15l30 30h16v-45h15l15 15h31v-15q0 -31 -46 -31v-30h61q0 45 30 45q31 0 31 -45l46 15l-31 30v16l15 15l46 -46v-213l-15 -61
l15 -61v-198l-46 -46h-15l15 61v15l-15 15l-46 -45q-30 0 -30 45l-46 -15v-15l31 -46q0 -46 -61 -46l137 -106l46 30l-31 46v15h15l46 -46v-152l-30 -31h-46l-15 16v15l15 15l-31 31l-45 -46l-122 122l30 30l-30 92v15l45 46l-45 107l15 106h30l16 -15l15 15h15l15 -15
l-30 -46v-30h15q31 0 31 61h30q0 -46 31 -46h15v31l-31 45v16h77v15l-31 30h-15l-15 -15l-16 15l31 46v31h-15q-31 0 -31 -46h-30q0 46 -31 46h-15v-61l15 -16l-61 -30q-40 34 -152 46l-16 -138q-88 -305 -137 -305l31 -45v-46l-92 -76l-46 30l-15 -76l-46 15l-45 -15
q-31 0 -31 61h-30l-15 -15q-30 69 -61 76l30 30l-30 46v31l15 15q76 0 76 30v16q-26 64 -107 137q0 30 46 30v31h-76v30q51 0 61 92l-15 15l30 31l-46 91v15l77 16v30l-61 -15h-16l-15 15q0 30 76 30v16q-26 61 -61 61v15l31 30l-31 31l46 76l-30 31l45 76l-15 46l15 15
l46 -31h46l15 46l-15 61h-61q-8 -61 -46 -61h-46v46q46 0 61 76q46 0 46 61h183l15 -15l-15 -61l15 -61q0 -31 -61 -31v-30q76 0 76 -137v-16l-15 -15v-15l15 -15l-45 -77v-15l30 -30l-15 -16q9 -91 107 -91v15l15 15v16h-46v30l15 -15l77 30v31l-16 107h-30l-15 -16l-16 16
q60 91 107 91v46h-46l31 168q76 -11 76 -46q0 -31 -46 -31v-15q46 0 46 -46l92 46l-16 92l-45 -31l-46 31l15 61h15l46 -31q0 61 31 61h228z" />
    <glyph glyph-name="uni0419" unicode="&#x419;" horiz-adv-x="1101" 
d="M166 0h-30v30h30v-30zM715 61l-30 -31h-16l46 46v-15zM868 198v-30h15v30h-15zM166 290h-15l-30 30h15zM380 305l-16 -15l31 -31v46h-15zM486 381l-30 -30l46 -16l15 16zM730 366h-30v30h30v-30zM730 549l-30 -61h-31v30l16 16l-16 15v15l31 31h30v-46zM441 595h-31v30
h31v-30zM380 671q0 -61 -61 -61v-15l61 -31l-16 -46v-15h31v31h30l16 -46h15l15 15l-15 46q0 46 76 46v15q-55 0 -76 91zM715 762l-30 -30q0 -31 91 -46v76h-61zM441 793l-16 -61h16l30 30zM776 808v-30h15v30h-15zM715 854h-15v-61h15l31 30zM227 945v-30l31 30h-31z
M517 899h-15l-31 31l31 30zM197 991v-46h15l15 15zM791 1082h-15v-30h46zM105 1098l-15 -16l-30 31h45v-15zM929 1250h-16v31h16v-31zM121 1342h-16v30h16v-30zM1020 1387v-45l-30 -31h-16v76h-15l-46 -30l-30 30h-15l-16 -15l16 -76l-61 -15l45 -122h16q30 0 30 45h15
l46 -45q31 0 31 76l30 -31v-198l-30 -30h-31l15 76h-45v-31h-31v31h-46l31 -76v-16h-31l-91 77l-61 -31l30 -30l-30 -77v-15l15 -15l76 30v16h-30v15l30 30h16v-45h15l15 15h31v-15q0 -31 -46 -31v-30h61q0 45 30 45q31 0 31 -45l46 15l-31 30v16l15 15l46 -46v-213l-15 -61
l15 -61v-198l-46 -46h-15l15 61v15l-15 15l-46 -45q-30 0 -30 45l-46 -15v-15l31 -46q0 -46 -61 -46l137 -106l46 30l-31 46v15h15l46 -46v-152l-30 -31h-46l-15 16v15l15 15l-31 31l-45 -46l-122 122l30 30l-30 92v15l45 46l-45 107l15 106h30l16 -15l15 15h15l15 -15
l-30 -46v-30h15q31 0 31 61h30q0 -46 31 -46h15v31l-31 45v16h77v15l-31 30h-15l-15 -15l-16 15l31 46v31h-15q-31 0 -31 -46h-30q0 46 -31 46h-15v-61l15 -16l-61 -30q-40 34 -152 46l-16 -138q-88 -305 -137 -305l31 -45v-46l-92 -76l-46 30l-15 -76l-46 15l-45 -15
q-31 0 -31 61h-30l-15 -15q-30 69 -61 76l30 30l-30 46v31l15 15q76 0 76 30v16q-26 64 -107 137q0 30 46 30v31h-76v30q51 0 61 92l-15 15l30 31l-46 91v15l77 16v30l-61 -15h-16l-15 15q0 30 76 30v16q-26 61 -61 61v15l31 30l-31 31l46 76l-30 31l45 76l-15 46l15 15
l46 -31h46l15 46l-15 61h-61q-8 -61 -46 -61h-46v46q46 0 61 76q46 0 46 61h183l15 -15l-15 -61l15 -61q0 -31 -61 -31v-30q76 0 76 -137v-16l-15 -15v-15l15 -15l-45 -77v-15l30 -30l-15 -16q9 -91 107 -91v15l15 15v16h-46v30l15 -15l77 30v31l-16 107h-30l-15 -16l-16 16
q60 91 107 91v46h-46l31 168q76 -11 76 -46q0 -31 -46 -31v-15q46 0 46 -46l92 46l-16 92l-45 -31l-46 31l15 61h15l46 -31q0 61 31 61h228zM392 1842h42l41 -13l70 13h181l41 -41q0 -28 -41 -28l28 -42v-42l-14 -13v-14l27 -28l-41 -14l28 -42v-42l-14 -13v-14l-98 14h-41
q0 55 -42 55h-14v-55l-28 27l14 14h-42q-28 0 -28 -41h-97v69l28 42l-28 28v153zM642 1564v-14h28l14 42h-14z" />
    <glyph glyph-name="uni041A" unicode="&#x41a;" horiz-adv-x="1031" 
d="M653 1441h45l166 -30l15 15h15l15 -15q0 -75 -90 -75l15 -75l-60 -15q0 -30 45 -30v-15l-30 -45q0 -30 45 -30l-15 -45l30 -75l-15 -15h-15l-15 15l15 15v30l-61 -60v-30l31 -45q-23 -60 -46 -60l-15 15h-15l-45 -15v-15q106 0 106 -45l-46 -45h-15v30h30v30l-60 -30v-30
q54 0 166 -346q0 -30 -60 -30l15 -75l15 15h60l45 -45l-135 -30v-45l75 15h15l15 -75l-15 -15q122 -10 135 -60l-45 -30q-15 54 -105 75q-15 -90 -75 -90v-15q-241 0 -241 225l-15 45l15 15q-49 0 -105 345h-15l-45 -30h-15v30h-45v-30q0 -30 90 -30v-15l-15 -75h-15
q0 60 -30 60h-30v-30l15 -60q-15 -78 -60 -120l15 -60l-15 -45q28 0 75 -90l-15 -15v-15h15l45 45l-30 30l30 30l15 -15v-135l-30 -30h-30l15 15v45h-30v-60h-45l-60 -15l-90 45q0 -45 -30 -45h-15q-30 0 -45 165h15l-15 15l15 75v931l30 30l45 -30h30l15 45l-15 45h-45v-30
h-60v135l30 30h180l45 -45l-15 -15v-15l30 -75h-15q-45 0 -45 -30v-15l45 -60l-30 -45v-15h15l15 15h15l60 -15v-15l-30 -30l-30 30h-15l15 -15v-15q-7 -60 -45 -60v-30h30v-60h-30v-30q45 0 45 -30l-15 -15l45 -30h15l15 45h-45l15 75l-15 15l15 15h15l-15 75v15h30l30 -30
l-15 -75h45q141 495 195 495zM939 1426l30 -30h-30v30zM608 1231l30 -30h30v30l-30 30zM894 1246h30v-75h-30v75zM368 1231h30v-30h-30v30zM323 1006h15v-30h-15v30zM173 585v-15h30v15h-30zM804 435v-45h15v45h-15zM383 435h30v-30h-30v30zM353 360q45 -9 45 -120v-15h-30
l-45 75q30 0 30 60zM743 300v-30h46l-31 30h-15z" />
    <glyph glyph-name="uni041B" unicode="&#x41b;" horiz-adv-x="1220" 
d="M1096 0q-259 10 -259 30q0 31 -46 31v30h31v16l-61 122l15 15h15q31 -35 31 -107l61 76q-25 0 -61 107h-15l-16 -15l-15 15l46 107l-15 15h-16q0 -46 -30 -46v31l46 46h15v-46l15 -15h31q0 41 45 91q-49 0 -76 122h-30v-15l15 -15v-16h-31v31l-15 15l15 15h31l-15 16v15
h76v30l-61 15l15 16v30h-30v-46h-16l-15 16h-15q11 91 30 91l-30 153l15 15l15 -15h16l91 30v31l-107 -31q0 28 -137 46l-61 -15h-14v-1l31 -45q0 -60 -77 -122v-15l46 -61v-31h-15l-46 15l31 -91v-15l-31 -46q61 -15 61 -92q-30 0 -46 -91h31l15 15h15l16 -15
q0 -46 -61 -46l15 -76h-46q0 -30 46 -30l15 -16v-30h-30l15 -46l-15 -76h-31v46h-30v-46h30q-23 -61 -45 -61h-31l15 107l-45 -31h-31l-15 15h-15l-16 -15v-15q77 -20 77 -46h-77l-15 15h-15l-31 -91h-76l-30 30l15 16q-168 69 -168 91v15l15 77q-30 0 -30 45l15 16l-15 76
v76h30q82 -61 138 -61q61 15 61 92v274l15 320l-15 15l15 76v260l30 30h122q77 -4 77 -30l15 15h106l31 -31l-1 -1q30 -59 91 -59v30h76l46 31l15 -16h16v31h30q0 -50 31 -76v-16h30q59 66 153 107l30 -91v-153l-15 -15l15 -15v-641l-15 -15l15 -15v-153l-30 -45l30 -31v-15
l-30 -31l-46 46h-15q-5 -76 -46 -76l15 -61h76q0 46 31 46l15 -16v-106zM1096 823v31h-30q0 45 -31 45l-30 -61v-30h15zM868 899q0 31 45 31l16 15v15l-16 16h-15l-46 -46h-15v-31h31zM305 975l30 -30h31v76h-15zM883 1281v45l-76 -15v-30h76zM503 975l15 -15h46v46h-31z
M852 808v15l-30 31v-46h30zM366 229l30 -31v31h-30zM1020 274v31h-15v-31h15zM883 290v30h-31zM807 671h-31v30zM503 259v-15h30v15h-30zM624 1311v15l-30 30v-15zM654 1220v30h-15v-30h15zM564 1219l9 6l-10 10h-16l16 -16h1z" />
    <glyph glyph-name="uni041C" unicode="&#x41c;" horiz-adv-x="1361" 
d="M80 1451h123l217 -15l46 15q108 -15 108 -46v-15q-46 0 -46 -31q67 0 92 -201h-46v31h-31q0 -93 62 -93v-15l-62 -62l15 -15l-15 -78v-46h15l16 15h15l-15 16v46l15 16v15q29 0 78 -93v-15l-47 -62h16l15 16h16l15 -47h15q51 402 93 464l-15 15v15q19 155 61 155h108
q356 0 356 -46q-62 0 -62 -93q-62 -8 -62 -46l46 -47v-15l-46 31l-15 -16v-15q138 -76 139 -108l-16 -16h-31l-46 31l-16 -92q56 -78 93 -78v-15l-15 -16v-15q31 0 46 -93l-15 -15h-16l-46 123h-31v-15l15 -77q-56 -77 -92 -77v-31l77 -16v62h15l31 -31v-31l-46 -46l46 -77
l-15 -47h31v31h31v-15l-31 -62l15 -46h-15l-16 15h-15l-47 -15v-16q0 -123 62 -123l-15 -77l15 -16q-67 0 -92 -77h-47l16 -15v-31l-31 -31l-46 31q0 -62 -31 -62h-47l-46 31l15 463v201q-30 0 -30 -124q-26 0 -47 -123l-77 -31v-16q0 -30 62 -30v-31q0 -119 -62 -139
l16 -16v-15l-31 -46l31 -47l-16 -15v-16l16 -15l-16 -16h-15l-78 47l-30 -31q-31 0 -31 46l-31 -31l15 -15l-15 -16h-47q-41 0 -61 217l46 46q-77 0 -77 278q-20 0 -31 92q-62 0 -62 47l16 46q-31 0 -31 46h-16q0 -61 -31 -61l109 -155q0 -31 -47 -31v-15q47 -57 47 -108
h-16l16 -16v-15l-62 -62l-47 16l-30 -47l30 -46l-15 -77l77 -62v-15h-15l-47 15l-77 -93l-46 31h-31l-62 -46h-15l-31 31v509l15 62l-15 62v463q0 25 139 108l-15 77l15 16l-15 15l-16 -15h-31l-77 92zM1083 1359v-16h31v16h-31zM1099 1281h31v31zM358 1251v-31h15l31 31
h-46zM1006 1204v-15h31v15h-31zM327 1096v-31h31v31h-31zM311 1019l-46 -139l77 -31h16l31 62v31h-31v31h31v15l-31 31h-47zM1037 988v-31h-15l15 -46l16 15h92v31q-72 0 -108 31zM1269 988h31v-15h-31v15zM806 957v-31h30l31 31h-61zM883 818l61 -15v15l-30 31zM342 834
v-31h16v31h-16zM373 834v-31h16v31h-16zM281 803v-31h15v31h-15zM883 741l31 -31h30v31h-61zM404 726l31 -31v31h-31zM296 664v-16h31v16h-31zM1053 664v-16h30v16h-30zM1269 648h31v-30h-31v30zM327 571l15 -15h16v46zM157 571v-31h31v31h-31zM1053 571v-31h15v31h-15z
M1161 509v-30h77l-31 77zM342 479l-15 -108h46l16 46l-16 62h-31zM1068 340v-16l15 -15v-16l-15 -15l-15 15h-31l15 -108l46 31l47 -15v15l46 46h15v-30h16v30l-108 31v16q46 0 46 77zM1284 371h16v-31l-31 -31l-31 31zM775 340l-16 -62l47 -31v15l-16 62l16 16h-31z
M342 293h31v-31h-31v31zM543 216v-31h31zM1269 139h15v-31h-15v31zM358 62h15v-47h-46v16zM1222 46l31 -31l-15 -15h-31l-31 31l15 15h31z" />
    <glyph glyph-name="uni041D" unicode="&#x41d;" 
d="M157 1432q277 -10 277 -93l-46 -15v-31l77 -77l-61 -16v-15q0 -31 46 -31l15 -15v-31h-61l30 -47l-15 -46l15 16h16l15 -16v-15l-61 -62l15 -16h15l16 16q23 -62 46 -62l31 31h108q8 62 46 62l-46 77v62l46 77l-30 31l108 61v16l-16 15h-15l-31 -31q-62 26 -62 109l31 30
h201l46 -46l-16 -62l16 -15v-16l-16 -46l93 -15v-31h-46l-16 15h-15v-31q15 -61 77 -61l16 15l15 -15v-16l-77 -15v-16h31v-30l-16 15h-62q47 -93 93 -93v-15q-93 0 -93 -77h16l46 -31l47 15l-16 -15v-16l16 -15v-15l-31 -31l15 -77l-15 -47l-78 16v-16l16 -15v-16l-16 -46
l78 -93l-31 -30q62 0 62 -78l-16 -15h-15l-47 15l-31 -46v-31q58 -5 93 -62v-30l-15 -16l31 -77h-16l-77 15v-15q0 -31 62 -31l15 -15v-31l-31 -31l-46 62h-16q0 -47 -30 -47h-16l-139 16l-61 -16l-16 16v62l16 92l-16 46l16 16v15l-16 47l31 31q-31 24 -31 169l-15 16h-170
l-16 -108l31 -31l-46 -46l15 -47h-30l-47 31l16 -77l-16 -62h16l46 16l15 -16v-62q-77 0 -77 -61l16 -16h31q0 47 30 47l31 -47l-31 -31h-15q-52 0 -108 47h-31l16 -16v-15l-16 -16h-15l-62 16l-93 -31l-15 15v1390q0 38 62 46zM959 1386h31l-31 -31v31zM249 1293l31 -31
l16 15v16h-47zM944 1293h31v-31h-31v31zM743 1231v-31h31zM203 1000l-16 -78l16 -61l77 61q-10 62 -77 78zM882 845v-46l31 31l-16 15h-15zM928 799l31 -31v31h-31zM897 737v-31h31zM944 676h31v30zM434 614v-47h31l47 31h30l47 -31h31v31l-93 31h-15zM388 382h31v31z
M218 305q0 -31 -61 -31v-31q46 0 46 -61q108 52 108 77q-46 0 -46 46h-47zM666 259v-31h31v31h-31zM913 197v-46h46v46h-46z" />
    <glyph glyph-name="uni041E" unicode="&#x41e;" horiz-adv-x="1187" 
d="M569 1433h77l76 -61h15l46 31l76 -77v-30l-15 -61l137 -168h15q0 46 31 46l15 -15l-15 -16v-15l15 -46h-46v-30h61v-31q-61 -7 -61 -45l46 -77l-15 -15v-15l15 -15h15l-15 -15v-31h46q0 46 30 46l15 -15v-16q-9 -45 -106 -45q0 -31 45 -31l16 -15v-15h-77l61 -92l61 46
h16v-15q0 -40 -107 -61l-15 15l-16 -15v-16l31 -30l-15 -15l-16 15h-30v-31l46 -15l-16 -15v-31h16l61 46l15 -15v-15q0 -27 -137 -77l-16 16q-49 -77 -121 -77v-30l76 -31v-30l-16 15h-30v-30l-15 -16l15 -15h15q0 -39 -137 -61v-15h31v-31h-16q-41 0 -45 77
q-61 -23 -61 -46l15 -46l-15 -15h-16q0 28 -106 91v-61h-31l-15 16h-15l-16 -16v31h-15l-46 -31q-186 105 -213 168l15 15q-91 140 -91 183q-31 55 -46 290q15 290 76 290l-15 15v15q0 134 152 229l-15 15v15q95 168 320 168zM707 1296v-15h15l30 30v15h-15zM768 1326v-15
h30v15h-30zM630 1311l16 -15v-46h-46v-30q46 0 46 -31l-16 -15v-15l16 -16h15q0 46 30 46l31 -30v45q-61 0 -61 31l15 15v15l-15 46h-31zM417 1235v-31h30l31 31l-31 30zM707 1235v-15h30v15h-30zM478 930h-31v76l-15 -15h-15l-15 15h-16v-107l16 -61l-16 -45h16l-16 -15
v-31h61v-30h-61v-16l16 -15v-15l-16 -15l-15 15h-30l30 -46l-46 -46v-15l46 31l15 -46l16 15h15l61 -61v-76l-15 -15v-16l183 -30q85 137 137 137l-15 15v61h45v16q-61 0 -61 30l31 46l-46 46v91l-15 91l15 46q-66 81 -152 92q-57 0 -107 -107zM859 945v-30l61 -16l15 46
h-76zM463 915v-46l-31 30l15 16h16zM310 762v-76h15l31 31v45h-46zM203 656l-30 -61l30 -31h92v31l-31 30l-15 -15h-15l-15 46h-16zM417 442h30v31zM615 335v-30h15v30h-15zM676 335v-30l31 30h-31zM966 305h61l-16 -76h-30zM402 274l15 -45h15l31 30v15h-61zM569 274v-15
h61v15h-61zM661 229l91 15v30h-45zM249 213v-15h31v15h-31zM615 213v-45l31 30l-16 15h-15zM691 198v-30h16v30h-16zM737 152h31v31zM859 46h30v-16h-30v16z" />
    <glyph glyph-name="uni041F" unicode="&#x41f;" horiz-adv-x="1063" 
d="M656 1433h308l31 -31v-138h-31l15 15v15h-77v-30l16 -16v-15l-31 -31v-46l123 -31v-46h-61v-16l30 -46v-31q-61 0 -61 -92l61 46l16 -15v-16l-31 -31l-15 16v-47h15l15 16h16v-16q0 -30 -77 -30v-31l46 -16l46 16v-46q-61 0 -61 -31v-16h30v-15l-15 -15v-16l15 -15v-16
l-15 -46l31 -31v-15h-77l92 -108l-31 -62l16 -15q-62 -15 -62 -77h62v-31l-16 -15l16 -16v-15q0 -31 -46 -31v-15l30 -47v-15l-15 -15v-16l31 -31v-15h-16l-107 46v-46h-31l-139 15l-62 -15l-15 15v16l15 92l-15 16v15q0 93 46 93v30q-46 0 -46 31v570l46 47l62 -47h46
l15 47l-15 46h-15l-108 -31l-18 97h-20l-61 15q-137 -18 -137 -46l-107 31v-31l91 -30h16l15 15l15 -15l-30 -153q19 0 30 -91h-15l-15 -16h-16v46h-30v-30l15 -16l-61 -15v-30h76v-15l-15 -16h31l15 -15l-15 -15v-31h-31v16l15 15v15h-30q-27 -122 -76 -122q45 -50 45 -91
h31l15 15l46 -107l-15 -15l-16 15h-15q-36 -107 -61 -107l61 -76q0 72 31 107h15l15 -15l-61 -122v-16h31v-30q-46 0 -46 -31q0 -20 -259 -30l-46 46v106l15 16q31 0 31 -46h76l15 61q-41 0 -46 76h-15l-46 -46l-30 31v15l30 31l-30 45v153l15 15l-15 15v641l15 15l-15 15
v153l30 91q94 -41 153 -107h30v16q31 26 31 76h30v-31h16l15 16l46 -31h76v-30q61 0 91 61q46 0 46 30q9 -2 18 -5zM191 808h15v30l-30 61q-31 0 -31 -45h-30v-31zM733 324v-47h31l-31 -30l-16 15v-62l77 62v15q-30 0 -30 47h-31zM374 899v31h-15l-46 46h-15l-16 -16v-15
l16 -15q45 0 45 -31h31zM404 1281v30l-76 15v-45h76zM450 396q-30 0 -30 46h-16l-15 -15v46h15l46 -46v-31zM933 247l-15 -16v-15l15 -16h16l15 16v15l-15 16h-16zM933 1402l-31 -46h31l31 31l-15 15h-16zM389 808v46l-30 -31v-15h30zM825 62v-31h16v31h-16zM435 701v-30
h-31zM359 320h-31v-30zM618 1342v15l-31 -31v-15zM206 274v31h-15v-31h15zM572 1220v30h-15v-30h15zM633 1204l6 6l-1 14l-20 -20h15z" />
    <glyph glyph-name="uni0420" unicode="&#x420;" horiz-adv-x="1031" 
d="M960 1219q0 -130 46 -183l-31 -46l31 -91l-31 -31l15 -15q-10 -122 -30 -122l15 -76l-46 15l-15 -15h-15l-61 46h76l-15 15v15l15 16v15q-152 -23 -152 -76l30 -31l-30 -30q-31 0 -31 45h-76q0 -30 -61 -76l46 -76v-15h-15l-61 45h-15q-31 0 -31 -60l-107 30v-15
q0 -41 -45 -92v-15q61 0 61 -30l-16 -16l-15 16h-30l-31 -61l31 -61l-31 -122l15 15h16l15 -15v-31h-46l-30 31l-76 -15h-46v-61q91 0 91 -31l-15 -15h-46l-45 30h-16l-45 -30l-46 46v487l15 92l-15 15v15l15 594v153l31 30h365q140 0 198 -61l46 15q46 -64 46 -121h-15
l-31 30l15 15v15q-71 0 -106 31h-16l16 -76l-61 -15v-31l76 -15l-15 -15v-31l15 15h30l16 -15h15q0 46 30 46h16l15 -15h15v15l-15 15v15l15 46h15q26 0 46 -91l-15 -46h61v30l-16 77h31v-31h30zM137 1341l31 -31v-15l-61 -15v-31q45 0 45 -30l-15 -46h31q0 46 30 46l61 -61
v15l-15 76l15 -15h31l30 31q-91 20 -91 45l45 46l-15 15h-15l-46 -30l-30 30zM396 1325l-15 -15l15 -15v-15l-15 -15v-16q30 0 30 -45l46 -16v107zM350 1173v-30h31zM427 1158v-31q45 0 45 -61h-15l-15 -60h-15q-31 0 -31 45h-30l15 -15v-15l-46 -122v-15h15q46 0 46 45
l15 16h31v-122h107l76 45l-16 46l16 92v15q-46 0 -46 61zM899 1143l-31 -92v-15h46l15 76v31h-30zM823 1127v-30h15v30h-15zM350 1082h46v30h-15zM168 1021q0 -46 -61 -92h45l16 16q45 0 45 -46l16 -15h15q0 45 46 45v31h-61l15 15v46q-31 0 -31 -46l-15 -15h-30l30 46
l-15 15h-15zM838 914q46 0 46 -61h15l30 31l-15 106h-15zM152 914v-61h16l30 61h-46zM396 884v-31h15v31h-15zM259 701v-31h-15l-76 16l45 -61l-76 -16q0 -30 76 -30l16 -15v-31l-16 15h-15l-30 -30l30 -30l31 30l61 -15l-16 76h16l15 -15h15l15 15v30q-91 0 -91 31l46 15
v46h-31zM442 609v-45h30v45h-30zM701 625l30 -31l-15 -15h-15v46zM762 564h15v-31h-15v31zM152 381l-15 -15l15 -16v-30q0 -31 -45 -31v-30h45v-46l-15 -15v-15h15l46 30q31 0 31 -45l91 -31v76l-15 -15h-31l-45 46l61 15v30q-77 0 -77 31q61 0 61 46h-45q0 -46 -31 -46
q-23 61 -46 61z" />
    <glyph glyph-name="uni0421" unicode="&#x421;" horiz-adv-x="864" 
d="M455 1425h147q177 -42 177 -88l-15 -132l15 -44h-30l-14 14h-15l-15 -59h-15l-14 15h-15q0 -29 -44 -29l15 -15v-15l-15 -14h-15l-14 44h-59q0 -74 -44 -74l-59 15q0 -29 44 -29v-15l-29 -29q-37 0 -44 58h-44q0 -44 -30 -44l-14 15l-30 -44h15l88 15l29 -30
q0 -161 -73 -161v-15q44 -54 44 -103v-15l-44 -58h15l14 14h15q0 -140 191 -205q83 0 191 117h15l14 -59l-29 -88l15 -14v-15l-30 -44l30 -44q-15 -74 -59 -74v-14q0 -30 44 -30v-44h-88v30l-74 -30l15 -73l-15 -15h-14l-15 15l15 14v30l-74 14h-15v-44h-14q-89 74 -132 74
q0 -34 -74 -44q-155 151 -191 235v15l15 14v15q-103 0 -103 352q0 460 279 676q101 59 176 59zM544 1175v-44h29v44h-29zM617 1175v-29l29 29h-29zM749 1116l30 -29v-103h-15q-103 51 -103 74v29l74 -15h14v44zM309 926v-30l58 -29v59h-58zM309 705v-29h29zM544 44l14 -15
v-14l-14 -15h-15l-15 15v14l15 15h15z" />
    <glyph glyph-name="uni0422" unicode="&#x422;" horiz-adv-x="902" 
d="M76 1433h739l31 -31l-46 -46l-15 15q0 -92 -62 -92q0 -23 62 -46q0 -47 61 -47h16v-46l-62 -61h-31v30h46v31q-61 0 -61 31l15 15h-15l-46 -46v-15q46 0 46 -31l-46 -15l-16 15h-31v-15h31v-16l-31 -31q-10 41 -77 77h-15v-77h31v-30h-31v-47h15l47 16q-62 -73 -78 -154
h16q46 15 46 92l16 -15h15l-15 -16v-15l15 -77q-46 0 -46 -46l-16 -16h-15q0 -77 62 -77v-61h-31v46h-31l-31 -170q0 -46 46 -46v-31h-31v-108l16 16h15l16 -16v-15l-47 -15q8 -143 47 -185l-16 -16h-15l-31 31h-15q0 -77 -47 -77q-30 0 -30 77h-93v-15l16 -16v-15l-93 -31
l-15 15v216l31 31l-31 123v462l15 93l-31 123l16 16h-31v15l-93 -31h-30q0 31 -47 31l-15 15v108l46 47q6 -42 77 -62l31 77l-15 15l-16 47h-15q-46 0 -46 -47l-16 -15h-15l-31 31v92zM322 1371v-30h16v30h-16zM384 1371q0 -41 -77 -77l-15 16h-16l-15 -16v-30q77 0 77 -31
l-46 -47v-15h46v46h15q31 0 31 -61h31v46l-31 46l15 16l16 -16h15l31 31l-62 15l16 77h-31zM553 1341l-15 -77l15 -16h16l-16 -15v-31h16q5 62 92 62q-15 55 -108 77zM168 1171q0 -46 -61 -46v-16h46q0 31 46 31zM60 1063h47l-31 -31h-16v31zM338 1002v-31q61 0 61 -46h47
v15l-31 62h-77zM292 955l30 -30l16 15v15h-46zM322 878h31v31zM384 909v-31h31zM600 740l31 -31l-16 -16h-15v47zM353 693v-46h31q0 -31 -77 -31v-30q62 0 62 -31l-31 -31v-31h15l46 31l62 -31v46l-15 47h46v30q-46 0 -46 62l-62 -31q0 46 -31 46zM569 524h46v-16l-31 -30
l-15 15v31zM338 339l31 -31v31h-31zM399 339v-31h16v31h-16zM307 293v-31h46v31h-46zM399 293v-31h77v31h-77zM338 247l-31 -62h31l31 31v31h-31zM399 231v-31h16v31h-16zM600 216h46v-16l-31 -31l-15 16v31zM615 46h31v-31h-31v31z" />
    <glyph glyph-name="uni0423" unicode="&#x423;" horiz-adv-x="907" 
d="M477 631h2v4q-6 -4 -15 -4q0 22 -133 54l-14 9h-14q18 -41 54 -45l13 8v-8l-27 -46l-12 9h-14l14 9v10q-41 23 -41 54h-14l-12 -9h-15l-39 9l-14 -9v-9l27 -18h-13l-40 27l13 9q-48 0 -107 92l13 9v9l-26 128v202l26 28l-26 26v10l26 26l-26 19v119l26 19q27 0 27 -28
l14 -9h53l40 37h26v18q-39 0 -39 45l-14 -8h-53v8l27 19h26l14 -9l13 9h26q68 -25 68 -82l-27 -56l27 -18v-36l-41 -9l41 -46l-27 -46q17 -46 41 -46q0 38 26 38l27 -20v-8l-41 -28h-12l-41 18v-9q27 -21 27 -64q67 0 67 -18l-27 8l-26 -8h-14v-2l26 -18v18h27l14 -83h-14
q19 -37 67 -54q29 0 47 7l10 175l-15 15l15 76v260l30 30h13l-5 6l12 9h148q19 0 39 -36h1l6 6h106l31 -31l-31 -45v-31l16 -15v-15q-77 -20 -77 -46v-31h31l46 31l15 -15v-46l-15 -61l15 -46l-46 -15v-1l9 -6v-36h-1l23 -33q0 -32 -22 -65v-13q0 -11 -23 -15
q-14 -15 -32 -29v-15l46 -61v-31h-15l-35 11l-8 -5v8l-3 1l3 -9l28 -82v-15l-31 -46q61 -15 61 -92q-30 0 -46 -91h31l15 15h15l16 -15q0 -46 -61 -46l15 -76h-46q0 -30 46 -30l15 -16v-30h-30l15 -46l-15 -76h-31v46h-30v-46h30q-23 -61 -45 -61h-31l15 107l-45 -31h-31
l-15 15h-15l-16 -15v-15q77 -20 77 -46h-77l-15 15h-15l-31 -91h-76l-30 30l15 16q-168 69 -168 91v15l15 77q-30 0 -30 45l15 16l-15 76v76h30q82 -61 138 -61q61 15 61 92v139h-2v19zM196 996l14 -9l-94 -9l67 -45q56 12 81 45q-41 0 -41 18l14 28zM89 1454q41 -9 41 -55
l-14 -9h-27l-26 19v26zM753 975l15 -15h46v46h-31zM357 803l-14 -9v-10l14 -34h13l14 34v10l-14 9h-13zM343 1189h27v-19h-27v19zM223 649h41v-18h-15zM616 229l30 -31v31h-30zM753 259v-15h30v15h-30zM753 1311h30v30zM555 1001l11 -11q19 4 19 14q-15 0 -26 1zM343 1409
h27v-10h-27v10zM196 1326v-10h27v10h-27zM357 1280h27v-9h-27v9zM343 1326h27v-18z" />
    </font>
</defs>
</svg>
